M48
; DRILL file {KiCad (5.1.9)-1} date 01/20/21 12:41:57
; FORMAT={-:-/ absolute / metric / decimal}
; #@! TF.CreationDate,2021-01-20T12:41:57+11:00
; #@! TF.GenerationSoftware,Kicad,Pcbnew,(5.1.9)-1
; #@! TF.FileFunction,Plated,1,2,PTH
FMAT,2
METRIC
T1C0.400
T2C0.500
T3C0.800
T4C0.920
T5C1.000
T6C1.350
T7C1.400
T8C3.200
%
G90
G05
T1
X112.268Y-86.995
X115.697Y-76.2
X118.11Y-111.125
X118.11Y-125.095
X118.11Y-132.715
X119.38Y-111.125
X120.65Y-93.98
X120.65Y-104.775
X120.65Y-111.125
X121.92Y-111.125
X122.183Y-56.642
X123.19Y-56.769
X123.19Y-111.125
X124.46Y-111.125
X125.095Y-92.075
X125.238Y-102.235
X125.238Y-102.235
X127.381Y-86.233
X129.286Y-97.155
X129.572Y-60.674
X130.175Y-100.965
X130.556Y-62.738
X130.81Y-102.235
X131.318Y-95.885
X131.445Y-103.415
X132.08Y-97.028
X132.08Y-99.695
X132.08Y-113.665
X132.842Y-89.662
X136.525Y-105.41
X137.287Y-86.233
X137.287Y-94.615
X137.287Y-95.885
X137.795Y-104.14
X138.557Y-97.155
X139.573Y-109.347
X143.256Y-98.552
X146.812Y-100.33
X146.867Y-88.99
X153.035Y-114.681
X153.035Y-118.999
X154.305Y-98.298
X154.328Y-87.54
X162.56Y-84.582
X166.37Y-103.251
X166.497Y-84.455
X168.021Y-96.139
X168.148Y-91.186
X168.933Y-103.274
X170.942Y-88.773
X171.022Y-113.049
X171.45Y-91.186
X172.339Y-96.139
X176.911Y-114.427
X176.911Y-118.364
X179.768Y-105.156
X184.849Y-98.806
X184.849Y-103.886
X185.877Y-100.089
X185.877Y-106.045
X192.786Y-91.567
X196.85Y-114.808
T2
X110.63Y-50.8
X110.63Y-140.97
X111.333Y-49.103
X111.333Y-52.497
X111.333Y-139.273
X111.333Y-142.667
X113.03Y-48.4
X113.03Y-53.2
X113.03Y-138.57
X113.03Y-143.37
X114.727Y-49.103
X114.727Y-52.497
X114.727Y-139.273
X114.727Y-142.667
X115.43Y-50.8
X115.43Y-140.97
X200.8Y-50.8
X200.8Y-140.97
X201.503Y-49.103
X201.503Y-52.497
X201.503Y-139.273
X201.503Y-142.667
X203.2Y-48.4
X203.2Y-53.2
X203.2Y-138.57
X203.2Y-143.37
X204.897Y-49.103
X204.897Y-52.497
X204.897Y-139.273
X204.897Y-142.667
X205.6Y-50.8
X205.6Y-140.97
T3
X116.84Y-96.647
X116.84Y-101.547
X185.42Y-77.47
X185.42Y-85.09
X187.96Y-77.47
X187.96Y-85.09
X190.5Y-77.47
X190.5Y-85.09
X193.04Y-77.47
X193.04Y-85.09
X193.294Y-98.108
X193.294Y-100.647
X193.294Y-103.188
X193.294Y-105.727
X200.914Y-98.108
X200.914Y-100.647
X200.914Y-103.188
X200.914Y-105.727
T4
X123.19Y-58.674
X123.19Y-60.674
X123.19Y-62.674
X123.19Y-64.674
T5
X113.03Y-113.665
X113.03Y-116.205
X113.03Y-118.745
X113.03Y-121.285
X113.03Y-123.825
X113.03Y-126.365
X113.03Y-128.905
X113.03Y-131.445
X113.03Y-133.985
X142.24Y-137.287
X142.24Y-139.827
X142.24Y-142.367
X144.145Y-105.41
X146.685Y-105.41
X149.225Y-105.41
X151.765Y-105.41
X154.305Y-105.41
X157.48Y-92.71
X157.48Y-95.25
X157.48Y-97.79
X157.48Y-100.33
X160.02Y-92.71
X160.02Y-95.25
X160.02Y-97.79
X160.02Y-100.33
X165.1Y-137.414
X165.1Y-139.954
X165.1Y-142.494
X187.96Y-137.541
X187.96Y-140.081
X187.96Y-142.621
T6
X120.47Y-57.944
X120.47Y-64.944
X125.91Y-57.944
X125.91Y-64.944
T7
X134.74Y-58.88
X134.74Y-133.525
X137.24Y-48.88
X137.24Y-61.38
X137.24Y-131.025
X137.24Y-143.525
X142.24Y-58.88
X142.24Y-133.525
X147.24Y-48.88
X147.24Y-61.38
X147.24Y-131.025
X147.24Y-143.525
X149.74Y-58.88
X149.74Y-133.525
X157.6Y-58.88
X157.6Y-133.525
X160.1Y-48.88
X160.1Y-61.38
X160.1Y-131.025
X160.1Y-143.525
X165.1Y-58.88
X165.1Y-133.525
X170.1Y-48.88
X170.1Y-61.38
X170.1Y-131.025
X170.1Y-143.525
X172.6Y-58.88
X172.6Y-133.525
X180.46Y-58.88
X180.46Y-133.525
X182.96Y-48.88
X182.96Y-61.38
X182.96Y-131.025
X182.96Y-143.525
X187.96Y-58.88
X187.96Y-133.525
X192.96Y-48.88
X192.96Y-61.38
X192.96Y-131.025
X192.96Y-143.525
X195.46Y-58.88
X195.46Y-133.525
T8
X113.03Y-50.8
X113.03Y-140.97
X203.2Y-50.8
X203.2Y-140.97
T0
M30
