G04 #@! TF.GenerationSoftware,KiCad,Pcbnew,(5.1.9)-1*
G04 #@! TF.CreationDate,2021-01-20T12:41:54+11:00*
G04 #@! TF.ProjectId,USBtoMIDI,55534274-6f4d-4494-9449-2e6b69636164,rev?*
G04 #@! TF.SameCoordinates,Original*
G04 #@! TF.FileFunction,Soldermask,Bot*
G04 #@! TF.FilePolarity,Negative*
%FSLAX46Y46*%
G04 Gerber Fmt 4.6, Leading zero omitted, Abs format (unit mm)*
G04 Created by KiCad (PCBNEW (5.1.9)-1) date 2021-01-20 12:41:54*
%MOMM*%
%LPD*%
G01*
G04 APERTURE LIST*
%ADD10R,1.600000X1.600000*%
%ADD11O,1.600000X1.600000*%
%ADD12C,1.620000*%
%ADD13C,1.850000*%
%ADD14R,1.700000X1.700000*%
%ADD15O,1.700000X1.700000*%
%ADD16C,0.900000*%
%ADD17C,2.500000*%
%ADD18C,6.400000*%
%ADD19C,0.800000*%
%ADD20C,1.500000*%
G04 APERTURE END LIST*
D10*
G04 #@! TO.C,U6*
X193040000Y-77470000D03*
D11*
X185420000Y-85090000D03*
X190500000Y-77470000D03*
X187960000Y-85090000D03*
X187960000Y-77470000D03*
X190500000Y-85090000D03*
X185420000Y-77470000D03*
X193040000Y-85090000D03*
G04 #@! TD*
D12*
G04 #@! TO.C,USB1*
X123190000Y-58674000D03*
X123190000Y-60674000D03*
X123190000Y-62674000D03*
D13*
X125910000Y-57944000D03*
D12*
X123190000Y-64674000D03*
D13*
X125910000Y-64944000D03*
X120470000Y-57944000D03*
X120470000Y-64944000D03*
G04 #@! TD*
D10*
G04 #@! TO.C,SW1*
X193294000Y-98107500D03*
D11*
X200914000Y-105727500D03*
X193294000Y-100647500D03*
X200914000Y-103187500D03*
X193294000Y-103187500D03*
X200914000Y-100647500D03*
X193294000Y-105727500D03*
X200914000Y-98107500D03*
G04 #@! TD*
D14*
G04 #@! TO.C,J3*
X165100000Y-142494000D03*
D15*
X165100000Y-139954000D03*
X165100000Y-137414000D03*
G04 #@! TD*
D14*
G04 #@! TO.C,J2*
X142240000Y-142367000D03*
D15*
X142240000Y-139827000D03*
X142240000Y-137287000D03*
G04 #@! TD*
D14*
G04 #@! TO.C,J1*
X187960000Y-142621000D03*
D15*
X187960000Y-140081000D03*
X187960000Y-137541000D03*
G04 #@! TD*
D16*
G04 #@! TO.C,USB2*
X125390000Y-51635000D03*
X120990000Y-51635000D03*
G04 #@! TD*
D17*
G04 #@! TO.C,DIN6*
X182960000Y-143525000D03*
X192960000Y-143525000D03*
X182960000Y-131025000D03*
X195460000Y-133525000D03*
X187960000Y-133525000D03*
X192960000Y-131025000D03*
X180460000Y-133525000D03*
G04 #@! TD*
G04 #@! TO.C,DIN5*
X160100000Y-143525000D03*
X170100000Y-143525000D03*
X160100000Y-131025000D03*
X172600000Y-133525000D03*
X165100000Y-133525000D03*
X170100000Y-131025000D03*
X157600000Y-133525000D03*
G04 #@! TD*
D14*
G04 #@! TO.C,J7*
X160020000Y-100330000D03*
D15*
X157480000Y-100330000D03*
X160020000Y-97790000D03*
X157480000Y-97790000D03*
X160020000Y-95250000D03*
X157480000Y-95250000D03*
X160020000Y-92710000D03*
X157480000Y-92710000D03*
G04 #@! TD*
D17*
G04 #@! TO.C,DIN4*
X137240000Y-143525000D03*
X147240000Y-143525000D03*
X137240000Y-131025000D03*
X149740000Y-133525000D03*
X142240000Y-133525000D03*
X147240000Y-131025000D03*
X134740000Y-133525000D03*
G04 #@! TD*
D18*
G04 #@! TO.C,H4*
X203200000Y-50800000D03*
D19*
X203200000Y-53200000D03*
X201502944Y-52497056D03*
X200800000Y-50800000D03*
X201502944Y-49102944D03*
X203200000Y-48400000D03*
X204897056Y-49102944D03*
X205600000Y-50800000D03*
X204897056Y-52497056D03*
G04 #@! TD*
D18*
G04 #@! TO.C,H3*
X203200000Y-140970000D03*
D19*
X203200000Y-143370000D03*
X201502944Y-142667056D03*
X200800000Y-140970000D03*
X201502944Y-139272944D03*
X203200000Y-138570000D03*
X204897056Y-139272944D03*
X205600000Y-140970000D03*
X204897056Y-142667056D03*
G04 #@! TD*
D18*
G04 #@! TO.C,H2*
X113030000Y-140970000D03*
D19*
X113030000Y-143370000D03*
X111332944Y-142667056D03*
X110630000Y-140970000D03*
X111332944Y-139272944D03*
X113030000Y-138570000D03*
X114727056Y-139272944D03*
X115430000Y-140970000D03*
X114727056Y-142667056D03*
G04 #@! TD*
D18*
G04 #@! TO.C,H1*
X113030000Y-50800000D03*
D19*
X113030000Y-53200000D03*
X111332944Y-52497056D03*
X110630000Y-50800000D03*
X111332944Y-49102944D03*
X113030000Y-48400000D03*
X114727056Y-49102944D03*
X115430000Y-50800000D03*
X114727056Y-52497056D03*
G04 #@! TD*
D20*
G04 #@! TO.C,Y1*
X116840000Y-96647000D03*
X116840000Y-101547000D03*
G04 #@! TD*
D17*
G04 #@! TO.C,DIN3*
X147240000Y-48880000D03*
X137240000Y-48880000D03*
X147240000Y-61380000D03*
X134740000Y-58880000D03*
X142240000Y-58880000D03*
X137240000Y-61380000D03*
X149740000Y-58880000D03*
G04 #@! TD*
G04 #@! TO.C,DIN2*
X170100000Y-48880000D03*
X160100000Y-48880000D03*
X170100000Y-61380000D03*
X157600000Y-58880000D03*
X165100000Y-58880000D03*
X160100000Y-61380000D03*
X172600000Y-58880000D03*
G04 #@! TD*
G04 #@! TO.C,DIN1*
X192960000Y-48880000D03*
X182960000Y-48880000D03*
X192960000Y-61380000D03*
X180460000Y-58880000D03*
X187960000Y-58880000D03*
X182960000Y-61380000D03*
X195460000Y-58880000D03*
G04 #@! TD*
D14*
G04 #@! TO.C,J9*
X113030000Y-113665000D03*
D15*
X113030000Y-116205000D03*
X113030000Y-118745000D03*
X113030000Y-121285000D03*
X113030000Y-123825000D03*
X113030000Y-126365000D03*
X113030000Y-128905000D03*
X113030000Y-131445000D03*
X113030000Y-133985000D03*
G04 #@! TD*
D14*
G04 #@! TO.C,J8*
X154305000Y-105410000D03*
D15*
X151765000Y-105410000D03*
X149225000Y-105410000D03*
X146685000Y-105410000D03*
X144145000Y-105410000D03*
G04 #@! TD*
M02*
