G04 #@! TF.GenerationSoftware,KiCad,Pcbnew,(5.1.9)-1*
G04 #@! TF.CreationDate,2021-01-20T12:41:54+11:00*
G04 #@! TF.ProjectId,USBtoMIDI,55534274-6f4d-4494-9449-2e6b69636164,rev?*
G04 #@! TF.SameCoordinates,Original*
G04 #@! TF.FileFunction,Legend,Top*
G04 #@! TF.FilePolarity,Positive*
%FSLAX46Y46*%
G04 Gerber Fmt 4.6, Leading zero omitted, Abs format (unit mm)*
G04 Created by KiCad (PCBNEW (5.1.9)-1) date 2021-01-20 12:41:54*
%MOMM*%
%LPD*%
G01*
G04 APERTURE LIST*
%ADD10C,0.150000*%
%ADD11C,0.120000*%
%ADD12C,0.300000*%
%ADD13C,0.304800*%
G04 APERTURE END LIST*
D10*
X190047619Y-96131809D02*
X191047619Y-96131809D01*
X191047619Y-96369904D01*
X191000000Y-96512761D01*
X190904761Y-96608000D01*
X190809523Y-96655619D01*
X190619047Y-96703238D01*
X190476190Y-96703238D01*
X190285714Y-96655619D01*
X190190476Y-96608000D01*
X190095238Y-96512761D01*
X190047619Y-96369904D01*
X190047619Y-96131809D01*
X190047619Y-97131809D02*
X191047619Y-97131809D01*
X190095238Y-97560380D02*
X190047619Y-97703238D01*
X190047619Y-97941333D01*
X190095238Y-98036571D01*
X190142857Y-98084190D01*
X190238095Y-98131809D01*
X190333333Y-98131809D01*
X190428571Y-98084190D01*
X190476190Y-98036571D01*
X190523809Y-97941333D01*
X190571428Y-97750857D01*
X190619047Y-97655619D01*
X190666666Y-97608000D01*
X190761904Y-97560380D01*
X190857142Y-97560380D01*
X190952380Y-97608000D01*
X191000000Y-97655619D01*
X191047619Y-97750857D01*
X191047619Y-97988952D01*
X191000000Y-98131809D01*
X190333333Y-98512761D02*
X190333333Y-98988952D01*
X190047619Y-98417523D02*
X191047619Y-98750857D01*
X190047619Y-99084190D01*
X190571428Y-99750857D02*
X190523809Y-99893714D01*
X190476190Y-99941333D01*
X190380952Y-99988952D01*
X190238095Y-99988952D01*
X190142857Y-99941333D01*
X190095238Y-99893714D01*
X190047619Y-99798476D01*
X190047619Y-99417523D01*
X191047619Y-99417523D01*
X191047619Y-99750857D01*
X191000000Y-99846095D01*
X190952380Y-99893714D01*
X190857142Y-99941333D01*
X190761904Y-99941333D01*
X190666666Y-99893714D01*
X190619047Y-99846095D01*
X190571428Y-99750857D01*
X190571428Y-99417523D01*
X190047619Y-100893714D02*
X190047619Y-100417523D01*
X191047619Y-100417523D01*
X190571428Y-101227047D02*
X190571428Y-101560380D01*
X190047619Y-101703238D02*
X190047619Y-101227047D01*
X191047619Y-101227047D01*
X191047619Y-101703238D01*
X191047619Y-103084190D02*
X191047619Y-103274666D01*
X191000000Y-103369904D01*
X190904761Y-103465142D01*
X190714285Y-103512761D01*
X190380952Y-103512761D01*
X190190476Y-103465142D01*
X190095238Y-103369904D01*
X190047619Y-103274666D01*
X190047619Y-103084190D01*
X190095238Y-102988952D01*
X190190476Y-102893714D01*
X190380952Y-102846095D01*
X190714285Y-102846095D01*
X190904761Y-102893714D01*
X191000000Y-102988952D01*
X191047619Y-103084190D01*
X191047619Y-103941333D02*
X190238095Y-103941333D01*
X190142857Y-103988952D01*
X190095238Y-104036571D01*
X190047619Y-104131809D01*
X190047619Y-104322285D01*
X190095238Y-104417523D01*
X190142857Y-104465142D01*
X190238095Y-104512761D01*
X191047619Y-104512761D01*
X191047619Y-104846095D02*
X191047619Y-105417523D01*
X190047619Y-105131809D02*
X191047619Y-105131809D01*
X190047619Y-105750857D02*
X191047619Y-105750857D01*
X191047619Y-106131809D01*
X191000000Y-106227047D01*
X190952380Y-106274666D01*
X190857142Y-106322285D01*
X190714285Y-106322285D01*
X190619047Y-106274666D01*
X190571428Y-106227047D01*
X190523809Y-106131809D01*
X190523809Y-105750857D01*
X191047619Y-106750857D02*
X190238095Y-106750857D01*
X190142857Y-106798476D01*
X190095238Y-106846095D01*
X190047619Y-106941333D01*
X190047619Y-107131809D01*
X190095238Y-107227047D01*
X190142857Y-107274666D01*
X190238095Y-107322285D01*
X191047619Y-107322285D01*
X191047619Y-107655619D02*
X191047619Y-108227047D01*
X190047619Y-107941333D02*
X191047619Y-107941333D01*
D11*
X158750000Y-90932000D02*
X163322000Y-90932000D01*
X158750000Y-102108000D02*
X163322000Y-102108000D01*
X130175000Y-111760000D02*
X130175000Y-146050000D01*
X158115000Y-111760000D02*
X130175000Y-111760000D01*
X158115000Y-102108000D02*
X158115000Y-111760000D01*
X158115000Y-81280000D02*
X158115000Y-90932000D01*
X130175000Y-81280000D02*
X158115000Y-81280000D01*
X130175000Y-46101000D02*
X130175000Y-81280000D01*
X158750000Y-80645000D02*
X158750000Y-90932000D01*
X154432000Y-102108000D02*
X158115000Y-102108000D01*
X154432000Y-90932000D02*
X154432000Y-102108000D01*
X158115000Y-90932000D02*
X154432000Y-90932000D01*
X163322000Y-102108000D02*
X163322000Y-90932000D01*
D12*
X204441428Y-62969857D02*
X205941428Y-62969857D01*
X204870000Y-63469857D01*
X205941428Y-63969857D01*
X204441428Y-63969857D01*
X204441428Y-64684142D02*
X205941428Y-64684142D01*
X204441428Y-65398428D02*
X205941428Y-65398428D01*
X205941428Y-65755571D01*
X205870000Y-65969857D01*
X205727142Y-66112714D01*
X205584285Y-66184142D01*
X205298571Y-66255571D01*
X205084285Y-66255571D01*
X204798571Y-66184142D01*
X204655714Y-66112714D01*
X204512857Y-65969857D01*
X204441428Y-65755571D01*
X204441428Y-65398428D01*
X204441428Y-66898428D02*
X205941428Y-66898428D01*
X204441428Y-68755571D02*
X205941428Y-68755571D01*
X204870000Y-69255571D01*
X205941428Y-69755571D01*
X204441428Y-69755571D01*
X204870000Y-70398428D02*
X204870000Y-71112714D01*
X204441428Y-70255571D02*
X205941428Y-70755571D01*
X204441428Y-71255571D01*
X205155714Y-72041285D02*
X204441428Y-72041285D01*
X205941428Y-71541285D02*
X205155714Y-72041285D01*
X205941428Y-72541285D01*
X204441428Y-73041285D02*
X205941428Y-73041285D01*
X205227142Y-73041285D02*
X205227142Y-73898428D01*
X204441428Y-73898428D02*
X205941428Y-73898428D01*
X205227142Y-74612714D02*
X205227142Y-75112714D01*
X204441428Y-75327000D02*
X204441428Y-74612714D01*
X205941428Y-74612714D01*
X205941428Y-75327000D01*
X204441428Y-75969857D02*
X205941428Y-75969857D01*
X204870000Y-76469857D01*
X205941428Y-76969857D01*
X204441428Y-76969857D01*
X205798571Y-78755571D02*
X205870000Y-78827000D01*
X205941428Y-78969857D01*
X205941428Y-79327000D01*
X205870000Y-79469857D01*
X205798571Y-79541285D01*
X205655714Y-79612714D01*
X205512857Y-79612714D01*
X205298571Y-79541285D01*
X204441428Y-78684142D01*
X204441428Y-79612714D01*
X205941428Y-80541285D02*
X205941428Y-80684142D01*
X205870000Y-80827000D01*
X205798571Y-80898428D01*
X205655714Y-80969857D01*
X205370000Y-81041285D01*
X205012857Y-81041285D01*
X204727142Y-80969857D01*
X204584285Y-80898428D01*
X204512857Y-80827000D01*
X204441428Y-80684142D01*
X204441428Y-80541285D01*
X204512857Y-80398428D01*
X204584285Y-80327000D01*
X204727142Y-80255571D01*
X205012857Y-80184142D01*
X205370000Y-80184142D01*
X205655714Y-80255571D01*
X205798571Y-80327000D01*
X205870000Y-80398428D01*
X205941428Y-80541285D01*
X205798571Y-81612714D02*
X205870000Y-81684142D01*
X205941428Y-81827000D01*
X205941428Y-82184142D01*
X205870000Y-82327000D01*
X205798571Y-82398428D01*
X205655714Y-82469857D01*
X205512857Y-82469857D01*
X205298571Y-82398428D01*
X204441428Y-81541285D01*
X204441428Y-82469857D01*
X204441428Y-83898428D02*
X204441428Y-83041285D01*
X204441428Y-83469857D02*
X205941428Y-83469857D01*
X205727142Y-83327000D01*
X205584285Y-83184142D01*
X205512857Y-83041285D01*
X205441428Y-85541285D02*
X204441428Y-85898428D01*
X205441428Y-86255571D01*
X204441428Y-87612714D02*
X204441428Y-86755571D01*
X204441428Y-87184142D02*
X205941428Y-87184142D01*
X205727142Y-87041285D01*
X205584285Y-86898428D01*
X205512857Y-86755571D01*
X204584285Y-88255571D02*
X204512857Y-88327000D01*
X204441428Y-88255571D01*
X204512857Y-88184142D01*
X204584285Y-88255571D01*
X204441428Y-88255571D01*
X205941428Y-89255571D02*
X205941428Y-89398428D01*
X205870000Y-89541285D01*
X205798571Y-89612714D01*
X205655714Y-89684142D01*
X205370000Y-89755571D01*
X205012857Y-89755571D01*
X204727142Y-89684142D01*
X204584285Y-89612714D01*
X204512857Y-89541285D01*
X204441428Y-89398428D01*
X204441428Y-89255571D01*
X204512857Y-89112714D01*
X204584285Y-89041285D01*
X204727142Y-88969857D01*
X205012857Y-88898428D01*
X205370000Y-88898428D01*
X205655714Y-88969857D01*
X205798571Y-89041285D01*
X205870000Y-89112714D01*
X205941428Y-89255571D01*
X201891428Y-67219857D02*
X203391428Y-67219857D01*
X201962857Y-67862714D02*
X201891428Y-68005571D01*
X201891428Y-68291285D01*
X201962857Y-68434142D01*
X202105714Y-68505571D01*
X202177142Y-68505571D01*
X202320000Y-68434142D01*
X202391428Y-68291285D01*
X202391428Y-68077000D01*
X202462857Y-67934142D01*
X202605714Y-67862714D01*
X202677142Y-67862714D01*
X202820000Y-67934142D01*
X202891428Y-68077000D01*
X202891428Y-68291285D01*
X202820000Y-68434142D01*
X201891428Y-69362714D02*
X201962857Y-69219857D01*
X202034285Y-69148428D01*
X202177142Y-69077000D01*
X202605714Y-69077000D01*
X202748571Y-69148428D01*
X202820000Y-69219857D01*
X202891428Y-69362714D01*
X202891428Y-69577000D01*
X202820000Y-69719857D01*
X202748571Y-69791285D01*
X202605714Y-69862714D01*
X202177142Y-69862714D01*
X202034285Y-69791285D01*
X201962857Y-69719857D01*
X201891428Y-69577000D01*
X201891428Y-69362714D01*
X201891428Y-70719857D02*
X201962857Y-70577000D01*
X202105714Y-70505571D01*
X203391428Y-70505571D01*
X201891428Y-71934142D02*
X202677142Y-71934142D01*
X202820000Y-71862714D01*
X202891428Y-71719857D01*
X202891428Y-71434142D01*
X202820000Y-71291285D01*
X201962857Y-71934142D02*
X201891428Y-71791285D01*
X201891428Y-71434142D01*
X201962857Y-71291285D01*
X202105714Y-71219857D01*
X202248571Y-71219857D01*
X202391428Y-71291285D01*
X202462857Y-71434142D01*
X202462857Y-71791285D01*
X202534285Y-71934142D01*
X202891428Y-72434142D02*
X202891428Y-73005571D01*
X203391428Y-72648428D02*
X202105714Y-72648428D01*
X201962857Y-72719857D01*
X201891428Y-72862714D01*
X201891428Y-73005571D01*
X201962857Y-74077000D02*
X201891428Y-73934142D01*
X201891428Y-73648428D01*
X201962857Y-73505571D01*
X202105714Y-73434142D01*
X202677142Y-73434142D01*
X202820000Y-73505571D01*
X202891428Y-73648428D01*
X202891428Y-73934142D01*
X202820000Y-74077000D01*
X202677142Y-74148428D01*
X202534285Y-74148428D01*
X202391428Y-73434142D01*
X201891428Y-75434142D02*
X203391428Y-75434142D01*
X201962857Y-75434142D02*
X201891428Y-75291285D01*
X201891428Y-75005571D01*
X201962857Y-74862714D01*
X202034285Y-74791285D01*
X202177142Y-74719857D01*
X202605714Y-74719857D01*
X202748571Y-74791285D01*
X202820000Y-74862714D01*
X202891428Y-75005571D01*
X202891428Y-75291285D01*
X202820000Y-75434142D01*
X203391428Y-77077000D02*
X203391428Y-77934142D01*
X201891428Y-77505571D02*
X203391428Y-77505571D01*
X201891428Y-78434142D02*
X203391428Y-78434142D01*
X201891428Y-79077000D02*
X202677142Y-79077000D01*
X202820000Y-79005571D01*
X202891428Y-78862714D01*
X202891428Y-78648428D01*
X202820000Y-78505571D01*
X202748571Y-78434142D01*
X201891428Y-79791285D02*
X202891428Y-79791285D01*
X202605714Y-79791285D02*
X202748571Y-79862714D01*
X202820000Y-79934142D01*
X202891428Y-80077000D01*
X202891428Y-80219857D01*
X201891428Y-80934142D02*
X201962857Y-80791285D01*
X202034285Y-80719857D01*
X202177142Y-80648428D01*
X202605714Y-80648428D01*
X202748571Y-80719857D01*
X202820000Y-80791285D01*
X202891428Y-80934142D01*
X202891428Y-81148428D01*
X202820000Y-81291285D01*
X202748571Y-81362714D01*
X202605714Y-81434142D01*
X202177142Y-81434142D01*
X202034285Y-81362714D01*
X201962857Y-81291285D01*
X201891428Y-81148428D01*
X201891428Y-80934142D01*
X202891428Y-82719857D02*
X201891428Y-82719857D01*
X202891428Y-82077000D02*
X202105714Y-82077000D01*
X201962857Y-82148428D01*
X201891428Y-82291285D01*
X201891428Y-82505571D01*
X201962857Y-82648428D01*
X202034285Y-82719857D01*
X202891428Y-84077000D02*
X201677142Y-84077000D01*
X201534285Y-84005571D01*
X201462857Y-83934142D01*
X201391428Y-83791285D01*
X201391428Y-83577000D01*
X201462857Y-83434142D01*
X201962857Y-84077000D02*
X201891428Y-83934142D01*
X201891428Y-83648428D01*
X201962857Y-83505571D01*
X202034285Y-83434142D01*
X202177142Y-83362714D01*
X202605714Y-83362714D01*
X202748571Y-83434142D01*
X202820000Y-83505571D01*
X202891428Y-83648428D01*
X202891428Y-83934142D01*
X202820000Y-84077000D01*
X201891428Y-84791285D02*
X203391428Y-84791285D01*
X201891428Y-85434142D02*
X202677142Y-85434142D01*
X202820000Y-85362714D01*
X202891428Y-85219857D01*
X202891428Y-85005571D01*
X202820000Y-84862714D01*
X202748571Y-84791285D01*
X199341428Y-60505571D02*
X200841428Y-60505571D01*
X199412857Y-61148428D02*
X199341428Y-61291285D01*
X199341428Y-61577000D01*
X199412857Y-61719857D01*
X199555714Y-61791285D01*
X199627142Y-61791285D01*
X199770000Y-61719857D01*
X199841428Y-61577000D01*
X199841428Y-61362714D01*
X199912857Y-61219857D01*
X200055714Y-61148428D01*
X200127142Y-61148428D01*
X200270000Y-61219857D01*
X200341428Y-61362714D01*
X200341428Y-61577000D01*
X200270000Y-61719857D01*
X199341428Y-62648428D02*
X199412857Y-62505571D01*
X199484285Y-62434142D01*
X199627142Y-62362714D01*
X200055714Y-62362714D01*
X200198571Y-62434142D01*
X200270000Y-62505571D01*
X200341428Y-62648428D01*
X200341428Y-62862714D01*
X200270000Y-63005571D01*
X200198571Y-63077000D01*
X200055714Y-63148428D01*
X199627142Y-63148428D01*
X199484285Y-63077000D01*
X199412857Y-63005571D01*
X199341428Y-62862714D01*
X199341428Y-62648428D01*
X199341428Y-64005571D02*
X199412857Y-63862714D01*
X199555714Y-63791285D01*
X200841428Y-63791285D01*
X199341428Y-65219857D02*
X200127142Y-65219857D01*
X200270000Y-65148428D01*
X200341428Y-65005571D01*
X200341428Y-64719857D01*
X200270000Y-64577000D01*
X199412857Y-65219857D02*
X199341428Y-65077000D01*
X199341428Y-64719857D01*
X199412857Y-64577000D01*
X199555714Y-64505571D01*
X199698571Y-64505571D01*
X199841428Y-64577000D01*
X199912857Y-64719857D01*
X199912857Y-65077000D01*
X199984285Y-65219857D01*
X200341428Y-65719857D02*
X200341428Y-66291285D01*
X200841428Y-65934142D02*
X199555714Y-65934142D01*
X199412857Y-66005571D01*
X199341428Y-66148428D01*
X199341428Y-66291285D01*
X199412857Y-67362714D02*
X199341428Y-67219857D01*
X199341428Y-66934142D01*
X199412857Y-66791285D01*
X199555714Y-66719857D01*
X200127142Y-66719857D01*
X200270000Y-66791285D01*
X200341428Y-66934142D01*
X200341428Y-67219857D01*
X200270000Y-67362714D01*
X200127142Y-67434142D01*
X199984285Y-67434142D01*
X199841428Y-66719857D01*
X199341428Y-68719857D02*
X200841428Y-68719857D01*
X199412857Y-68719857D02*
X199341428Y-68577000D01*
X199341428Y-68291285D01*
X199412857Y-68148428D01*
X199484285Y-68077000D01*
X199627142Y-68005571D01*
X200055714Y-68005571D01*
X200198571Y-68077000D01*
X200270000Y-68148428D01*
X200341428Y-68291285D01*
X200341428Y-68577000D01*
X200270000Y-68719857D01*
X200341428Y-71219857D02*
X199341428Y-71219857D01*
X200912857Y-70862714D02*
X199841428Y-70505571D01*
X199841428Y-71434142D01*
X200841428Y-73434142D02*
X200841428Y-73719857D01*
X200770000Y-73862714D01*
X200627142Y-74005571D01*
X200341428Y-74077000D01*
X199841428Y-74077000D01*
X199555714Y-74005571D01*
X199412857Y-73862714D01*
X199341428Y-73719857D01*
X199341428Y-73434142D01*
X199412857Y-73291285D01*
X199555714Y-73148428D01*
X199841428Y-73077000D01*
X200341428Y-73077000D01*
X200627142Y-73148428D01*
X200770000Y-73291285D01*
X200841428Y-73434142D01*
X200341428Y-75362714D02*
X199341428Y-75362714D01*
X200341428Y-74719857D02*
X199555714Y-74719857D01*
X199412857Y-74791285D01*
X199341428Y-74934142D01*
X199341428Y-75148428D01*
X199412857Y-75291285D01*
X199484285Y-75362714D01*
X200341428Y-75862714D02*
X200341428Y-76434142D01*
X200841428Y-76077000D02*
X199555714Y-76077000D01*
X199412857Y-76148428D01*
X199341428Y-76291285D01*
X199341428Y-76434142D01*
X200341428Y-76934142D02*
X198841428Y-76934142D01*
X200270000Y-76934142D02*
X200341428Y-77077000D01*
X200341428Y-77362714D01*
X200270000Y-77505571D01*
X200198571Y-77577000D01*
X200055714Y-77648428D01*
X199627142Y-77648428D01*
X199484285Y-77577000D01*
X199412857Y-77505571D01*
X199341428Y-77362714D01*
X199341428Y-77077000D01*
X199412857Y-76934142D01*
X200341428Y-78934142D02*
X199341428Y-78934142D01*
X200341428Y-78291285D02*
X199555714Y-78291285D01*
X199412857Y-78362714D01*
X199341428Y-78505571D01*
X199341428Y-78719857D01*
X199412857Y-78862714D01*
X199484285Y-78934142D01*
X200341428Y-79434142D02*
X200341428Y-80005571D01*
X200841428Y-79648428D02*
X199555714Y-79648428D01*
X199412857Y-79719857D01*
X199341428Y-79862714D01*
X199341428Y-80005571D01*
X200341428Y-81505571D02*
X199341428Y-81791285D01*
X200055714Y-82077000D01*
X199341428Y-82362714D01*
X200341428Y-82648428D01*
X200912857Y-84291285D02*
X198984285Y-83005571D01*
X199341428Y-85434142D02*
X200841428Y-85434142D01*
X199412857Y-85434142D02*
X199341428Y-85291285D01*
X199341428Y-85005571D01*
X199412857Y-84862714D01*
X199484285Y-84791285D01*
X199627142Y-84719857D01*
X200055714Y-84719857D01*
X200198571Y-84791285D01*
X200270000Y-84862714D01*
X200341428Y-85005571D01*
X200341428Y-85291285D01*
X200270000Y-85434142D01*
X199341428Y-86148428D02*
X200341428Y-86148428D01*
X200841428Y-86148428D02*
X200770000Y-86077000D01*
X200698571Y-86148428D01*
X200770000Y-86219857D01*
X200841428Y-86148428D01*
X200698571Y-86148428D01*
X199412857Y-86791285D02*
X199341428Y-86934142D01*
X199341428Y-87219857D01*
X199412857Y-87362714D01*
X199555714Y-87434142D01*
X199627142Y-87434142D01*
X199770000Y-87362714D01*
X199841428Y-87219857D01*
X199841428Y-87005571D01*
X199912857Y-86862714D01*
X200055714Y-86791285D01*
X200127142Y-86791285D01*
X200270000Y-86862714D01*
X200341428Y-87005571D01*
X200341428Y-87219857D01*
X200270000Y-87362714D01*
X199341428Y-88719857D02*
X200127142Y-88719857D01*
X200270000Y-88648428D01*
X200341428Y-88505571D01*
X200341428Y-88219857D01*
X200270000Y-88077000D01*
X199412857Y-88719857D02*
X199341428Y-88577000D01*
X199341428Y-88219857D01*
X199412857Y-88077000D01*
X199555714Y-88005571D01*
X199698571Y-88005571D01*
X199841428Y-88077000D01*
X199912857Y-88219857D01*
X199912857Y-88577000D01*
X199984285Y-88719857D01*
X199341428Y-89434142D02*
X200841428Y-89434142D01*
X200270000Y-89434142D02*
X200341428Y-89577000D01*
X200341428Y-89862714D01*
X200270000Y-90005571D01*
X200198571Y-90077000D01*
X200055714Y-90148428D01*
X199627142Y-90148428D01*
X199484285Y-90077000D01*
X199412857Y-90005571D01*
X199341428Y-89862714D01*
X199341428Y-89577000D01*
X199412857Y-89434142D01*
X199341428Y-91005571D02*
X199412857Y-90862714D01*
X199555714Y-90791285D01*
X200841428Y-90791285D01*
X199412857Y-92148428D02*
X199341428Y-92005571D01*
X199341428Y-91719857D01*
X199412857Y-91577000D01*
X199555714Y-91505571D01*
X200127142Y-91505571D01*
X200270000Y-91577000D01*
X200341428Y-91719857D01*
X200341428Y-92005571D01*
X200270000Y-92148428D01*
X200127142Y-92219857D01*
X199984285Y-92219857D01*
X199841428Y-91505571D01*
X198291428Y-67934142D02*
X197077142Y-67934142D01*
X196934285Y-68005571D01*
X196862857Y-68077000D01*
X196791428Y-68219857D01*
X196791428Y-68505571D01*
X196862857Y-68648428D01*
X196934285Y-68719857D01*
X197077142Y-68791285D01*
X198291428Y-68791285D01*
X196862857Y-69434142D02*
X196791428Y-69648428D01*
X196791428Y-70005571D01*
X196862857Y-70148428D01*
X196934285Y-70219857D01*
X197077142Y-70291285D01*
X197220000Y-70291285D01*
X197362857Y-70219857D01*
X197434285Y-70148428D01*
X197505714Y-70005571D01*
X197577142Y-69719857D01*
X197648571Y-69577000D01*
X197720000Y-69505571D01*
X197862857Y-69434142D01*
X198005714Y-69434142D01*
X198148571Y-69505571D01*
X198220000Y-69577000D01*
X198291428Y-69719857D01*
X198291428Y-70077000D01*
X198220000Y-70291285D01*
X197577142Y-71434142D02*
X197505714Y-71648428D01*
X197434285Y-71719857D01*
X197291428Y-71791285D01*
X197077142Y-71791285D01*
X196934285Y-71719857D01*
X196862857Y-71648428D01*
X196791428Y-71505571D01*
X196791428Y-70934142D01*
X198291428Y-70934142D01*
X198291428Y-71434142D01*
X198220000Y-71577000D01*
X198148571Y-71648428D01*
X198005714Y-71719857D01*
X197862857Y-71719857D01*
X197720000Y-71648428D01*
X197648571Y-71577000D01*
X197577142Y-71434142D01*
X197577142Y-70934142D01*
X196791428Y-73577000D02*
X198291428Y-73577000D01*
X197577142Y-73577000D02*
X197577142Y-74434142D01*
X196791428Y-74434142D02*
X198291428Y-74434142D01*
X196791428Y-75362714D02*
X196862857Y-75219857D01*
X196934285Y-75148428D01*
X197077142Y-75077000D01*
X197505714Y-75077000D01*
X197648571Y-75148428D01*
X197720000Y-75219857D01*
X197791428Y-75362714D01*
X197791428Y-75577000D01*
X197720000Y-75719857D01*
X197648571Y-75791285D01*
X197505714Y-75862714D01*
X197077142Y-75862714D01*
X196934285Y-75791285D01*
X196862857Y-75719857D01*
X196791428Y-75577000D01*
X196791428Y-75362714D01*
X196862857Y-76434142D02*
X196791428Y-76577000D01*
X196791428Y-76862714D01*
X196862857Y-77005571D01*
X197005714Y-77077000D01*
X197077142Y-77077000D01*
X197220000Y-77005571D01*
X197291428Y-76862714D01*
X197291428Y-76648428D01*
X197362857Y-76505571D01*
X197505714Y-76434142D01*
X197577142Y-76434142D01*
X197720000Y-76505571D01*
X197791428Y-76648428D01*
X197791428Y-76862714D01*
X197720000Y-77005571D01*
X197791428Y-77505571D02*
X197791428Y-78077000D01*
X198291428Y-77719857D02*
X197005714Y-77719857D01*
X196862857Y-77791285D01*
X196791428Y-77934142D01*
X196791428Y-78077000D01*
X196791428Y-79719857D02*
X198291428Y-79719857D01*
X197220000Y-80219857D01*
X198291428Y-80719857D01*
X196791428Y-80719857D01*
X196791428Y-81648428D02*
X196862857Y-81505571D01*
X196934285Y-81434142D01*
X197077142Y-81362714D01*
X197505714Y-81362714D01*
X197648571Y-81434142D01*
X197720000Y-81505571D01*
X197791428Y-81648428D01*
X197791428Y-81862714D01*
X197720000Y-82005571D01*
X197648571Y-82077000D01*
X197505714Y-82148428D01*
X197077142Y-82148428D01*
X196934285Y-82077000D01*
X196862857Y-82005571D01*
X196791428Y-81862714D01*
X196791428Y-81648428D01*
X196791428Y-83434142D02*
X198291428Y-83434142D01*
X196862857Y-83434142D02*
X196791428Y-83291285D01*
X196791428Y-83005571D01*
X196862857Y-82862714D01*
X196934285Y-82791285D01*
X197077142Y-82719857D01*
X197505714Y-82719857D01*
X197648571Y-82791285D01*
X197720000Y-82862714D01*
X197791428Y-83005571D01*
X197791428Y-83291285D01*
X197720000Y-83434142D01*
X196862857Y-84719857D02*
X196791428Y-84577000D01*
X196791428Y-84291285D01*
X196862857Y-84148428D01*
X197005714Y-84077000D01*
X197577142Y-84077000D01*
X197720000Y-84148428D01*
X197791428Y-84291285D01*
X197791428Y-84577000D01*
X197720000Y-84719857D01*
X197577142Y-84791285D01*
X197434285Y-84791285D01*
X197291428Y-84077000D01*
D10*
X143692619Y-108222023D02*
X144168809Y-107888690D01*
X143692619Y-107650595D02*
X144692619Y-107650595D01*
X144692619Y-108031547D01*
X144645000Y-108126785D01*
X144597380Y-108174404D01*
X144502142Y-108222023D01*
X144359285Y-108222023D01*
X144264047Y-108174404D01*
X144216428Y-108126785D01*
X144168809Y-108031547D01*
X144168809Y-107650595D01*
X144216428Y-108983928D02*
X144168809Y-109126785D01*
X144121190Y-109174404D01*
X144025952Y-109222023D01*
X143883095Y-109222023D01*
X143787857Y-109174404D01*
X143740238Y-109126785D01*
X143692619Y-109031547D01*
X143692619Y-108650595D01*
X144692619Y-108650595D01*
X144692619Y-108983928D01*
X144645000Y-109079166D01*
X144597380Y-109126785D01*
X144502142Y-109174404D01*
X144406904Y-109174404D01*
X144311666Y-109126785D01*
X144264047Y-109079166D01*
X144216428Y-108983928D01*
X144216428Y-108650595D01*
X143692619Y-110174404D02*
X143692619Y-109602976D01*
X143692619Y-109888690D02*
X144692619Y-109888690D01*
X144549761Y-109793452D01*
X144454523Y-109698214D01*
X144406904Y-109602976D01*
X143692619Y-111126785D02*
X143692619Y-110555357D01*
X143692619Y-110841071D02*
X144692619Y-110841071D01*
X144549761Y-110745833D01*
X144454523Y-110650595D01*
X144406904Y-110555357D01*
X146232619Y-108095023D02*
X146708809Y-107761690D01*
X146232619Y-107523595D02*
X147232619Y-107523595D01*
X147232619Y-107904547D01*
X147185000Y-107999785D01*
X147137380Y-108047404D01*
X147042142Y-108095023D01*
X146899285Y-108095023D01*
X146804047Y-108047404D01*
X146756428Y-107999785D01*
X146708809Y-107904547D01*
X146708809Y-107523595D01*
X146756428Y-108856928D02*
X146708809Y-108999785D01*
X146661190Y-109047404D01*
X146565952Y-109095023D01*
X146423095Y-109095023D01*
X146327857Y-109047404D01*
X146280238Y-108999785D01*
X146232619Y-108904547D01*
X146232619Y-108523595D01*
X147232619Y-108523595D01*
X147232619Y-108856928D01*
X147185000Y-108952166D01*
X147137380Y-108999785D01*
X147042142Y-109047404D01*
X146946904Y-109047404D01*
X146851666Y-108999785D01*
X146804047Y-108952166D01*
X146756428Y-108856928D01*
X146756428Y-108523595D01*
X146232619Y-110047404D02*
X146232619Y-109475976D01*
X146232619Y-109761690D02*
X147232619Y-109761690D01*
X147089761Y-109666452D01*
X146994523Y-109571214D01*
X146946904Y-109475976D01*
X147232619Y-110666452D02*
X147232619Y-110761690D01*
X147185000Y-110856928D01*
X147137380Y-110904547D01*
X147042142Y-110952166D01*
X146851666Y-110999785D01*
X146613571Y-110999785D01*
X146423095Y-110952166D01*
X146327857Y-110904547D01*
X146280238Y-110856928D01*
X146232619Y-110761690D01*
X146232619Y-110666452D01*
X146280238Y-110571214D01*
X146327857Y-110523595D01*
X146423095Y-110475976D01*
X146613571Y-110428357D01*
X146851666Y-110428357D01*
X147042142Y-110475976D01*
X147137380Y-110523595D01*
X147185000Y-110571214D01*
X147232619Y-110666452D01*
X149598000Y-108047404D02*
X149645619Y-107952166D01*
X149645619Y-107809309D01*
X149598000Y-107666452D01*
X149502761Y-107571214D01*
X149407523Y-107523595D01*
X149217047Y-107475976D01*
X149074190Y-107475976D01*
X148883714Y-107523595D01*
X148788476Y-107571214D01*
X148693238Y-107666452D01*
X148645619Y-107809309D01*
X148645619Y-107904547D01*
X148693238Y-108047404D01*
X148740857Y-108095023D01*
X149074190Y-108095023D01*
X149074190Y-107904547D01*
X148645619Y-108523595D02*
X149645619Y-108523595D01*
X148645619Y-109095023D01*
X149645619Y-109095023D01*
X148645619Y-109571214D02*
X149645619Y-109571214D01*
X149645619Y-109809309D01*
X149598000Y-109952166D01*
X149502761Y-110047404D01*
X149407523Y-110095023D01*
X149217047Y-110142642D01*
X149074190Y-110142642D01*
X148883714Y-110095023D01*
X148788476Y-110047404D01*
X148693238Y-109952166D01*
X148645619Y-109809309D01*
X148645619Y-109571214D01*
X151693571Y-107396595D02*
X151693571Y-108158500D01*
X151312619Y-107777547D02*
X152074523Y-107777547D01*
X152312619Y-108539452D02*
X152312619Y-109158500D01*
X151931666Y-108825166D01*
X151931666Y-108968023D01*
X151884047Y-109063261D01*
X151836428Y-109110880D01*
X151741190Y-109158500D01*
X151503095Y-109158500D01*
X151407857Y-109110880D01*
X151360238Y-109063261D01*
X151312619Y-108968023D01*
X151312619Y-108682309D01*
X151360238Y-108587071D01*
X151407857Y-108539452D01*
X152312619Y-109444214D02*
X151312619Y-109777547D01*
X152312619Y-110110880D01*
X152312619Y-110348976D02*
X152312619Y-110968023D01*
X151931666Y-110634690D01*
X151931666Y-110777547D01*
X151884047Y-110872785D01*
X151836428Y-110920404D01*
X151741190Y-110968023D01*
X151503095Y-110968023D01*
X151407857Y-110920404D01*
X151360238Y-110872785D01*
X151312619Y-110777547D01*
X151312619Y-110491833D01*
X151360238Y-110396595D01*
X151407857Y-110348976D01*
X153852619Y-107523595D02*
X154852619Y-107523595D01*
X154138333Y-107856928D01*
X154852619Y-108190261D01*
X153852619Y-108190261D01*
X153947857Y-109237880D02*
X153900238Y-109190261D01*
X153852619Y-109047404D01*
X153852619Y-108952166D01*
X153900238Y-108809309D01*
X153995476Y-108714071D01*
X154090714Y-108666452D01*
X154281190Y-108618833D01*
X154424047Y-108618833D01*
X154614523Y-108666452D01*
X154709761Y-108714071D01*
X154805000Y-108809309D01*
X154852619Y-108952166D01*
X154852619Y-109047404D01*
X154805000Y-109190261D01*
X154757380Y-109237880D01*
X153852619Y-110142642D02*
X153852619Y-109666452D01*
X154852619Y-109666452D01*
X153852619Y-111047404D02*
X154328809Y-110714071D01*
X153852619Y-110475976D02*
X154852619Y-110475976D01*
X154852619Y-110856928D01*
X154805000Y-110952166D01*
X154757380Y-110999785D01*
X154662142Y-111047404D01*
X154519285Y-111047404D01*
X154424047Y-110999785D01*
X154376428Y-110952166D01*
X154328809Y-110856928D01*
X154328809Y-110475976D01*
X115762738Y-133437380D02*
X116334166Y-133437380D01*
X116048452Y-134437380D02*
X116048452Y-133437380D01*
X116524642Y-133437380D02*
X117096071Y-133437380D01*
X116810357Y-134437380D02*
X116810357Y-133437380D01*
X117905595Y-134437380D02*
X117429404Y-134437380D01*
X117429404Y-133437380D01*
X118000833Y-134532619D02*
X118762738Y-134532619D01*
X118857976Y-133437380D02*
X119429404Y-133437380D01*
X119143690Y-134437380D02*
X119143690Y-133437380D01*
X119667500Y-133437380D02*
X120334166Y-134437380D01*
X120334166Y-133437380D02*
X119667500Y-134437380D01*
X120715119Y-134437380D02*
X120715119Y-133437380D01*
X120953214Y-133437380D01*
X121096071Y-133485000D01*
X121191309Y-133580238D01*
X121238928Y-133675476D01*
X121286547Y-133865952D01*
X121286547Y-134008809D01*
X121238928Y-134199285D01*
X121191309Y-134294523D01*
X121096071Y-134389761D01*
X120953214Y-134437380D01*
X120715119Y-134437380D01*
X115762738Y-130897380D02*
X116334166Y-130897380D01*
X116048452Y-131897380D02*
X116048452Y-130897380D01*
X116524642Y-130897380D02*
X117096071Y-130897380D01*
X116810357Y-131897380D02*
X116810357Y-130897380D01*
X118000833Y-131897380D02*
X117667500Y-131421190D01*
X117429404Y-131897380D02*
X117429404Y-130897380D01*
X117810357Y-130897380D01*
X117905595Y-130945000D01*
X117953214Y-130992619D01*
X118000833Y-131087857D01*
X118000833Y-131230714D01*
X117953214Y-131325952D01*
X117905595Y-131373571D01*
X117810357Y-131421190D01*
X117429404Y-131421190D01*
X118191309Y-131992619D02*
X118953214Y-131992619D01*
X119762738Y-131897380D02*
X119429404Y-131421190D01*
X119191309Y-131897380D02*
X119191309Y-130897380D01*
X119572261Y-130897380D01*
X119667500Y-130945000D01*
X119715119Y-130992619D01*
X119762738Y-131087857D01*
X119762738Y-131230714D01*
X119715119Y-131325952D01*
X119667500Y-131373571D01*
X119572261Y-131421190D01*
X119191309Y-131421190D01*
X120096071Y-130897380D02*
X120762738Y-131897380D01*
X120762738Y-130897380D02*
X120096071Y-131897380D01*
X121143690Y-131897380D02*
X121143690Y-130897380D01*
X121381785Y-130897380D01*
X121524642Y-130945000D01*
X121619880Y-131040238D01*
X121667500Y-131135476D01*
X121715119Y-131325952D01*
X121715119Y-131468809D01*
X121667500Y-131659285D01*
X121619880Y-131754523D01*
X121524642Y-131849761D01*
X121381785Y-131897380D01*
X121143690Y-131897380D01*
X115857976Y-129309761D02*
X116000833Y-129357380D01*
X116238928Y-129357380D01*
X116334166Y-129309761D01*
X116381785Y-129262142D01*
X116429404Y-129166904D01*
X116429404Y-129071666D01*
X116381785Y-128976428D01*
X116334166Y-128928809D01*
X116238928Y-128881190D01*
X116048452Y-128833571D01*
X115953214Y-128785952D01*
X115905595Y-128738333D01*
X115857976Y-128643095D01*
X115857976Y-128547857D01*
X115905595Y-128452619D01*
X115953214Y-128405000D01*
X116048452Y-128357380D01*
X116286547Y-128357380D01*
X116429404Y-128405000D01*
X116810357Y-129309761D02*
X116953214Y-129357380D01*
X117191309Y-129357380D01*
X117286547Y-129309761D01*
X117334166Y-129262142D01*
X117381785Y-129166904D01*
X117381785Y-129071666D01*
X117334166Y-128976428D01*
X117286547Y-128928809D01*
X117191309Y-128881190D01*
X117000833Y-128833571D01*
X116905595Y-128785952D01*
X116857976Y-128738333D01*
X116810357Y-128643095D01*
X116810357Y-128547857D01*
X116857976Y-128452619D01*
X116905595Y-128405000D01*
X117000833Y-128357380D01*
X117238928Y-128357380D01*
X117381785Y-128405000D01*
X115857976Y-126769761D02*
X116000833Y-126817380D01*
X116238928Y-126817380D01*
X116334166Y-126769761D01*
X116381785Y-126722142D01*
X116429404Y-126626904D01*
X116429404Y-126531666D01*
X116381785Y-126436428D01*
X116334166Y-126388809D01*
X116238928Y-126341190D01*
X116048452Y-126293571D01*
X115953214Y-126245952D01*
X115905595Y-126198333D01*
X115857976Y-126103095D01*
X115857976Y-126007857D01*
X115905595Y-125912619D01*
X115953214Y-125865000D01*
X116048452Y-125817380D01*
X116286547Y-125817380D01*
X116429404Y-125865000D01*
X116857976Y-126817380D02*
X116857976Y-125817380D01*
X117096071Y-125817380D01*
X117238928Y-125865000D01*
X117334166Y-125960238D01*
X117381785Y-126055476D01*
X117429404Y-126245952D01*
X117429404Y-126388809D01*
X117381785Y-126579285D01*
X117334166Y-126674523D01*
X117238928Y-126769761D01*
X117096071Y-126817380D01*
X116857976Y-126817380D01*
X118048452Y-125817380D02*
X118238928Y-125817380D01*
X118334166Y-125865000D01*
X118429404Y-125960238D01*
X118477023Y-126150714D01*
X118477023Y-126484047D01*
X118429404Y-126674523D01*
X118334166Y-126769761D01*
X118238928Y-126817380D01*
X118048452Y-126817380D01*
X117953214Y-126769761D01*
X117857976Y-126674523D01*
X117810357Y-126484047D01*
X117810357Y-126150714D01*
X117857976Y-125960238D01*
X117953214Y-125865000D01*
X118048452Y-125817380D01*
X115857976Y-124229761D02*
X116000833Y-124277380D01*
X116238928Y-124277380D01*
X116334166Y-124229761D01*
X116381785Y-124182142D01*
X116429404Y-124086904D01*
X116429404Y-123991666D01*
X116381785Y-123896428D01*
X116334166Y-123848809D01*
X116238928Y-123801190D01*
X116048452Y-123753571D01*
X115953214Y-123705952D01*
X115905595Y-123658333D01*
X115857976Y-123563095D01*
X115857976Y-123467857D01*
X115905595Y-123372619D01*
X115953214Y-123325000D01*
X116048452Y-123277380D01*
X116286547Y-123277380D01*
X116429404Y-123325000D01*
X117429404Y-124182142D02*
X117381785Y-124229761D01*
X117238928Y-124277380D01*
X117143690Y-124277380D01*
X117000833Y-124229761D01*
X116905595Y-124134523D01*
X116857976Y-124039285D01*
X116810357Y-123848809D01*
X116810357Y-123705952D01*
X116857976Y-123515476D01*
X116905595Y-123420238D01*
X117000833Y-123325000D01*
X117143690Y-123277380D01*
X117238928Y-123277380D01*
X117381785Y-123325000D01*
X117429404Y-123372619D01*
X118334166Y-124277380D02*
X117857976Y-124277380D01*
X117857976Y-123277380D01*
X115857976Y-121689761D02*
X116000833Y-121737380D01*
X116238928Y-121737380D01*
X116334166Y-121689761D01*
X116381785Y-121642142D01*
X116429404Y-121546904D01*
X116429404Y-121451666D01*
X116381785Y-121356428D01*
X116334166Y-121308809D01*
X116238928Y-121261190D01*
X116048452Y-121213571D01*
X115953214Y-121165952D01*
X115905595Y-121118333D01*
X115857976Y-121023095D01*
X115857976Y-120927857D01*
X115905595Y-120832619D01*
X115953214Y-120785000D01*
X116048452Y-120737380D01*
X116286547Y-120737380D01*
X116429404Y-120785000D01*
X116857976Y-121737380D02*
X116857976Y-120737380D01*
X117096071Y-120737380D01*
X117238928Y-120785000D01*
X117334166Y-120880238D01*
X117381785Y-120975476D01*
X117429404Y-121165952D01*
X117429404Y-121308809D01*
X117381785Y-121499285D01*
X117334166Y-121594523D01*
X117238928Y-121689761D01*
X117096071Y-121737380D01*
X116857976Y-121737380D01*
X117810357Y-121451666D02*
X118286547Y-121451666D01*
X117715119Y-121737380D02*
X118048452Y-120737380D01*
X118381785Y-121737380D01*
X115905595Y-118816428D02*
X116667500Y-118816428D01*
X116286547Y-119197380D02*
X116286547Y-118435476D01*
X117048452Y-118197380D02*
X117667500Y-118197380D01*
X117334166Y-118578333D01*
X117477023Y-118578333D01*
X117572261Y-118625952D01*
X117619880Y-118673571D01*
X117667500Y-118768809D01*
X117667500Y-119006904D01*
X117619880Y-119102142D01*
X117572261Y-119149761D01*
X117477023Y-119197380D01*
X117191309Y-119197380D01*
X117096071Y-119149761D01*
X117048452Y-119102142D01*
X117953214Y-118197380D02*
X118286547Y-119197380D01*
X118619880Y-118197380D01*
X118857976Y-118197380D02*
X119477023Y-118197380D01*
X119143690Y-118578333D01*
X119286547Y-118578333D01*
X119381785Y-118625952D01*
X119429404Y-118673571D01*
X119477023Y-118768809D01*
X119477023Y-119006904D01*
X119429404Y-119102142D01*
X119381785Y-119149761D01*
X119286547Y-119197380D01*
X119000833Y-119197380D01*
X118905595Y-119149761D01*
X118857976Y-119102142D01*
X116429404Y-115705000D02*
X116334166Y-115657380D01*
X116191309Y-115657380D01*
X116048452Y-115705000D01*
X115953214Y-115800238D01*
X115905595Y-115895476D01*
X115857976Y-116085952D01*
X115857976Y-116228809D01*
X115905595Y-116419285D01*
X115953214Y-116514523D01*
X116048452Y-116609761D01*
X116191309Y-116657380D01*
X116286547Y-116657380D01*
X116429404Y-116609761D01*
X116477023Y-116562142D01*
X116477023Y-116228809D01*
X116286547Y-116228809D01*
X116905595Y-116657380D02*
X116905595Y-115657380D01*
X117477023Y-116657380D01*
X117477023Y-115657380D01*
X117953214Y-116657380D02*
X117953214Y-115657380D01*
X118191309Y-115657380D01*
X118334166Y-115705000D01*
X118429404Y-115800238D01*
X118477023Y-115895476D01*
X118524642Y-116085952D01*
X118524642Y-116228809D01*
X118477023Y-116419285D01*
X118429404Y-116514523D01*
X118334166Y-116609761D01*
X118191309Y-116657380D01*
X117953214Y-116657380D01*
X115905595Y-113736428D02*
X116667500Y-113736428D01*
X116286547Y-114117380D02*
X116286547Y-113355476D01*
X117619880Y-113117380D02*
X117143690Y-113117380D01*
X117096071Y-113593571D01*
X117143690Y-113545952D01*
X117238928Y-113498333D01*
X117477023Y-113498333D01*
X117572261Y-113545952D01*
X117619880Y-113593571D01*
X117667500Y-113688809D01*
X117667500Y-113926904D01*
X117619880Y-114022142D01*
X117572261Y-114069761D01*
X117477023Y-114117380D01*
X117238928Y-114117380D01*
X117143690Y-114069761D01*
X117096071Y-114022142D01*
X117953214Y-113117380D02*
X118286547Y-114117380D01*
X118619880Y-113117380D01*
X138422285Y-105862380D02*
X138422285Y-104862380D01*
X138803238Y-104862380D01*
X138898476Y-104910000D01*
X138946095Y-104957619D01*
X138993714Y-105052857D01*
X138993714Y-105195714D01*
X138946095Y-105290952D01*
X138898476Y-105338571D01*
X138803238Y-105386190D01*
X138422285Y-105386190D01*
X139993714Y-105862380D02*
X139660380Y-105386190D01*
X139422285Y-105862380D02*
X139422285Y-104862380D01*
X139803238Y-104862380D01*
X139898476Y-104910000D01*
X139946095Y-104957619D01*
X139993714Y-105052857D01*
X139993714Y-105195714D01*
X139946095Y-105290952D01*
X139898476Y-105338571D01*
X139803238Y-105386190D01*
X139422285Y-105386190D01*
X140612761Y-104862380D02*
X140803238Y-104862380D01*
X140898476Y-104910000D01*
X140993714Y-105005238D01*
X141041333Y-105195714D01*
X141041333Y-105529047D01*
X140993714Y-105719523D01*
X140898476Y-105814761D01*
X140803238Y-105862380D01*
X140612761Y-105862380D01*
X140517523Y-105814761D01*
X140422285Y-105719523D01*
X140374666Y-105529047D01*
X140374666Y-105195714D01*
X140422285Y-105005238D01*
X140517523Y-104910000D01*
X140612761Y-104862380D01*
X141993714Y-104910000D02*
X141898476Y-104862380D01*
X141755619Y-104862380D01*
X141612761Y-104910000D01*
X141517523Y-105005238D01*
X141469904Y-105100476D01*
X141422285Y-105290952D01*
X141422285Y-105433809D01*
X141469904Y-105624285D01*
X141517523Y-105719523D01*
X141612761Y-105814761D01*
X141755619Y-105862380D01*
X141850857Y-105862380D01*
X141993714Y-105814761D01*
X142041333Y-105767142D01*
X142041333Y-105433809D01*
X141850857Y-105433809D01*
D12*
X115709571Y-72838571D02*
X115709571Y-74052857D01*
X115781000Y-74195714D01*
X115852428Y-74267142D01*
X115995285Y-74338571D01*
X116281000Y-74338571D01*
X116423857Y-74267142D01*
X116495285Y-74195714D01*
X116566714Y-74052857D01*
X116566714Y-72838571D01*
X117209571Y-74267142D02*
X117423857Y-74338571D01*
X117781000Y-74338571D01*
X117923857Y-74267142D01*
X117995285Y-74195714D01*
X118066714Y-74052857D01*
X118066714Y-73910000D01*
X117995285Y-73767142D01*
X117923857Y-73695714D01*
X117781000Y-73624285D01*
X117495285Y-73552857D01*
X117352428Y-73481428D01*
X117281000Y-73410000D01*
X117209571Y-73267142D01*
X117209571Y-73124285D01*
X117281000Y-72981428D01*
X117352428Y-72910000D01*
X117495285Y-72838571D01*
X117852428Y-72838571D01*
X118066714Y-72910000D01*
X119209571Y-73552857D02*
X119423857Y-73624285D01*
X119495285Y-73695714D01*
X119566714Y-73838571D01*
X119566714Y-74052857D01*
X119495285Y-74195714D01*
X119423857Y-74267142D01*
X119281000Y-74338571D01*
X118709571Y-74338571D01*
X118709571Y-72838571D01*
X119209571Y-72838571D01*
X119352428Y-72910000D01*
X119423857Y-72981428D01*
X119495285Y-73124285D01*
X119495285Y-73267142D01*
X119423857Y-73410000D01*
X119352428Y-73481428D01*
X119209571Y-73552857D01*
X118709571Y-73552857D01*
X119852428Y-74481428D02*
X120995285Y-74481428D01*
X121352428Y-74338571D02*
X121352428Y-72838571D01*
X121352428Y-73552857D02*
X122209571Y-73552857D01*
X122209571Y-74338571D02*
X122209571Y-72838571D01*
X123209571Y-72838571D02*
X123495285Y-72838571D01*
X123638142Y-72910000D01*
X123781000Y-73052857D01*
X123852428Y-73338571D01*
X123852428Y-73838571D01*
X123781000Y-74124285D01*
X123638142Y-74267142D01*
X123495285Y-74338571D01*
X123209571Y-74338571D01*
X123066714Y-74267142D01*
X122923857Y-74124285D01*
X122852428Y-73838571D01*
X122852428Y-73338571D01*
X122923857Y-73052857D01*
X123066714Y-72910000D01*
X123209571Y-72838571D01*
X124423857Y-74267142D02*
X124638142Y-74338571D01*
X124995285Y-74338571D01*
X125138142Y-74267142D01*
X125209571Y-74195714D01*
X125281000Y-74052857D01*
X125281000Y-73910000D01*
X125209571Y-73767142D01*
X125138142Y-73695714D01*
X124995285Y-73624285D01*
X124709571Y-73552857D01*
X124566714Y-73481428D01*
X124495285Y-73410000D01*
X124423857Y-73267142D01*
X124423857Y-73124285D01*
X124495285Y-72981428D01*
X124566714Y-72910000D01*
X124709571Y-72838571D01*
X125066714Y-72838571D01*
X125281000Y-72910000D01*
X125709571Y-72838571D02*
X126566714Y-72838571D01*
X126138142Y-74338571D02*
X126138142Y-72838571D01*
D11*
X173355000Y-97790000D02*
X173990000Y-98425000D01*
X173355000Y-97790000D02*
X173990000Y-97155000D01*
X173990000Y-95885000D02*
X173990000Y-97155000D01*
X173990000Y-100965000D02*
X173990000Y-98425000D01*
X180340000Y-100965000D02*
X173990000Y-100965000D01*
X163703000Y-97790000D02*
X164338000Y-98425000D01*
X163703000Y-97790000D02*
X164338000Y-97155000D01*
D10*
X162544095Y-94702380D02*
X162067904Y-94702380D01*
X162020285Y-95178571D01*
X162067904Y-95130952D01*
X162163142Y-95083333D01*
X162401238Y-95083333D01*
X162496476Y-95130952D01*
X162544095Y-95178571D01*
X162591714Y-95273809D01*
X162591714Y-95511904D01*
X162544095Y-95607142D01*
X162496476Y-95654761D01*
X162401238Y-95702380D01*
X162163142Y-95702380D01*
X162067904Y-95654761D01*
X162020285Y-95607142D01*
X161972666Y-92162380D02*
X162639333Y-92162380D01*
X162210761Y-93162380D01*
X155098761Y-92590952D02*
X155003523Y-92543333D01*
X154955904Y-92495714D01*
X154908285Y-92400476D01*
X154908285Y-92352857D01*
X154955904Y-92257619D01*
X155003523Y-92210000D01*
X155098761Y-92162380D01*
X155289238Y-92162380D01*
X155384476Y-92210000D01*
X155432095Y-92257619D01*
X155479714Y-92352857D01*
X155479714Y-92400476D01*
X155432095Y-92495714D01*
X155384476Y-92543333D01*
X155289238Y-92590952D01*
X155098761Y-92590952D01*
X155003523Y-92638571D01*
X154955904Y-92686190D01*
X154908285Y-92781428D01*
X154908285Y-92971904D01*
X154955904Y-93067142D01*
X155003523Y-93114761D01*
X155098761Y-93162380D01*
X155289238Y-93162380D01*
X155384476Y-93114761D01*
X155432095Y-93067142D01*
X155479714Y-92971904D01*
X155479714Y-92781428D01*
X155432095Y-92686190D01*
X155384476Y-92638571D01*
X155289238Y-92590952D01*
X154908285Y-99877619D02*
X154955904Y-99830000D01*
X155051142Y-99782380D01*
X155289238Y-99782380D01*
X155384476Y-99830000D01*
X155432095Y-99877619D01*
X155479714Y-99972857D01*
X155479714Y-100068095D01*
X155432095Y-100210952D01*
X154860666Y-100782380D01*
X155479714Y-100782380D01*
X162591714Y-100782380D02*
X162020285Y-100782380D01*
X162306000Y-100782380D02*
X162306000Y-99782380D01*
X162210761Y-99925238D01*
X162115523Y-100020476D01*
X162020285Y-100068095D01*
D11*
X173990000Y-72898000D02*
X173990000Y-95885000D01*
X180340000Y-72898000D02*
X173990000Y-72898000D01*
X180340000Y-100965000D02*
X180340000Y-72898000D01*
X163703000Y-97790000D02*
X173355000Y-97790000D01*
D10*
X112736380Y-69564095D02*
X112736380Y-68945047D01*
X113117333Y-69278380D01*
X113117333Y-69135523D01*
X113164952Y-69040285D01*
X113212571Y-68992666D01*
X113307809Y-68945047D01*
X113545904Y-68945047D01*
X113641142Y-68992666D01*
X113688761Y-69040285D01*
X113736380Y-69135523D01*
X113736380Y-69421238D01*
X113688761Y-69516476D01*
X113641142Y-69564095D01*
X112736380Y-68659333D02*
X113736380Y-68326000D01*
X112736380Y-67992666D01*
X112736380Y-67754571D02*
X112736380Y-67135523D01*
X113117333Y-67468857D01*
X113117333Y-67326000D01*
X113164952Y-67230761D01*
X113212571Y-67183142D01*
X113307809Y-67135523D01*
X113545904Y-67135523D01*
X113641142Y-67183142D01*
X113688761Y-67230761D01*
X113736380Y-67326000D01*
X113736380Y-67611714D01*
X113688761Y-67706952D01*
X113641142Y-67754571D01*
X115022380Y-69024476D02*
X115022380Y-69500666D01*
X115498571Y-69548285D01*
X115450952Y-69500666D01*
X115403333Y-69405428D01*
X115403333Y-69167333D01*
X115450952Y-69072095D01*
X115498571Y-69024476D01*
X115593809Y-68976857D01*
X115831904Y-68976857D01*
X115927142Y-69024476D01*
X115974761Y-69072095D01*
X116022380Y-69167333D01*
X116022380Y-69405428D01*
X115974761Y-69500666D01*
X115927142Y-69548285D01*
X115022380Y-68691142D02*
X116022380Y-68357809D01*
X115022380Y-68024476D01*
X175967380Y-99470595D02*
X175967380Y-100042023D01*
X175967380Y-99756309D02*
X174967380Y-99756309D01*
X175110238Y-99851547D01*
X175205476Y-99946785D01*
X175253095Y-100042023D01*
X175586428Y-99042023D02*
X175586428Y-98280119D01*
X175062619Y-97851547D02*
X175015000Y-97803928D01*
X174967380Y-97708690D01*
X174967380Y-97470595D01*
X175015000Y-97375357D01*
X175062619Y-97327738D01*
X175157857Y-97280119D01*
X175253095Y-97280119D01*
X175395952Y-97327738D01*
X175967380Y-97899166D01*
X175967380Y-97280119D01*
X175872142Y-96089642D02*
X175919761Y-96042023D01*
X175967380Y-96089642D01*
X175919761Y-96137261D01*
X175872142Y-96089642D01*
X175967380Y-96089642D01*
X175348333Y-96089642D02*
X175395952Y-96042023D01*
X175443571Y-96089642D01*
X175395952Y-96137261D01*
X175348333Y-96089642D01*
X175443571Y-96089642D01*
X175919761Y-94899166D02*
X175967380Y-94756309D01*
X175967380Y-94518214D01*
X175919761Y-94422976D01*
X175872142Y-94375357D01*
X175776904Y-94327738D01*
X175681666Y-94327738D01*
X175586428Y-94375357D01*
X175538809Y-94422976D01*
X175491190Y-94518214D01*
X175443571Y-94708690D01*
X175395952Y-94803928D01*
X175348333Y-94851547D01*
X175253095Y-94899166D01*
X175157857Y-94899166D01*
X175062619Y-94851547D01*
X175015000Y-94803928D01*
X174967380Y-94708690D01*
X174967380Y-94470595D01*
X175015000Y-94327738D01*
X175919761Y-93518214D02*
X175967380Y-93613452D01*
X175967380Y-93803928D01*
X175919761Y-93899166D01*
X175824523Y-93946785D01*
X175443571Y-93946785D01*
X175348333Y-93899166D01*
X175300714Y-93803928D01*
X175300714Y-93613452D01*
X175348333Y-93518214D01*
X175443571Y-93470595D01*
X175538809Y-93470595D01*
X175634047Y-93946785D01*
X175300714Y-93042023D02*
X175967380Y-93042023D01*
X175395952Y-93042023D02*
X175348333Y-92994404D01*
X175300714Y-92899166D01*
X175300714Y-92756309D01*
X175348333Y-92661071D01*
X175443571Y-92613452D01*
X175967380Y-92613452D01*
X175967380Y-91708690D02*
X174967380Y-91708690D01*
X175919761Y-91708690D02*
X175967380Y-91803928D01*
X175967380Y-91994404D01*
X175919761Y-92089642D01*
X175872142Y-92137261D01*
X175776904Y-92184880D01*
X175491190Y-92184880D01*
X175395952Y-92137261D01*
X175348333Y-92089642D01*
X175300714Y-91994404D01*
X175300714Y-91803928D01*
X175348333Y-91708690D01*
X175967380Y-90470595D02*
X174967380Y-90470595D01*
X175681666Y-90137261D01*
X174967380Y-89803928D01*
X175967380Y-89803928D01*
X175967380Y-89327738D02*
X174967380Y-89327738D01*
X175967380Y-88851547D02*
X174967380Y-88851547D01*
X174967380Y-88613452D01*
X175015000Y-88470595D01*
X175110238Y-88375357D01*
X175205476Y-88327738D01*
X175395952Y-88280119D01*
X175538809Y-88280119D01*
X175729285Y-88327738D01*
X175824523Y-88375357D01*
X175919761Y-88470595D01*
X175967380Y-88613452D01*
X175967380Y-88851547D01*
X175967380Y-87851547D02*
X174967380Y-87851547D01*
X176062619Y-87613452D02*
X176062619Y-86851547D01*
X175967380Y-86613452D02*
X174967380Y-86613452D01*
X175967380Y-86137261D02*
X174967380Y-86137261D01*
X175967380Y-85565833D01*
X174967380Y-85565833D01*
X175300714Y-84470595D02*
X175300714Y-84089642D01*
X174967380Y-84327738D02*
X175824523Y-84327738D01*
X175919761Y-84280119D01*
X175967380Y-84184880D01*
X175967380Y-84089642D01*
X175967380Y-83613452D02*
X175919761Y-83708690D01*
X175872142Y-83756309D01*
X175776904Y-83803928D01*
X175491190Y-83803928D01*
X175395952Y-83756309D01*
X175348333Y-83708690D01*
X175300714Y-83613452D01*
X175300714Y-83470595D01*
X175348333Y-83375357D01*
X175395952Y-83327738D01*
X175491190Y-83280119D01*
X175776904Y-83280119D01*
X175872142Y-83327738D01*
X175919761Y-83375357D01*
X175967380Y-83470595D01*
X175967380Y-83613452D01*
X174967380Y-82089642D02*
X175776904Y-82089642D01*
X175872142Y-82042023D01*
X175919761Y-81994404D01*
X175967380Y-81899166D01*
X175967380Y-81708690D01*
X175919761Y-81613452D01*
X175872142Y-81565833D01*
X175776904Y-81518214D01*
X174967380Y-81518214D01*
X175919761Y-81089642D02*
X175967380Y-80946785D01*
X175967380Y-80708690D01*
X175919761Y-80613452D01*
X175872142Y-80565833D01*
X175776904Y-80518214D01*
X175681666Y-80518214D01*
X175586428Y-80565833D01*
X175538809Y-80613452D01*
X175491190Y-80708690D01*
X175443571Y-80899166D01*
X175395952Y-80994404D01*
X175348333Y-81042023D01*
X175253095Y-81089642D01*
X175157857Y-81089642D01*
X175062619Y-81042023D01*
X175015000Y-80994404D01*
X174967380Y-80899166D01*
X174967380Y-80661071D01*
X175015000Y-80518214D01*
X175443571Y-79756309D02*
X175491190Y-79613452D01*
X175538809Y-79565833D01*
X175634047Y-79518214D01*
X175776904Y-79518214D01*
X175872142Y-79565833D01*
X175919761Y-79613452D01*
X175967380Y-79708690D01*
X175967380Y-80089642D01*
X174967380Y-80089642D01*
X174967380Y-79756309D01*
X175015000Y-79661071D01*
X175062619Y-79613452D01*
X175157857Y-79565833D01*
X175253095Y-79565833D01*
X175348333Y-79613452D01*
X175395952Y-79661071D01*
X175443571Y-79756309D01*
X175443571Y-80089642D01*
X176062619Y-79327738D02*
X176062619Y-78565833D01*
X175967380Y-78327738D02*
X174967380Y-78327738D01*
X175443571Y-78327738D02*
X175443571Y-77756309D01*
X175967380Y-77756309D02*
X174967380Y-77756309D01*
X174967380Y-77089642D02*
X174967380Y-76899166D01*
X175015000Y-76803928D01*
X175110238Y-76708690D01*
X175300714Y-76661071D01*
X175634047Y-76661071D01*
X175824523Y-76708690D01*
X175919761Y-76803928D01*
X175967380Y-76899166D01*
X175967380Y-77089642D01*
X175919761Y-77184880D01*
X175824523Y-77280119D01*
X175634047Y-77327738D01*
X175300714Y-77327738D01*
X175110238Y-77280119D01*
X175015000Y-77184880D01*
X174967380Y-77089642D01*
X175919761Y-76280119D02*
X175967380Y-76137261D01*
X175967380Y-75899166D01*
X175919761Y-75803928D01*
X175872142Y-75756309D01*
X175776904Y-75708690D01*
X175681666Y-75708690D01*
X175586428Y-75756309D01*
X175538809Y-75803928D01*
X175491190Y-75899166D01*
X175443571Y-76089642D01*
X175395952Y-76184880D01*
X175348333Y-76232500D01*
X175253095Y-76280119D01*
X175157857Y-76280119D01*
X175062619Y-76232500D01*
X175015000Y-76184880D01*
X174967380Y-76089642D01*
X174967380Y-75851547D01*
X175015000Y-75708690D01*
X174967380Y-75422976D02*
X174967380Y-74851547D01*
X175967380Y-75137261D02*
X174967380Y-75137261D01*
X176617380Y-99518214D02*
X176617380Y-99994404D01*
X177093571Y-100042023D01*
X177045952Y-99994404D01*
X176998333Y-99899166D01*
X176998333Y-99661071D01*
X177045952Y-99565833D01*
X177093571Y-99518214D01*
X177188809Y-99470595D01*
X177426904Y-99470595D01*
X177522142Y-99518214D01*
X177569761Y-99565833D01*
X177617380Y-99661071D01*
X177617380Y-99899166D01*
X177569761Y-99994404D01*
X177522142Y-100042023D01*
X177236428Y-99042023D02*
X177236428Y-98280119D01*
X176617380Y-97899166D02*
X176617380Y-97232500D01*
X177617380Y-97661071D01*
X177522142Y-96089642D02*
X177569761Y-96042023D01*
X177617380Y-96089642D01*
X177569761Y-96137261D01*
X177522142Y-96089642D01*
X177617380Y-96089642D01*
X176998333Y-96089642D02*
X177045952Y-96042023D01*
X177093571Y-96089642D01*
X177045952Y-96137261D01*
X176998333Y-96089642D01*
X177093571Y-96089642D01*
X177617380Y-94375357D02*
X177617380Y-94851547D01*
X176617380Y-94851547D01*
X177617380Y-93899166D02*
X177569761Y-93994404D01*
X177522142Y-94042023D01*
X177426904Y-94089642D01*
X177141190Y-94089642D01*
X177045952Y-94042023D01*
X176998333Y-93994404D01*
X176950714Y-93899166D01*
X176950714Y-93756309D01*
X176998333Y-93661071D01*
X177045952Y-93613452D01*
X177141190Y-93565833D01*
X177426904Y-93565833D01*
X177522142Y-93613452D01*
X177569761Y-93661071D01*
X177617380Y-93756309D01*
X177617380Y-93899166D01*
X177617380Y-92994404D02*
X177569761Y-93089642D01*
X177522142Y-93137261D01*
X177426904Y-93184880D01*
X177141190Y-93184880D01*
X177045952Y-93137261D01*
X176998333Y-93089642D01*
X176950714Y-92994404D01*
X176950714Y-92851547D01*
X176998333Y-92756309D01*
X177045952Y-92708690D01*
X177141190Y-92661071D01*
X177426904Y-92661071D01*
X177522142Y-92708690D01*
X177569761Y-92756309D01*
X177617380Y-92851547D01*
X177617380Y-92994404D01*
X176950714Y-92232500D02*
X177950714Y-92232500D01*
X176998333Y-92232500D02*
X176950714Y-92137261D01*
X176950714Y-91946785D01*
X176998333Y-91851547D01*
X177045952Y-91803928D01*
X177141190Y-91756309D01*
X177426904Y-91756309D01*
X177522142Y-91803928D01*
X177569761Y-91851547D01*
X177617380Y-91946785D01*
X177617380Y-92137261D01*
X177569761Y-92232500D01*
X177617380Y-90565833D02*
X176617380Y-90565833D01*
X177331666Y-90232500D01*
X176617380Y-89899166D01*
X177617380Y-89899166D01*
X177617380Y-89422976D02*
X176617380Y-89422976D01*
X177617380Y-88946785D02*
X176617380Y-88946785D01*
X176617380Y-88708690D01*
X176665000Y-88565833D01*
X176760238Y-88470595D01*
X176855476Y-88422976D01*
X177045952Y-88375357D01*
X177188809Y-88375357D01*
X177379285Y-88422976D01*
X177474523Y-88470595D01*
X177569761Y-88565833D01*
X177617380Y-88708690D01*
X177617380Y-88946785D01*
X177617380Y-87946785D02*
X176617380Y-87946785D01*
X177712619Y-87708690D02*
X177712619Y-86946785D01*
X177617380Y-86708690D02*
X176617380Y-86708690D01*
X177617380Y-86232500D02*
X176617380Y-86232500D01*
X177617380Y-85661071D01*
X176617380Y-85661071D01*
X176950714Y-84565833D02*
X176950714Y-84184880D01*
X176617380Y-84422976D02*
X177474523Y-84422976D01*
X177569761Y-84375357D01*
X177617380Y-84280119D01*
X177617380Y-84184880D01*
X177617380Y-83708690D02*
X177569761Y-83803928D01*
X177522142Y-83851547D01*
X177426904Y-83899166D01*
X177141190Y-83899166D01*
X177045952Y-83851547D01*
X176998333Y-83803928D01*
X176950714Y-83708690D01*
X176950714Y-83565833D01*
X176998333Y-83470595D01*
X177045952Y-83422976D01*
X177141190Y-83375357D01*
X177426904Y-83375357D01*
X177522142Y-83422976D01*
X177569761Y-83470595D01*
X177617380Y-83565833D01*
X177617380Y-83708690D01*
X177617380Y-82184880D02*
X176617380Y-82184880D01*
X177331666Y-81851547D01*
X176617380Y-81518214D01*
X177617380Y-81518214D01*
X177617380Y-81042023D02*
X176617380Y-81042023D01*
X177617380Y-80565833D02*
X176617380Y-80565833D01*
X176617380Y-80327738D01*
X176665000Y-80184880D01*
X176760238Y-80089642D01*
X176855476Y-80042023D01*
X177045952Y-79994404D01*
X177188809Y-79994404D01*
X177379285Y-80042023D01*
X177474523Y-80089642D01*
X177569761Y-80184880D01*
X177617380Y-80327738D01*
X177617380Y-80565833D01*
X177617380Y-79565833D02*
X176617380Y-79565833D01*
X177712619Y-79327738D02*
X177712619Y-78565833D01*
X176617380Y-78137261D02*
X176617380Y-77946785D01*
X176665000Y-77851547D01*
X176760238Y-77756309D01*
X176950714Y-77708690D01*
X177284047Y-77708690D01*
X177474523Y-77756309D01*
X177569761Y-77851547D01*
X177617380Y-77946785D01*
X177617380Y-78137261D01*
X177569761Y-78232500D01*
X177474523Y-78327738D01*
X177284047Y-78375357D01*
X176950714Y-78375357D01*
X176760238Y-78327738D01*
X176665000Y-78232500D01*
X176617380Y-78137261D01*
X176617380Y-77280119D02*
X177426904Y-77280119D01*
X177522142Y-77232500D01*
X177569761Y-77184880D01*
X177617380Y-77089642D01*
X177617380Y-76899166D01*
X177569761Y-76803928D01*
X177522142Y-76756309D01*
X177426904Y-76708690D01*
X176617380Y-76708690D01*
X176617380Y-76375357D02*
X176617380Y-75803928D01*
X177617380Y-76089642D02*
X176617380Y-76089642D01*
X178267380Y-100089642D02*
X178267380Y-99422976D01*
X179267380Y-99851547D01*
X178886428Y-99042023D02*
X178886428Y-98280119D01*
X178695952Y-97661071D02*
X178648333Y-97756309D01*
X178600714Y-97803928D01*
X178505476Y-97851547D01*
X178457857Y-97851547D01*
X178362619Y-97803928D01*
X178315000Y-97756309D01*
X178267380Y-97661071D01*
X178267380Y-97470595D01*
X178315000Y-97375357D01*
X178362619Y-97327738D01*
X178457857Y-97280119D01*
X178505476Y-97280119D01*
X178600714Y-97327738D01*
X178648333Y-97375357D01*
X178695952Y-97470595D01*
X178695952Y-97661071D01*
X178743571Y-97756309D01*
X178791190Y-97803928D01*
X178886428Y-97851547D01*
X179076904Y-97851547D01*
X179172142Y-97803928D01*
X179219761Y-97756309D01*
X179267380Y-97661071D01*
X179267380Y-97470595D01*
X179219761Y-97375357D01*
X179172142Y-97327738D01*
X179076904Y-97280119D01*
X178886428Y-97280119D01*
X178791190Y-97327738D01*
X178743571Y-97375357D01*
X178695952Y-97470595D01*
X179172142Y-96089642D02*
X179219761Y-96042023D01*
X179267380Y-96089642D01*
X179219761Y-96137261D01*
X179172142Y-96089642D01*
X179267380Y-96089642D01*
X178648333Y-96089642D02*
X178695952Y-96042023D01*
X178743571Y-96089642D01*
X178695952Y-96137261D01*
X178648333Y-96089642D01*
X178743571Y-96089642D01*
X179219761Y-94899166D02*
X179267380Y-94756309D01*
X179267380Y-94518214D01*
X179219761Y-94422976D01*
X179172142Y-94375357D01*
X179076904Y-94327738D01*
X178981666Y-94327738D01*
X178886428Y-94375357D01*
X178838809Y-94422976D01*
X178791190Y-94518214D01*
X178743571Y-94708690D01*
X178695952Y-94803928D01*
X178648333Y-94851547D01*
X178553095Y-94899166D01*
X178457857Y-94899166D01*
X178362619Y-94851547D01*
X178315000Y-94803928D01*
X178267380Y-94708690D01*
X178267380Y-94470595D01*
X178315000Y-94327738D01*
X179219761Y-93518214D02*
X179267380Y-93613452D01*
X179267380Y-93803928D01*
X179219761Y-93899166D01*
X179124523Y-93946785D01*
X178743571Y-93946785D01*
X178648333Y-93899166D01*
X178600714Y-93803928D01*
X178600714Y-93613452D01*
X178648333Y-93518214D01*
X178743571Y-93470595D01*
X178838809Y-93470595D01*
X178934047Y-93946785D01*
X178600714Y-93042023D02*
X179267380Y-93042023D01*
X178695952Y-93042023D02*
X178648333Y-92994404D01*
X178600714Y-92899166D01*
X178600714Y-92756309D01*
X178648333Y-92661071D01*
X178743571Y-92613452D01*
X179267380Y-92613452D01*
X179267380Y-91708690D02*
X178267380Y-91708690D01*
X179219761Y-91708690D02*
X179267380Y-91803928D01*
X179267380Y-91994404D01*
X179219761Y-92089642D01*
X179172142Y-92137261D01*
X179076904Y-92184880D01*
X178791190Y-92184880D01*
X178695952Y-92137261D01*
X178648333Y-92089642D01*
X178600714Y-91994404D01*
X178600714Y-91803928D01*
X178648333Y-91708690D01*
X178267380Y-90470595D02*
X179076904Y-90470595D01*
X179172142Y-90422976D01*
X179219761Y-90375357D01*
X179267380Y-90280119D01*
X179267380Y-90089642D01*
X179219761Y-89994404D01*
X179172142Y-89946785D01*
X179076904Y-89899166D01*
X178267380Y-89899166D01*
X179219761Y-89470595D02*
X179267380Y-89327738D01*
X179267380Y-89089642D01*
X179219761Y-88994404D01*
X179172142Y-88946785D01*
X179076904Y-88899166D01*
X178981666Y-88899166D01*
X178886428Y-88946785D01*
X178838809Y-88994404D01*
X178791190Y-89089642D01*
X178743571Y-89280119D01*
X178695952Y-89375357D01*
X178648333Y-89422976D01*
X178553095Y-89470595D01*
X178457857Y-89470595D01*
X178362619Y-89422976D01*
X178315000Y-89375357D01*
X178267380Y-89280119D01*
X178267380Y-89042023D01*
X178315000Y-88899166D01*
X178743571Y-88137261D02*
X178791190Y-87994404D01*
X178838809Y-87946785D01*
X178934047Y-87899166D01*
X179076904Y-87899166D01*
X179172142Y-87946785D01*
X179219761Y-87994404D01*
X179267380Y-88089642D01*
X179267380Y-88470595D01*
X178267380Y-88470595D01*
X178267380Y-88137261D01*
X178315000Y-88042023D01*
X178362619Y-87994404D01*
X178457857Y-87946785D01*
X178553095Y-87946785D01*
X178648333Y-87994404D01*
X178695952Y-88042023D01*
X178743571Y-88137261D01*
X178743571Y-88470595D01*
X179362619Y-87708690D02*
X179362619Y-86946785D01*
X179267380Y-86708690D02*
X178267380Y-86708690D01*
X178743571Y-86708690D02*
X178743571Y-86137261D01*
X179267380Y-86137261D02*
X178267380Y-86137261D01*
X178267380Y-85470595D02*
X178267380Y-85280119D01*
X178315000Y-85184880D01*
X178410238Y-85089642D01*
X178600714Y-85042023D01*
X178934047Y-85042023D01*
X179124523Y-85089642D01*
X179219761Y-85184880D01*
X179267380Y-85280119D01*
X179267380Y-85470595D01*
X179219761Y-85565833D01*
X179124523Y-85661071D01*
X178934047Y-85708690D01*
X178600714Y-85708690D01*
X178410238Y-85661071D01*
X178315000Y-85565833D01*
X178267380Y-85470595D01*
X179219761Y-84661071D02*
X179267380Y-84518214D01*
X179267380Y-84280119D01*
X179219761Y-84184880D01*
X179172142Y-84137261D01*
X179076904Y-84089642D01*
X178981666Y-84089642D01*
X178886428Y-84137261D01*
X178838809Y-84184880D01*
X178791190Y-84280119D01*
X178743571Y-84470595D01*
X178695952Y-84565833D01*
X178648333Y-84613452D01*
X178553095Y-84661071D01*
X178457857Y-84661071D01*
X178362619Y-84613452D01*
X178315000Y-84565833D01*
X178267380Y-84470595D01*
X178267380Y-84232500D01*
X178315000Y-84089642D01*
X178267380Y-83803928D02*
X178267380Y-83232500D01*
X179267380Y-83518214D02*
X178267380Y-83518214D01*
X178600714Y-82280119D02*
X178600714Y-81899166D01*
X178267380Y-82137261D02*
X179124523Y-82137261D01*
X179219761Y-82089642D01*
X179267380Y-81994404D01*
X179267380Y-81899166D01*
X179267380Y-81422976D02*
X179219761Y-81518214D01*
X179172142Y-81565833D01*
X179076904Y-81613452D01*
X178791190Y-81613452D01*
X178695952Y-81565833D01*
X178648333Y-81518214D01*
X178600714Y-81422976D01*
X178600714Y-81280119D01*
X178648333Y-81184880D01*
X178695952Y-81137261D01*
X178791190Y-81089642D01*
X179076904Y-81089642D01*
X179172142Y-81137261D01*
X179219761Y-81184880D01*
X179267380Y-81280119D01*
X179267380Y-81422976D01*
X179267380Y-79899166D02*
X178267380Y-79899166D01*
X178981666Y-79565833D01*
X178267380Y-79232500D01*
X179267380Y-79232500D01*
X179267380Y-78756309D02*
X178267380Y-78756309D01*
X179267380Y-78280119D02*
X178267380Y-78280119D01*
X178267380Y-78042023D01*
X178315000Y-77899166D01*
X178410238Y-77803928D01*
X178505476Y-77756309D01*
X178695952Y-77708690D01*
X178838809Y-77708690D01*
X179029285Y-77756309D01*
X179124523Y-77803928D01*
X179219761Y-77899166D01*
X179267380Y-78042023D01*
X179267380Y-78280119D01*
X179267380Y-77280119D02*
X178267380Y-77280119D01*
X179362619Y-77042023D02*
X179362619Y-76280119D01*
X178267380Y-75851547D02*
X178267380Y-75661071D01*
X178315000Y-75565833D01*
X178410238Y-75470595D01*
X178600714Y-75422976D01*
X178934047Y-75422976D01*
X179124523Y-75470595D01*
X179219761Y-75565833D01*
X179267380Y-75661071D01*
X179267380Y-75851547D01*
X179219761Y-75946785D01*
X179124523Y-76042023D01*
X178934047Y-76089642D01*
X178600714Y-76089642D01*
X178410238Y-76042023D01*
X178315000Y-75946785D01*
X178267380Y-75851547D01*
X178267380Y-74994404D02*
X179076904Y-74994404D01*
X179172142Y-74946785D01*
X179219761Y-74899166D01*
X179267380Y-74803928D01*
X179267380Y-74613452D01*
X179219761Y-74518214D01*
X179172142Y-74470595D01*
X179076904Y-74422976D01*
X178267380Y-74422976D01*
X178267380Y-74089642D02*
X178267380Y-73518214D01*
X179267380Y-73803928D02*
X178267380Y-73803928D01*
X163917619Y-95702380D02*
X163917619Y-94702380D01*
X164250952Y-95416666D01*
X164584285Y-94702380D01*
X164584285Y-95702380D01*
X165060476Y-95702380D02*
X165060476Y-94702380D01*
X165536666Y-95702380D02*
X165536666Y-94702380D01*
X165774761Y-94702380D01*
X165917619Y-94750000D01*
X166012857Y-94845238D01*
X166060476Y-94940476D01*
X166108095Y-95130952D01*
X166108095Y-95273809D01*
X166060476Y-95464285D01*
X166012857Y-95559523D01*
X165917619Y-95654761D01*
X165774761Y-95702380D01*
X165536666Y-95702380D01*
X166536666Y-95702380D02*
X166536666Y-94702380D01*
X166774761Y-95797619D02*
X167536666Y-95797619D01*
X167774761Y-95702380D02*
X167774761Y-94702380D01*
X168250952Y-95702380D02*
X168250952Y-94702380D01*
X168822380Y-95702380D01*
X168822380Y-94702380D01*
X203747833Y-105513214D02*
X203747833Y-106179880D01*
X203509738Y-105132261D02*
X203271642Y-105846547D01*
X203890690Y-105846547D01*
X205033547Y-105656071D02*
X205366880Y-105656071D01*
X205509738Y-106179880D02*
X205033547Y-106179880D01*
X205033547Y-105179880D01*
X205509738Y-105179880D01*
X205938309Y-106179880D02*
X205938309Y-105179880D01*
X206509738Y-106179880D01*
X206509738Y-105179880D01*
X203224023Y-102639880D02*
X203843071Y-102639880D01*
X203509738Y-103020833D01*
X203652595Y-103020833D01*
X203747833Y-103068452D01*
X203795452Y-103116071D01*
X203843071Y-103211309D01*
X203843071Y-103449404D01*
X203795452Y-103544642D01*
X203747833Y-103592261D01*
X203652595Y-103639880D01*
X203366880Y-103639880D01*
X203271642Y-103592261D01*
X203224023Y-103544642D01*
X205033547Y-103116071D02*
X205366880Y-103116071D01*
X205509738Y-103639880D02*
X205033547Y-103639880D01*
X205033547Y-102639880D01*
X205509738Y-102639880D01*
X205938309Y-103639880D02*
X205938309Y-102639880D01*
X206509738Y-103639880D01*
X206509738Y-102639880D01*
X203271642Y-100195119D02*
X203319261Y-100147500D01*
X203414500Y-100099880D01*
X203652595Y-100099880D01*
X203747833Y-100147500D01*
X203795452Y-100195119D01*
X203843071Y-100290357D01*
X203843071Y-100385595D01*
X203795452Y-100528452D01*
X203224023Y-101099880D01*
X203843071Y-101099880D01*
X205033547Y-100576071D02*
X205366880Y-100576071D01*
X205509738Y-101099880D02*
X205033547Y-101099880D01*
X205033547Y-100099880D01*
X205509738Y-100099880D01*
X205938309Y-101099880D02*
X205938309Y-100099880D01*
X206509738Y-101099880D01*
X206509738Y-100099880D01*
X203843071Y-98496380D02*
X203271642Y-98496380D01*
X203557357Y-98496380D02*
X203557357Y-97496380D01*
X203462119Y-97639238D01*
X203366880Y-97734476D01*
X203271642Y-97782095D01*
X205033547Y-97972571D02*
X205366880Y-97972571D01*
X205509738Y-98496380D02*
X205033547Y-98496380D01*
X205033547Y-97496380D01*
X205509738Y-97496380D01*
X205938309Y-98496380D02*
X205938309Y-97496380D01*
X206509738Y-98496380D01*
X206509738Y-97496380D01*
X148201428Y-99782380D02*
X148772857Y-99782380D01*
X148487142Y-100782380D02*
X148487142Y-99782380D01*
X148963333Y-99782380D02*
X149534761Y-99782380D01*
X149249047Y-100782380D02*
X149249047Y-99782380D01*
X150344285Y-100782380D02*
X149868095Y-100782380D01*
X149868095Y-99782380D01*
X150439523Y-100877619D02*
X151201428Y-100877619D01*
X152010952Y-100782380D02*
X151677619Y-100306190D01*
X151439523Y-100782380D02*
X151439523Y-99782380D01*
X151820476Y-99782380D01*
X151915714Y-99830000D01*
X151963333Y-99877619D01*
X152010952Y-99972857D01*
X152010952Y-100115714D01*
X151963333Y-100210952D01*
X151915714Y-100258571D01*
X151820476Y-100306190D01*
X151439523Y-100306190D01*
X152344285Y-99782380D02*
X153010952Y-100782380D01*
X153010952Y-99782380D02*
X152344285Y-100782380D01*
X153391904Y-100782380D02*
X153391904Y-99782380D01*
X153630000Y-99782380D01*
X153772857Y-99830000D01*
X153868095Y-99925238D01*
X153915714Y-100020476D01*
X153963333Y-100210952D01*
X153963333Y-100353809D01*
X153915714Y-100544285D01*
X153868095Y-100639523D01*
X153772857Y-100734761D01*
X153630000Y-100782380D01*
X153391904Y-100782380D01*
X148320476Y-92162380D02*
X148891904Y-92162380D01*
X148606190Y-93162380D02*
X148606190Y-92162380D01*
X149082380Y-92162380D02*
X149653809Y-92162380D01*
X149368095Y-93162380D02*
X149368095Y-92162380D01*
X150463333Y-93162380D02*
X149987142Y-93162380D01*
X149987142Y-92162380D01*
X150558571Y-93257619D02*
X151320476Y-93257619D01*
X151415714Y-92162380D02*
X151987142Y-92162380D01*
X151701428Y-93162380D02*
X151701428Y-92162380D01*
X152225238Y-92162380D02*
X152891904Y-93162380D01*
X152891904Y-92162380D02*
X152225238Y-93162380D01*
X153272857Y-93162380D02*
X153272857Y-92162380D01*
X153510952Y-92162380D01*
X153653809Y-92210000D01*
X153749047Y-92305238D01*
X153796666Y-92400476D01*
X153844285Y-92590952D01*
X153844285Y-92733809D01*
X153796666Y-92924285D01*
X153749047Y-93019523D01*
X153653809Y-93114761D01*
X153510952Y-93162380D01*
X153272857Y-93162380D01*
X163917619Y-100782380D02*
X163917619Y-99782380D01*
X164250952Y-100496666D01*
X164584285Y-99782380D01*
X164584285Y-100782380D01*
X165060476Y-100782380D02*
X165060476Y-99782380D01*
X165536666Y-100782380D02*
X165536666Y-99782380D01*
X165774761Y-99782380D01*
X165917619Y-99830000D01*
X166012857Y-99925238D01*
X166060476Y-100020476D01*
X166108095Y-100210952D01*
X166108095Y-100353809D01*
X166060476Y-100544285D01*
X166012857Y-100639523D01*
X165917619Y-100734761D01*
X165774761Y-100782380D01*
X165536666Y-100782380D01*
X166536666Y-100782380D02*
X166536666Y-99782380D01*
X166774761Y-100877619D02*
X167536666Y-100877619D01*
X167774761Y-100782380D02*
X167774761Y-99782380D01*
X168250952Y-100782380D02*
X168250952Y-99782380D01*
X168822380Y-100782380D01*
X168822380Y-99782380D01*
X163885952Y-93162380D02*
X163885952Y-92162380D01*
X164219285Y-92876666D01*
X164552619Y-92162380D01*
X164552619Y-93162380D01*
X165028809Y-93162380D02*
X165028809Y-92162380D01*
X165505000Y-93162380D02*
X165505000Y-92162380D01*
X165743095Y-92162380D01*
X165885952Y-92210000D01*
X165981190Y-92305238D01*
X166028809Y-92400476D01*
X166076428Y-92590952D01*
X166076428Y-92733809D01*
X166028809Y-92924285D01*
X165981190Y-93019523D01*
X165885952Y-93114761D01*
X165743095Y-93162380D01*
X165505000Y-93162380D01*
X166505000Y-93162380D02*
X166505000Y-92162380D01*
X166743095Y-93257619D02*
X167505000Y-93257619D01*
X167933571Y-92162380D02*
X168124047Y-92162380D01*
X168219285Y-92210000D01*
X168314523Y-92305238D01*
X168362142Y-92495714D01*
X168362142Y-92829047D01*
X168314523Y-93019523D01*
X168219285Y-93114761D01*
X168124047Y-93162380D01*
X167933571Y-93162380D01*
X167838333Y-93114761D01*
X167743095Y-93019523D01*
X167695476Y-92829047D01*
X167695476Y-92495714D01*
X167743095Y-92305238D01*
X167838333Y-92210000D01*
X167933571Y-92162380D01*
X168790714Y-92162380D02*
X168790714Y-92971904D01*
X168838333Y-93067142D01*
X168885952Y-93114761D01*
X168981190Y-93162380D01*
X169171666Y-93162380D01*
X169266904Y-93114761D01*
X169314523Y-93067142D01*
X169362142Y-92971904D01*
X169362142Y-92162380D01*
X169695476Y-92162380D02*
X170266904Y-92162380D01*
X169981190Y-93162380D02*
X169981190Y-92162380D01*
D11*
X130810000Y-112395000D02*
X130810000Y-146050000D01*
X158750000Y-112395000D02*
X130810000Y-112395000D01*
X158750000Y-102108000D02*
X158750000Y-112395000D01*
X130810000Y-80645000D02*
X158750000Y-80645000D01*
X130810000Y-46101000D02*
X130810000Y-80645000D01*
G04 #@! TO.C,U6*
X194370000Y-80280000D02*
X194370000Y-78630000D01*
X194370000Y-78630000D02*
X184090000Y-78630000D01*
X184090000Y-78630000D02*
X184090000Y-83930000D01*
X184090000Y-83930000D02*
X194370000Y-83930000D01*
X194370000Y-83930000D02*
X194370000Y-82280000D01*
X194370000Y-82280000D02*
G75*
G02*
X194370000Y-80280000I0J1000000D01*
G01*
D10*
G04 #@! TO.C,U5*
X162682000Y-110660000D02*
X162707000Y-110660000D01*
X162682000Y-106510000D02*
X162797000Y-106510000D01*
X171582000Y-106510000D02*
X171467000Y-106510000D01*
X171582000Y-110660000D02*
X171467000Y-110660000D01*
X162682000Y-110660000D02*
X162682000Y-106510000D01*
X171582000Y-110660000D02*
X171582000Y-106510000D01*
X162707000Y-110660000D02*
X162707000Y-112035000D01*
D11*
G04 #@! TO.C,D1*
X145645000Y-89750000D02*
X145645000Y-88050000D01*
X145645000Y-88050000D02*
X143095000Y-88050000D01*
X145645000Y-89750000D02*
X143095000Y-89750000D01*
G04 #@! TO.C,USB1*
X126190000Y-59034000D02*
X126190000Y-63854000D01*
X125390000Y-65944000D02*
X120990000Y-65944000D01*
X120190000Y-59034000D02*
X120190000Y-63854000D01*
X120190000Y-46174000D02*
X126190000Y-46174000D01*
X120190000Y-56854000D02*
X120190000Y-46174000D01*
X126190000Y-56854000D02*
X126190000Y-46174000D01*
G04 #@! TO.C,R28*
X199508000Y-110906000D02*
X199508000Y-112106000D01*
X197748000Y-112106000D02*
X197748000Y-110906000D01*
G04 #@! TO.C,R27*
X196206000Y-110906000D02*
X196206000Y-112106000D01*
X194446000Y-112106000D02*
X194446000Y-110906000D01*
G04 #@! TO.C,R26*
X192777000Y-110906000D02*
X192777000Y-112106000D01*
X191017000Y-112106000D02*
X191017000Y-110906000D01*
D10*
G04 #@! TO.C,U7*
X182773500Y-96908700D02*
X182773500Y-96933700D01*
X186923500Y-96908700D02*
X186923500Y-97023700D01*
X186923500Y-105808700D02*
X186923500Y-105693700D01*
X182773500Y-105808700D02*
X182773500Y-105693700D01*
X182773500Y-96908700D02*
X186923500Y-96908700D01*
X182773500Y-105808700D02*
X186923500Y-105808700D01*
X182773500Y-96933700D02*
X181398500Y-96933700D01*
D11*
G04 #@! TO.C,R25*
X202937000Y-110906000D02*
X202937000Y-112106000D01*
X201177000Y-112106000D02*
X201177000Y-110906000D01*
G04 #@! TO.C,R24*
X165770000Y-74685000D02*
X166970000Y-74685000D01*
X166970000Y-76445000D02*
X165770000Y-76445000D01*
G04 #@! TO.C,Q5*
X166710000Y-71630000D02*
X166710000Y-70700000D01*
X166710000Y-68470000D02*
X166710000Y-69400000D01*
X166710000Y-68470000D02*
X164550000Y-68470000D01*
X166710000Y-71630000D02*
X165250000Y-71630000D01*
G04 #@! TO.C,SW1*
X191894000Y-95427500D02*
X191894000Y-96697500D01*
X191894000Y-95427500D02*
X194434000Y-95427500D01*
X192094000Y-95627500D02*
X202114000Y-95627500D01*
X202114000Y-95627500D02*
X202114000Y-108207500D01*
X202114000Y-108207500D02*
X192094000Y-108207500D01*
X192094000Y-108207500D02*
X192094000Y-95627500D01*
X195074000Y-97472500D02*
X195074000Y-98742500D01*
X195074000Y-98742500D02*
X199134000Y-98742500D01*
X199134000Y-98742500D02*
X199134000Y-97472500D01*
X199134000Y-97472500D02*
X195074000Y-97472500D01*
X197104000Y-97472500D02*
X197104000Y-98742500D01*
X195074000Y-100012500D02*
X195074000Y-101282500D01*
X195074000Y-101282500D02*
X199134000Y-101282500D01*
X199134000Y-101282500D02*
X199134000Y-100012500D01*
X199134000Y-100012500D02*
X195074000Y-100012500D01*
X197104000Y-100012500D02*
X197104000Y-101282500D01*
X195074000Y-102552500D02*
X195074000Y-103822500D01*
X195074000Y-103822500D02*
X199134000Y-103822500D01*
X199134000Y-103822500D02*
X199134000Y-102552500D01*
X199134000Y-102552500D02*
X195074000Y-102552500D01*
X197104000Y-102552500D02*
X197104000Y-103822500D01*
X195074000Y-105092500D02*
X195074000Y-106362500D01*
X195074000Y-106362500D02*
X199134000Y-106362500D01*
X199134000Y-106362500D02*
X199134000Y-105092500D01*
X199134000Y-105092500D02*
X195074000Y-105092500D01*
X197104000Y-105092500D02*
X197104000Y-106362500D01*
G04 #@! TO.C,J3*
X166430000Y-136084000D02*
X163770000Y-136084000D01*
X166430000Y-141224000D02*
X166430000Y-136084000D01*
X163770000Y-141224000D02*
X163770000Y-136084000D01*
X166430000Y-141224000D02*
X163770000Y-141224000D01*
X166430000Y-142494000D02*
X166430000Y-143824000D01*
X166430000Y-143824000D02*
X165100000Y-143824000D01*
G04 #@! TO.C,J2*
X143570000Y-135957000D02*
X140910000Y-135957000D01*
X143570000Y-141097000D02*
X143570000Y-135957000D01*
X140910000Y-141097000D02*
X140910000Y-135957000D01*
X143570000Y-141097000D02*
X140910000Y-141097000D01*
X143570000Y-142367000D02*
X143570000Y-143697000D01*
X143570000Y-143697000D02*
X142240000Y-143697000D01*
G04 #@! TO.C,J1*
X189290000Y-136211000D02*
X186630000Y-136211000D01*
X189290000Y-141351000D02*
X189290000Y-136211000D01*
X186630000Y-141351000D02*
X186630000Y-136211000D01*
X189290000Y-141351000D02*
X186630000Y-141351000D01*
X189290000Y-142621000D02*
X189290000Y-143951000D01*
X189290000Y-143951000D02*
X187960000Y-143951000D01*
G04 #@! TO.C,Q4*
X186438000Y-119197000D02*
X186438000Y-120127000D01*
X186438000Y-122357000D02*
X186438000Y-121427000D01*
X186438000Y-122357000D02*
X188598000Y-122357000D01*
X186438000Y-119197000D02*
X187898000Y-119197000D01*
G04 #@! TO.C,Q3*
X163451000Y-119705000D02*
X163451000Y-120635000D01*
X163451000Y-122865000D02*
X163451000Y-121935000D01*
X163451000Y-122865000D02*
X165611000Y-122865000D01*
X163451000Y-119705000D02*
X164911000Y-119705000D01*
G04 #@! TO.C,Q2*
X140464000Y-119959000D02*
X140464000Y-120889000D01*
X140464000Y-123119000D02*
X140464000Y-122189000D01*
X140464000Y-123119000D02*
X142624000Y-123119000D01*
X140464000Y-119959000D02*
X141924000Y-119959000D01*
G04 #@! TO.C,Q1*
X143762000Y-71938000D02*
X143762000Y-71008000D01*
X143762000Y-68778000D02*
X143762000Y-69708000D01*
X143762000Y-68778000D02*
X141602000Y-68778000D01*
X143762000Y-71938000D02*
X142302000Y-71938000D01*
G04 #@! TO.C,USB2*
X127040000Y-47185000D02*
X119340000Y-47185000D01*
X127040000Y-46185000D02*
X119340000Y-46185000D01*
X119340000Y-46185000D02*
X119340000Y-55385000D01*
X119340000Y-55385000D02*
X127040000Y-55385000D01*
X127040000Y-55385000D02*
X127040000Y-46185000D01*
G04 #@! TO.C,R22*
X142910000Y-74558000D02*
X144110000Y-74558000D01*
X144110000Y-76318000D02*
X142910000Y-76318000D01*
G04 #@! TO.C,R21*
X187290000Y-117085000D02*
X186090000Y-117085000D01*
X186090000Y-115325000D02*
X187290000Y-115325000D01*
G04 #@! TO.C,R20*
X192033000Y-121885000D02*
X192033000Y-120685000D01*
X193793000Y-120685000D02*
X193793000Y-121885000D01*
G04 #@! TO.C,R19*
X182127000Y-121885000D02*
X182127000Y-120685000D01*
X183887000Y-120685000D02*
X183887000Y-121885000D01*
G04 #@! TO.C,R18*
X166405000Y-115960000D02*
X167605000Y-115960000D01*
X167605000Y-117720000D02*
X166405000Y-117720000D01*
G04 #@! TO.C,R17*
X169173000Y-122012000D02*
X169173000Y-120812000D01*
X170933000Y-120812000D02*
X170933000Y-122012000D01*
G04 #@! TO.C,R16*
X159267000Y-122012000D02*
X159267000Y-120812000D01*
X161027000Y-120812000D02*
X161027000Y-122012000D01*
D13*
G04 #@! TO.C,DIN6*
X198460360Y-145023840D02*
X198460360Y-145524220D01*
X177459640Y-146024600D02*
X177459640Y-145524220D01*
X179461160Y-144526000D02*
X179461160Y-145023840D01*
X196458840Y-145023840D02*
X196458840Y-144526000D01*
X178960780Y-144526000D02*
X179461160Y-144526000D01*
X196959220Y-144526000D02*
X196458840Y-144526000D01*
X178960780Y-145023840D02*
X198460360Y-145023840D01*
X178960780Y-145524220D02*
X178960780Y-145023840D01*
X177459640Y-145524220D02*
X178960780Y-145524220D01*
X196959220Y-146024600D02*
X177459640Y-146024600D01*
X196959220Y-145524220D02*
X196959220Y-146024600D01*
X198460360Y-145524220D02*
X196959220Y-145524220D01*
X189958980Y-127525780D02*
X189958980Y-129524760D01*
X189461140Y-127025400D02*
X189958980Y-127525780D01*
X186458860Y-127025400D02*
X189461140Y-127025400D01*
X185961020Y-127525780D02*
X185961020Y-129524760D01*
X186458860Y-127025400D02*
X185961020Y-127525780D01*
X193459100Y-129524760D02*
X189958980Y-129524760D01*
X193459100Y-127525780D02*
X193459100Y-129524760D01*
X193959480Y-127025400D02*
X193459100Y-127525780D01*
X194459860Y-127025400D02*
X193959480Y-127025400D01*
X196458840Y-127025400D02*
X194459860Y-127025400D01*
X196959220Y-127525780D02*
X196458840Y-127025400D01*
X196959220Y-127525780D02*
X196959220Y-144526000D01*
X182460900Y-129524760D02*
X185961020Y-129524760D01*
X182460900Y-127525780D02*
X182460900Y-129524760D01*
X181960520Y-127025400D02*
X182460900Y-127525780D01*
X179461160Y-127025400D02*
X181960520Y-127025400D01*
X178960780Y-127525780D02*
X179461160Y-127025400D01*
X178960780Y-127525780D02*
X178960780Y-144526000D01*
X177459640Y-145775680D02*
X196959220Y-145775680D01*
X196959220Y-145524220D02*
X178960780Y-145524220D01*
X178960780Y-145275300D02*
X198460360Y-145275300D01*
G04 #@! TO.C,DIN5*
X175600360Y-145023840D02*
X175600360Y-145524220D01*
X154599640Y-146024600D02*
X154599640Y-145524220D01*
X156601160Y-144526000D02*
X156601160Y-145023840D01*
X173598840Y-145023840D02*
X173598840Y-144526000D01*
X156100780Y-144526000D02*
X156601160Y-144526000D01*
X174099220Y-144526000D02*
X173598840Y-144526000D01*
X156100780Y-145023840D02*
X175600360Y-145023840D01*
X156100780Y-145524220D02*
X156100780Y-145023840D01*
X154599640Y-145524220D02*
X156100780Y-145524220D01*
X174099220Y-146024600D02*
X154599640Y-146024600D01*
X174099220Y-145524220D02*
X174099220Y-146024600D01*
X175600360Y-145524220D02*
X174099220Y-145524220D01*
X167098980Y-127525780D02*
X167098980Y-129524760D01*
X166601140Y-127025400D02*
X167098980Y-127525780D01*
X163598860Y-127025400D02*
X166601140Y-127025400D01*
X163101020Y-127525780D02*
X163101020Y-129524760D01*
X163598860Y-127025400D02*
X163101020Y-127525780D01*
X170599100Y-129524760D02*
X167098980Y-129524760D01*
X170599100Y-127525780D02*
X170599100Y-129524760D01*
X171099480Y-127025400D02*
X170599100Y-127525780D01*
X171599860Y-127025400D02*
X171099480Y-127025400D01*
X173598840Y-127025400D02*
X171599860Y-127025400D01*
X174099220Y-127525780D02*
X173598840Y-127025400D01*
X174099220Y-127525780D02*
X174099220Y-144526000D01*
X159600900Y-129524760D02*
X163101020Y-129524760D01*
X159600900Y-127525780D02*
X159600900Y-129524760D01*
X159100520Y-127025400D02*
X159600900Y-127525780D01*
X156601160Y-127025400D02*
X159100520Y-127025400D01*
X156100780Y-127525780D02*
X156601160Y-127025400D01*
X156100780Y-127525780D02*
X156100780Y-144526000D01*
X154599640Y-145775680D02*
X174099220Y-145775680D01*
X174099220Y-145524220D02*
X156100780Y-145524220D01*
X156100780Y-145275300D02*
X175600360Y-145275300D01*
D10*
G04 #@! TO.C,U4*
X162682000Y-86530000D02*
X162707000Y-86530000D01*
X162682000Y-82380000D02*
X162797000Y-82380000D01*
X171582000Y-82380000D02*
X171467000Y-82380000D01*
X171582000Y-86530000D02*
X171467000Y-86530000D01*
X162682000Y-86530000D02*
X162682000Y-82380000D01*
X171582000Y-86530000D02*
X171582000Y-82380000D01*
X162707000Y-86530000D02*
X162707000Y-87905000D01*
D11*
G04 #@! TO.C,R15*
X143037000Y-115960000D02*
X144237000Y-115960000D01*
X144237000Y-117720000D02*
X143037000Y-117720000D01*
G04 #@! TO.C,R14*
X146376500Y-122139000D02*
X146376500Y-120939000D01*
X148136500Y-120939000D02*
X148136500Y-122139000D01*
G04 #@! TO.C,R13*
X136343500Y-122012000D02*
X136343500Y-120812000D01*
X138103500Y-120812000D02*
X138103500Y-122012000D01*
G04 #@! TO.C,J7*
X161350000Y-91380000D02*
X156150000Y-91380000D01*
X161350000Y-99060000D02*
X161350000Y-91380000D01*
X156150000Y-101660000D02*
X156150000Y-91380000D01*
X161350000Y-99060000D02*
X158750000Y-99060000D01*
X158750000Y-99060000D02*
X158750000Y-101660000D01*
X158750000Y-101660000D02*
X156150000Y-101660000D01*
X161350000Y-100330000D02*
X161350000Y-101660000D01*
X161350000Y-101660000D02*
X160020000Y-101660000D01*
D13*
G04 #@! TO.C,DIN4*
X152740360Y-145023840D02*
X152740360Y-145524220D01*
X131739640Y-146024600D02*
X131739640Y-145524220D01*
X133741160Y-144526000D02*
X133741160Y-145023840D01*
X150738840Y-145023840D02*
X150738840Y-144526000D01*
X133240780Y-144526000D02*
X133741160Y-144526000D01*
X151239220Y-144526000D02*
X150738840Y-144526000D01*
X133240780Y-145023840D02*
X152740360Y-145023840D01*
X133240780Y-145524220D02*
X133240780Y-145023840D01*
X131739640Y-145524220D02*
X133240780Y-145524220D01*
X151239220Y-146024600D02*
X131739640Y-146024600D01*
X151239220Y-145524220D02*
X151239220Y-146024600D01*
X152740360Y-145524220D02*
X151239220Y-145524220D01*
X144238980Y-127525780D02*
X144238980Y-129524760D01*
X143741140Y-127025400D02*
X144238980Y-127525780D01*
X140738860Y-127025400D02*
X143741140Y-127025400D01*
X140241020Y-127525780D02*
X140241020Y-129524760D01*
X140738860Y-127025400D02*
X140241020Y-127525780D01*
X147739100Y-129524760D02*
X144238980Y-129524760D01*
X147739100Y-127525780D02*
X147739100Y-129524760D01*
X148239480Y-127025400D02*
X147739100Y-127525780D01*
X148739860Y-127025400D02*
X148239480Y-127025400D01*
X150738840Y-127025400D02*
X148739860Y-127025400D01*
X151239220Y-127525780D02*
X150738840Y-127025400D01*
X151239220Y-127525780D02*
X151239220Y-144526000D01*
X136740900Y-129524760D02*
X140241020Y-129524760D01*
X136740900Y-127525780D02*
X136740900Y-129524760D01*
X136240520Y-127025400D02*
X136740900Y-127525780D01*
X133741160Y-127025400D02*
X136240520Y-127025400D01*
X133240780Y-127525780D02*
X133741160Y-127025400D01*
X133240780Y-127525780D02*
X133240780Y-144526000D01*
X131739640Y-145775680D02*
X151239220Y-145775680D01*
X151239220Y-145524220D02*
X133240780Y-145524220D01*
X133240780Y-145275300D02*
X152740360Y-145275300D01*
D11*
G04 #@! TO.C,U3*
X116694000Y-59939000D02*
X115434000Y-59939000D01*
X109874000Y-59939000D02*
X111134000Y-59939000D01*
X116694000Y-63699000D02*
X116694000Y-59939000D01*
X109874000Y-65949000D02*
X109874000Y-59939000D01*
G04 #@! TO.C,R12*
X138040000Y-69758000D02*
X138040000Y-70958000D01*
X136280000Y-70958000D02*
X136280000Y-69758000D01*
G04 #@! TO.C,R11*
X148200000Y-69758000D02*
X148200000Y-70958000D01*
X146440000Y-70958000D02*
X146440000Y-69758000D01*
G04 #@! TO.C,R10*
X161027000Y-70520000D02*
X161027000Y-71720000D01*
X159267000Y-71720000D02*
X159267000Y-70520000D01*
G04 #@! TO.C,R9*
X171060000Y-70520000D02*
X171060000Y-71720000D01*
X169300000Y-71720000D02*
X169300000Y-70520000D01*
G04 #@! TO.C,R8*
X193920000Y-70520000D02*
X193920000Y-71720000D01*
X192160000Y-71720000D02*
X192160000Y-70520000D01*
G04 #@! TO.C,R7*
X191380000Y-89570000D02*
X191380000Y-90770000D01*
X189620000Y-90770000D02*
X189620000Y-89570000D01*
G04 #@! TO.C,R6*
X187080000Y-90770000D02*
X187080000Y-89570000D01*
X188840000Y-89570000D02*
X188840000Y-90770000D01*
G04 #@! TO.C,R5*
X129448000Y-109737000D02*
X130648000Y-109737000D01*
X130648000Y-111497000D02*
X129448000Y-111497000D01*
G04 #@! TO.C,R4*
X129448000Y-107197000D02*
X130648000Y-107197000D01*
X130648000Y-108957000D02*
X129448000Y-108957000D01*
G04 #@! TO.C,R3*
X125086000Y-87538000D02*
X125086000Y-88738000D01*
X123326000Y-88738000D02*
X123326000Y-87538000D01*
G04 #@! TO.C,R2*
X111795000Y-78876000D02*
X112995000Y-78876000D01*
X112995000Y-80636000D02*
X111795000Y-80636000D01*
G04 #@! TO.C,R1*
X151038000Y-96783000D02*
X152238000Y-96783000D01*
X152238000Y-98543000D02*
X151038000Y-98543000D01*
G04 #@! TO.C,LED1*
X111395000Y-75450000D02*
X114595000Y-75450000D01*
X114595000Y-76950000D02*
X111395000Y-76950000D01*
X114595000Y-76950000D02*
X114595000Y-75450000D01*
G04 #@! TO.C,DLED3*
X134763000Y-109867000D02*
X137963000Y-109867000D01*
X137963000Y-111367000D02*
X134763000Y-111367000D01*
X137963000Y-111367000D02*
X137963000Y-109867000D01*
G04 #@! TO.C,DLED2*
X134763000Y-107327000D02*
X137963000Y-107327000D01*
X137963000Y-108827000D02*
X134763000Y-108827000D01*
X137963000Y-108827000D02*
X137963000Y-107327000D01*
G04 #@! TO.C,D2*
X186350000Y-73450000D02*
X186350000Y-71330000D01*
X183150000Y-73450000D02*
X186350000Y-73450000D01*
X186350000Y-71330000D02*
X183150000Y-71330000D01*
G04 #@! TO.C,C6*
X148455000Y-101639000D02*
X147455000Y-101639000D01*
X147455000Y-103339000D02*
X148455000Y-103339000D01*
G04 #@! TO.C,C5*
X139327000Y-99402000D02*
X140327000Y-99402000D01*
X140327000Y-97702000D02*
X139327000Y-97702000D01*
G04 #@! TO.C,C4*
X121070000Y-101227000D02*
X121070000Y-102227000D01*
X122770000Y-102227000D02*
X122770000Y-101227000D01*
G04 #@! TO.C,C3*
X122770000Y-97147000D02*
X122770000Y-96147000D01*
X121070000Y-96147000D02*
X121070000Y-97147000D01*
G04 #@! TO.C,C2*
X110148000Y-70112000D02*
X110148000Y-71112000D01*
X111848000Y-71112000D02*
X111848000Y-70112000D01*
G04 #@! TO.C,C1*
X130437000Y-87083000D02*
X131437000Y-87083000D01*
X131437000Y-85383000D02*
X130437000Y-85383000D01*
G04 #@! TO.C,Y1*
X119365000Y-95972000D02*
X119365000Y-102222000D01*
X114315000Y-95972000D02*
X114315000Y-102222000D01*
X114315000Y-95972000D02*
G75*
G02*
X119365000Y-95972000I2525000J0D01*
G01*
X114315000Y-102222000D02*
G75*
G03*
X119365000Y-102222000I2525000J0D01*
G01*
D10*
G04 #@! TO.C,U2*
X115527000Y-86325000D02*
X115527000Y-86375000D01*
X119677000Y-86325000D02*
X119677000Y-86470000D01*
X119677000Y-91475000D02*
X119677000Y-91330000D01*
X115527000Y-91475000D02*
X115527000Y-91330000D01*
X115527000Y-86325000D02*
X119677000Y-86325000D01*
X115527000Y-91475000D02*
X119677000Y-91475000D01*
X115527000Y-86375000D02*
X114127000Y-86375000D01*
G04 #@! TO.C,U1*
X128143000Y-105283000D02*
X128143000Y-87630000D01*
X133477000Y-87630000D02*
X133477000Y-105410000D01*
X128143000Y-105410000D02*
X133477000Y-105410000D01*
X133477000Y-87630000D02*
X128143000Y-87630000D01*
X131445000Y-87630000D02*
X131445000Y-88900000D01*
X131445000Y-88900000D02*
X130175000Y-88900000D01*
X130175000Y-88900000D02*
X130175000Y-87630000D01*
D13*
G04 #@! TO.C,DIN3*
X131739640Y-47381160D02*
X131739640Y-46880780D01*
X152740360Y-46380400D02*
X152740360Y-46880780D01*
X150738840Y-47879000D02*
X150738840Y-47381160D01*
X133741160Y-47381160D02*
X133741160Y-47879000D01*
X151239220Y-47879000D02*
X150738840Y-47879000D01*
X133240780Y-47879000D02*
X133741160Y-47879000D01*
X151239220Y-47381160D02*
X131739640Y-47381160D01*
X151239220Y-46880780D02*
X151239220Y-47381160D01*
X152740360Y-46880780D02*
X151239220Y-46880780D01*
X133240780Y-46380400D02*
X152740360Y-46380400D01*
X133240780Y-46880780D02*
X133240780Y-46380400D01*
X131739640Y-46880780D02*
X133240780Y-46880780D01*
X140241020Y-64879220D02*
X140241020Y-62880240D01*
X140738860Y-65379600D02*
X140241020Y-64879220D01*
X143741140Y-65379600D02*
X140738860Y-65379600D01*
X144238980Y-64879220D02*
X144238980Y-62880240D01*
X143741140Y-65379600D02*
X144238980Y-64879220D01*
X136740900Y-62880240D02*
X140241020Y-62880240D01*
X136740900Y-64879220D02*
X136740900Y-62880240D01*
X136240520Y-65379600D02*
X136740900Y-64879220D01*
X135740140Y-65379600D02*
X136240520Y-65379600D01*
X133741160Y-65379600D02*
X135740140Y-65379600D01*
X133240780Y-64879220D02*
X133741160Y-65379600D01*
X133240780Y-64879220D02*
X133240780Y-47879000D01*
X147739100Y-62880240D02*
X144238980Y-62880240D01*
X147739100Y-64879220D02*
X147739100Y-62880240D01*
X148239480Y-65379600D02*
X147739100Y-64879220D01*
X150738840Y-65379600D02*
X148239480Y-65379600D01*
X151239220Y-64879220D02*
X150738840Y-65379600D01*
X151239220Y-64879220D02*
X151239220Y-47879000D01*
X152740360Y-46629320D02*
X133240780Y-46629320D01*
X133240780Y-46880780D02*
X151239220Y-46880780D01*
X151239220Y-47129700D02*
X131739640Y-47129700D01*
G04 #@! TO.C,DIN2*
X154599640Y-47381160D02*
X154599640Y-46880780D01*
X175600360Y-46380400D02*
X175600360Y-46880780D01*
X173598840Y-47879000D02*
X173598840Y-47381160D01*
X156601160Y-47381160D02*
X156601160Y-47879000D01*
X174099220Y-47879000D02*
X173598840Y-47879000D01*
X156100780Y-47879000D02*
X156601160Y-47879000D01*
X174099220Y-47381160D02*
X154599640Y-47381160D01*
X174099220Y-46880780D02*
X174099220Y-47381160D01*
X175600360Y-46880780D02*
X174099220Y-46880780D01*
X156100780Y-46380400D02*
X175600360Y-46380400D01*
X156100780Y-46880780D02*
X156100780Y-46380400D01*
X154599640Y-46880780D02*
X156100780Y-46880780D01*
X163101020Y-64879220D02*
X163101020Y-62880240D01*
X163598860Y-65379600D02*
X163101020Y-64879220D01*
X166601140Y-65379600D02*
X163598860Y-65379600D01*
X167098980Y-64879220D02*
X167098980Y-62880240D01*
X166601140Y-65379600D02*
X167098980Y-64879220D01*
X159600900Y-62880240D02*
X163101020Y-62880240D01*
X159600900Y-64879220D02*
X159600900Y-62880240D01*
X159100520Y-65379600D02*
X159600900Y-64879220D01*
X158600140Y-65379600D02*
X159100520Y-65379600D01*
X156601160Y-65379600D02*
X158600140Y-65379600D01*
X156100780Y-64879220D02*
X156601160Y-65379600D01*
X156100780Y-64879220D02*
X156100780Y-47879000D01*
X170599100Y-62880240D02*
X167098980Y-62880240D01*
X170599100Y-64879220D02*
X170599100Y-62880240D01*
X171099480Y-65379600D02*
X170599100Y-64879220D01*
X173598840Y-65379600D02*
X171099480Y-65379600D01*
X174099220Y-64879220D02*
X173598840Y-65379600D01*
X174099220Y-64879220D02*
X174099220Y-47879000D01*
X175600360Y-46629320D02*
X156100780Y-46629320D01*
X156100780Y-46880780D02*
X174099220Y-46880780D01*
X174099220Y-47129700D02*
X154599640Y-47129700D01*
G04 #@! TO.C,DIN1*
X177459640Y-47381160D02*
X177459640Y-46880780D01*
X198460360Y-46380400D02*
X198460360Y-46880780D01*
X196458840Y-47879000D02*
X196458840Y-47381160D01*
X179461160Y-47381160D02*
X179461160Y-47879000D01*
X196959220Y-47879000D02*
X196458840Y-47879000D01*
X178960780Y-47879000D02*
X179461160Y-47879000D01*
X196959220Y-47381160D02*
X177459640Y-47381160D01*
X196959220Y-46880780D02*
X196959220Y-47381160D01*
X198460360Y-46880780D02*
X196959220Y-46880780D01*
X178960780Y-46380400D02*
X198460360Y-46380400D01*
X178960780Y-46880780D02*
X178960780Y-46380400D01*
X177459640Y-46880780D02*
X178960780Y-46880780D01*
X185961020Y-64879220D02*
X185961020Y-62880240D01*
X186458860Y-65379600D02*
X185961020Y-64879220D01*
X189461140Y-65379600D02*
X186458860Y-65379600D01*
X189958980Y-64879220D02*
X189958980Y-62880240D01*
X189461140Y-65379600D02*
X189958980Y-64879220D01*
X182460900Y-62880240D02*
X185961020Y-62880240D01*
X182460900Y-64879220D02*
X182460900Y-62880240D01*
X181960520Y-65379600D02*
X182460900Y-64879220D01*
X181460140Y-65379600D02*
X181960520Y-65379600D01*
X179461160Y-65379600D02*
X181460140Y-65379600D01*
X178960780Y-64879220D02*
X179461160Y-65379600D01*
X178960780Y-64879220D02*
X178960780Y-47879000D01*
X193459100Y-62880240D02*
X189958980Y-62880240D01*
X193459100Y-64879220D02*
X193459100Y-62880240D01*
X193959480Y-65379600D02*
X193459100Y-64879220D01*
X196458840Y-65379600D02*
X193959480Y-65379600D01*
X196959220Y-64879220D02*
X196458840Y-65379600D01*
X196959220Y-64879220D02*
X196959220Y-47879000D01*
X198460360Y-46629320D02*
X178960780Y-46629320D01*
X178960780Y-46880780D02*
X196959220Y-46880780D01*
X196959220Y-47129700D02*
X177459640Y-47129700D01*
D11*
G04 #@! TO.C,J9*
X111700000Y-135315000D02*
X114360000Y-135315000D01*
X111700000Y-114935000D02*
X111700000Y-135315000D01*
X114360000Y-114935000D02*
X114360000Y-135315000D01*
X111700000Y-114935000D02*
X114360000Y-114935000D01*
X111700000Y-113665000D02*
X111700000Y-112335000D01*
X111700000Y-112335000D02*
X113030000Y-112335000D01*
G04 #@! TO.C,J8*
X142815000Y-104080000D02*
X142815000Y-106740000D01*
X153035000Y-104080000D02*
X142815000Y-104080000D01*
X153035000Y-106740000D02*
X142815000Y-106740000D01*
X153035000Y-104080000D02*
X153035000Y-106740000D01*
X154305000Y-104080000D02*
X155635000Y-104080000D01*
X155635000Y-104080000D02*
X155635000Y-105410000D01*
G04 #@! TO.C,U6*
D10*
X194822380Y-82041904D02*
X195631904Y-82041904D01*
X195727142Y-81994285D01*
X195774761Y-81946666D01*
X195822380Y-81851428D01*
X195822380Y-81660952D01*
X195774761Y-81565714D01*
X195727142Y-81518095D01*
X195631904Y-81470476D01*
X194822380Y-81470476D01*
X194822380Y-80565714D02*
X194822380Y-80756190D01*
X194870000Y-80851428D01*
X194917619Y-80899047D01*
X195060476Y-80994285D01*
X195250952Y-81041904D01*
X195631904Y-81041904D01*
X195727142Y-80994285D01*
X195774761Y-80946666D01*
X195822380Y-80851428D01*
X195822380Y-80660952D01*
X195774761Y-80565714D01*
X195727142Y-80518095D01*
X195631904Y-80470476D01*
X195393809Y-80470476D01*
X195298571Y-80518095D01*
X195250952Y-80565714D01*
X195203333Y-80660952D01*
X195203333Y-80851428D01*
X195250952Y-80946666D01*
X195298571Y-80994285D01*
X195393809Y-81041904D01*
G04 #@! TO.C,U5*
X161209380Y-109346904D02*
X162018904Y-109346904D01*
X162114142Y-109299285D01*
X162161761Y-109251666D01*
X162209380Y-109156428D01*
X162209380Y-108965952D01*
X162161761Y-108870714D01*
X162114142Y-108823095D01*
X162018904Y-108775476D01*
X161209380Y-108775476D01*
X161209380Y-107823095D02*
X161209380Y-108299285D01*
X161685571Y-108346904D01*
X161637952Y-108299285D01*
X161590333Y-108204047D01*
X161590333Y-107965952D01*
X161637952Y-107870714D01*
X161685571Y-107823095D01*
X161780809Y-107775476D01*
X162018904Y-107775476D01*
X162114142Y-107823095D01*
X162161761Y-107870714D01*
X162209380Y-107965952D01*
X162209380Y-108204047D01*
X162161761Y-108299285D01*
X162114142Y-108346904D01*
G04 #@! TO.C,D1*
X143406904Y-91202380D02*
X143406904Y-90202380D01*
X143645000Y-90202380D01*
X143787857Y-90250000D01*
X143883095Y-90345238D01*
X143930714Y-90440476D01*
X143978333Y-90630952D01*
X143978333Y-90773809D01*
X143930714Y-90964285D01*
X143883095Y-91059523D01*
X143787857Y-91154761D01*
X143645000Y-91202380D01*
X143406904Y-91202380D01*
X144930714Y-91202380D02*
X144359285Y-91202380D01*
X144645000Y-91202380D02*
X144645000Y-90202380D01*
X144549761Y-90345238D01*
X144454523Y-90440476D01*
X144359285Y-90488095D01*
G04 #@! TO.C,USB1*
X121451904Y-66889380D02*
X121451904Y-67698904D01*
X121499523Y-67794142D01*
X121547142Y-67841761D01*
X121642380Y-67889380D01*
X121832857Y-67889380D01*
X121928095Y-67841761D01*
X121975714Y-67794142D01*
X122023333Y-67698904D01*
X122023333Y-66889380D01*
X122451904Y-67841761D02*
X122594761Y-67889380D01*
X122832857Y-67889380D01*
X122928095Y-67841761D01*
X122975714Y-67794142D01*
X123023333Y-67698904D01*
X123023333Y-67603666D01*
X122975714Y-67508428D01*
X122928095Y-67460809D01*
X122832857Y-67413190D01*
X122642380Y-67365571D01*
X122547142Y-67317952D01*
X122499523Y-67270333D01*
X122451904Y-67175095D01*
X122451904Y-67079857D01*
X122499523Y-66984619D01*
X122547142Y-66937000D01*
X122642380Y-66889380D01*
X122880476Y-66889380D01*
X123023333Y-66937000D01*
X123785238Y-67365571D02*
X123928095Y-67413190D01*
X123975714Y-67460809D01*
X124023333Y-67556047D01*
X124023333Y-67698904D01*
X123975714Y-67794142D01*
X123928095Y-67841761D01*
X123832857Y-67889380D01*
X123451904Y-67889380D01*
X123451904Y-66889380D01*
X123785238Y-66889380D01*
X123880476Y-66937000D01*
X123928095Y-66984619D01*
X123975714Y-67079857D01*
X123975714Y-67175095D01*
X123928095Y-67270333D01*
X123880476Y-67317952D01*
X123785238Y-67365571D01*
X123451904Y-67365571D01*
X124975714Y-67889380D02*
X124404285Y-67889380D01*
X124690000Y-67889380D02*
X124690000Y-66889380D01*
X124594761Y-67032238D01*
X124499523Y-67127476D01*
X124404285Y-67175095D01*
G04 #@! TO.C,R28*
X197380380Y-112148857D02*
X196904190Y-112482190D01*
X197380380Y-112720285D02*
X196380380Y-112720285D01*
X196380380Y-112339333D01*
X196428000Y-112244095D01*
X196475619Y-112196476D01*
X196570857Y-112148857D01*
X196713714Y-112148857D01*
X196808952Y-112196476D01*
X196856571Y-112244095D01*
X196904190Y-112339333D01*
X196904190Y-112720285D01*
X196475619Y-111767904D02*
X196428000Y-111720285D01*
X196380380Y-111625047D01*
X196380380Y-111386952D01*
X196428000Y-111291714D01*
X196475619Y-111244095D01*
X196570857Y-111196476D01*
X196666095Y-111196476D01*
X196808952Y-111244095D01*
X197380380Y-111815523D01*
X197380380Y-111196476D01*
X196808952Y-110625047D02*
X196761333Y-110720285D01*
X196713714Y-110767904D01*
X196618476Y-110815523D01*
X196570857Y-110815523D01*
X196475619Y-110767904D01*
X196428000Y-110720285D01*
X196380380Y-110625047D01*
X196380380Y-110434571D01*
X196428000Y-110339333D01*
X196475619Y-110291714D01*
X196570857Y-110244095D01*
X196618476Y-110244095D01*
X196713714Y-110291714D01*
X196761333Y-110339333D01*
X196808952Y-110434571D01*
X196808952Y-110625047D01*
X196856571Y-110720285D01*
X196904190Y-110767904D01*
X196999428Y-110815523D01*
X197189904Y-110815523D01*
X197285142Y-110767904D01*
X197332761Y-110720285D01*
X197380380Y-110625047D01*
X197380380Y-110434571D01*
X197332761Y-110339333D01*
X197285142Y-110291714D01*
X197189904Y-110244095D01*
X196999428Y-110244095D01*
X196904190Y-110291714D01*
X196856571Y-110339333D01*
X196808952Y-110434571D01*
G04 #@! TO.C,R27*
X194078380Y-112148857D02*
X193602190Y-112482190D01*
X194078380Y-112720285D02*
X193078380Y-112720285D01*
X193078380Y-112339333D01*
X193126000Y-112244095D01*
X193173619Y-112196476D01*
X193268857Y-112148857D01*
X193411714Y-112148857D01*
X193506952Y-112196476D01*
X193554571Y-112244095D01*
X193602190Y-112339333D01*
X193602190Y-112720285D01*
X193173619Y-111767904D02*
X193126000Y-111720285D01*
X193078380Y-111625047D01*
X193078380Y-111386952D01*
X193126000Y-111291714D01*
X193173619Y-111244095D01*
X193268857Y-111196476D01*
X193364095Y-111196476D01*
X193506952Y-111244095D01*
X194078380Y-111815523D01*
X194078380Y-111196476D01*
X193078380Y-110863142D02*
X193078380Y-110196476D01*
X194078380Y-110625047D01*
G04 #@! TO.C,R26*
X190649380Y-112148857D02*
X190173190Y-112482190D01*
X190649380Y-112720285D02*
X189649380Y-112720285D01*
X189649380Y-112339333D01*
X189697000Y-112244095D01*
X189744619Y-112196476D01*
X189839857Y-112148857D01*
X189982714Y-112148857D01*
X190077952Y-112196476D01*
X190125571Y-112244095D01*
X190173190Y-112339333D01*
X190173190Y-112720285D01*
X189744619Y-111767904D02*
X189697000Y-111720285D01*
X189649380Y-111625047D01*
X189649380Y-111386952D01*
X189697000Y-111291714D01*
X189744619Y-111244095D01*
X189839857Y-111196476D01*
X189935095Y-111196476D01*
X190077952Y-111244095D01*
X190649380Y-111815523D01*
X190649380Y-111196476D01*
X189649380Y-110339333D02*
X189649380Y-110529809D01*
X189697000Y-110625047D01*
X189744619Y-110672666D01*
X189887476Y-110767904D01*
X190077952Y-110815523D01*
X190458904Y-110815523D01*
X190554142Y-110767904D01*
X190601761Y-110720285D01*
X190649380Y-110625047D01*
X190649380Y-110434571D01*
X190601761Y-110339333D01*
X190554142Y-110291714D01*
X190458904Y-110244095D01*
X190220809Y-110244095D01*
X190125571Y-110291714D01*
X190077952Y-110339333D01*
X190030333Y-110434571D01*
X190030333Y-110625047D01*
X190077952Y-110720285D01*
X190125571Y-110767904D01*
X190220809Y-110815523D01*
G04 #@! TO.C,U7*
X184086595Y-95436080D02*
X184086595Y-96245604D01*
X184134214Y-96340842D01*
X184181833Y-96388461D01*
X184277071Y-96436080D01*
X184467547Y-96436080D01*
X184562785Y-96388461D01*
X184610404Y-96340842D01*
X184658023Y-96245604D01*
X184658023Y-95436080D01*
X185038976Y-95436080D02*
X185705642Y-95436080D01*
X185277071Y-96436080D01*
G04 #@! TO.C,R25*
X200809380Y-112148857D02*
X200333190Y-112482190D01*
X200809380Y-112720285D02*
X199809380Y-112720285D01*
X199809380Y-112339333D01*
X199857000Y-112244095D01*
X199904619Y-112196476D01*
X199999857Y-112148857D01*
X200142714Y-112148857D01*
X200237952Y-112196476D01*
X200285571Y-112244095D01*
X200333190Y-112339333D01*
X200333190Y-112720285D01*
X199904619Y-111767904D02*
X199857000Y-111720285D01*
X199809380Y-111625047D01*
X199809380Y-111386952D01*
X199857000Y-111291714D01*
X199904619Y-111244095D01*
X199999857Y-111196476D01*
X200095095Y-111196476D01*
X200237952Y-111244095D01*
X200809380Y-111815523D01*
X200809380Y-111196476D01*
X199809380Y-110291714D02*
X199809380Y-110767904D01*
X200285571Y-110815523D01*
X200237952Y-110767904D01*
X200190333Y-110672666D01*
X200190333Y-110434571D01*
X200237952Y-110339333D01*
X200285571Y-110291714D01*
X200380809Y-110244095D01*
X200618904Y-110244095D01*
X200714142Y-110291714D01*
X200761761Y-110339333D01*
X200809380Y-110434571D01*
X200809380Y-110672666D01*
X200761761Y-110767904D01*
X200714142Y-110815523D01*
G04 #@! TO.C,R24*
X165727142Y-77717380D02*
X165393809Y-77241190D01*
X165155714Y-77717380D02*
X165155714Y-76717380D01*
X165536666Y-76717380D01*
X165631904Y-76765000D01*
X165679523Y-76812619D01*
X165727142Y-76907857D01*
X165727142Y-77050714D01*
X165679523Y-77145952D01*
X165631904Y-77193571D01*
X165536666Y-77241190D01*
X165155714Y-77241190D01*
X166108095Y-76812619D02*
X166155714Y-76765000D01*
X166250952Y-76717380D01*
X166489047Y-76717380D01*
X166584285Y-76765000D01*
X166631904Y-76812619D01*
X166679523Y-76907857D01*
X166679523Y-77003095D01*
X166631904Y-77145952D01*
X166060476Y-77717380D01*
X166679523Y-77717380D01*
X167536666Y-77050714D02*
X167536666Y-77717380D01*
X167298571Y-76669761D02*
X167060476Y-77384047D01*
X167679523Y-77384047D01*
G04 #@! TO.C,Q5*
X166020761Y-73191619D02*
X165925523Y-73144000D01*
X165830285Y-73048761D01*
X165687428Y-72905904D01*
X165592190Y-72858285D01*
X165496952Y-72858285D01*
X165544571Y-73096380D02*
X165449333Y-73048761D01*
X165354095Y-72953523D01*
X165306476Y-72763047D01*
X165306476Y-72429714D01*
X165354095Y-72239238D01*
X165449333Y-72144000D01*
X165544571Y-72096380D01*
X165735047Y-72096380D01*
X165830285Y-72144000D01*
X165925523Y-72239238D01*
X165973142Y-72429714D01*
X165973142Y-72763047D01*
X165925523Y-72953523D01*
X165830285Y-73048761D01*
X165735047Y-73096380D01*
X165544571Y-73096380D01*
X166877904Y-72096380D02*
X166401714Y-72096380D01*
X166354095Y-72572571D01*
X166401714Y-72524952D01*
X166496952Y-72477333D01*
X166735047Y-72477333D01*
X166830285Y-72524952D01*
X166877904Y-72572571D01*
X166925523Y-72667809D01*
X166925523Y-72905904D01*
X166877904Y-73001142D01*
X166830285Y-73048761D01*
X166735047Y-73096380D01*
X166496952Y-73096380D01*
X166401714Y-73048761D01*
X166354095Y-73001142D01*
G04 #@! TO.C,SW1*
X195770666Y-95032261D02*
X195913523Y-95079880D01*
X196151619Y-95079880D01*
X196246857Y-95032261D01*
X196294476Y-94984642D01*
X196342095Y-94889404D01*
X196342095Y-94794166D01*
X196294476Y-94698928D01*
X196246857Y-94651309D01*
X196151619Y-94603690D01*
X195961142Y-94556071D01*
X195865904Y-94508452D01*
X195818285Y-94460833D01*
X195770666Y-94365595D01*
X195770666Y-94270357D01*
X195818285Y-94175119D01*
X195865904Y-94127500D01*
X195961142Y-94079880D01*
X196199238Y-94079880D01*
X196342095Y-94127500D01*
X196675428Y-94079880D02*
X196913523Y-95079880D01*
X197104000Y-94365595D01*
X197294476Y-95079880D01*
X197532571Y-94079880D01*
X198437333Y-95079880D02*
X197865904Y-95079880D01*
X198151619Y-95079880D02*
X198151619Y-94079880D01*
X198056380Y-94222738D01*
X197961142Y-94317976D01*
X197865904Y-94365595D01*
G04 #@! TO.C,J3*
X164766666Y-144276380D02*
X164766666Y-144990666D01*
X164719047Y-145133523D01*
X164623809Y-145228761D01*
X164480952Y-145276380D01*
X164385714Y-145276380D01*
X165147619Y-144276380D02*
X165766666Y-144276380D01*
X165433333Y-144657333D01*
X165576190Y-144657333D01*
X165671428Y-144704952D01*
X165719047Y-144752571D01*
X165766666Y-144847809D01*
X165766666Y-145085904D01*
X165719047Y-145181142D01*
X165671428Y-145228761D01*
X165576190Y-145276380D01*
X165290476Y-145276380D01*
X165195238Y-145228761D01*
X165147619Y-145181142D01*
G04 #@! TO.C,J2*
X141906666Y-144149380D02*
X141906666Y-144863666D01*
X141859047Y-145006523D01*
X141763809Y-145101761D01*
X141620952Y-145149380D01*
X141525714Y-145149380D01*
X142335238Y-144244619D02*
X142382857Y-144197000D01*
X142478095Y-144149380D01*
X142716190Y-144149380D01*
X142811428Y-144197000D01*
X142859047Y-144244619D01*
X142906666Y-144339857D01*
X142906666Y-144435095D01*
X142859047Y-144577952D01*
X142287619Y-145149380D01*
X142906666Y-145149380D01*
G04 #@! TO.C,J1*
X187626666Y-144403380D02*
X187626666Y-145117666D01*
X187579047Y-145260523D01*
X187483809Y-145355761D01*
X187340952Y-145403380D01*
X187245714Y-145403380D01*
X188626666Y-145403380D02*
X188055238Y-145403380D01*
X188340952Y-145403380D02*
X188340952Y-144403380D01*
X188245714Y-144546238D01*
X188150476Y-144641476D01*
X188055238Y-144689095D01*
G04 #@! TO.C,Q4*
X186213761Y-118784619D02*
X186118523Y-118737000D01*
X186023285Y-118641761D01*
X185880428Y-118498904D01*
X185785190Y-118451285D01*
X185689952Y-118451285D01*
X185737571Y-118689380D02*
X185642333Y-118641761D01*
X185547095Y-118546523D01*
X185499476Y-118356047D01*
X185499476Y-118022714D01*
X185547095Y-117832238D01*
X185642333Y-117737000D01*
X185737571Y-117689380D01*
X185928047Y-117689380D01*
X186023285Y-117737000D01*
X186118523Y-117832238D01*
X186166142Y-118022714D01*
X186166142Y-118356047D01*
X186118523Y-118546523D01*
X186023285Y-118641761D01*
X185928047Y-118689380D01*
X185737571Y-118689380D01*
X187023285Y-118022714D02*
X187023285Y-118689380D01*
X186785190Y-117641761D02*
X186547095Y-118356047D01*
X187166142Y-118356047D01*
G04 #@! TO.C,Q3*
X163226761Y-119292619D02*
X163131523Y-119245000D01*
X163036285Y-119149761D01*
X162893428Y-119006904D01*
X162798190Y-118959285D01*
X162702952Y-118959285D01*
X162750571Y-119197380D02*
X162655333Y-119149761D01*
X162560095Y-119054523D01*
X162512476Y-118864047D01*
X162512476Y-118530714D01*
X162560095Y-118340238D01*
X162655333Y-118245000D01*
X162750571Y-118197380D01*
X162941047Y-118197380D01*
X163036285Y-118245000D01*
X163131523Y-118340238D01*
X163179142Y-118530714D01*
X163179142Y-118864047D01*
X163131523Y-119054523D01*
X163036285Y-119149761D01*
X162941047Y-119197380D01*
X162750571Y-119197380D01*
X163512476Y-118197380D02*
X164131523Y-118197380D01*
X163798190Y-118578333D01*
X163941047Y-118578333D01*
X164036285Y-118625952D01*
X164083904Y-118673571D01*
X164131523Y-118768809D01*
X164131523Y-119006904D01*
X164083904Y-119102142D01*
X164036285Y-119149761D01*
X163941047Y-119197380D01*
X163655333Y-119197380D01*
X163560095Y-119149761D01*
X163512476Y-119102142D01*
G04 #@! TO.C,Q2*
X140366761Y-119546619D02*
X140271523Y-119499000D01*
X140176285Y-119403761D01*
X140033428Y-119260904D01*
X139938190Y-119213285D01*
X139842952Y-119213285D01*
X139890571Y-119451380D02*
X139795333Y-119403761D01*
X139700095Y-119308523D01*
X139652476Y-119118047D01*
X139652476Y-118784714D01*
X139700095Y-118594238D01*
X139795333Y-118499000D01*
X139890571Y-118451380D01*
X140081047Y-118451380D01*
X140176285Y-118499000D01*
X140271523Y-118594238D01*
X140319142Y-118784714D01*
X140319142Y-119118047D01*
X140271523Y-119308523D01*
X140176285Y-119403761D01*
X140081047Y-119451380D01*
X139890571Y-119451380D01*
X140700095Y-118546619D02*
X140747714Y-118499000D01*
X140842952Y-118451380D01*
X141081047Y-118451380D01*
X141176285Y-118499000D01*
X141223904Y-118546619D01*
X141271523Y-118641857D01*
X141271523Y-118737095D01*
X141223904Y-118879952D01*
X140652476Y-119451380D01*
X141271523Y-119451380D01*
G04 #@! TO.C,Q1*
X143287761Y-73572619D02*
X143192523Y-73525000D01*
X143097285Y-73429761D01*
X142954428Y-73286904D01*
X142859190Y-73239285D01*
X142763952Y-73239285D01*
X142811571Y-73477380D02*
X142716333Y-73429761D01*
X142621095Y-73334523D01*
X142573476Y-73144047D01*
X142573476Y-72810714D01*
X142621095Y-72620238D01*
X142716333Y-72525000D01*
X142811571Y-72477380D01*
X143002047Y-72477380D01*
X143097285Y-72525000D01*
X143192523Y-72620238D01*
X143240142Y-72810714D01*
X143240142Y-73144047D01*
X143192523Y-73334523D01*
X143097285Y-73429761D01*
X143002047Y-73477380D01*
X142811571Y-73477380D01*
X144192523Y-73477380D02*
X143621095Y-73477380D01*
X143906809Y-73477380D02*
X143906809Y-72477380D01*
X143811571Y-72620238D01*
X143716333Y-72715476D01*
X143621095Y-72763095D01*
G04 #@! TO.C,USB2*
X113450904Y-54824380D02*
X113450904Y-55633904D01*
X113498523Y-55729142D01*
X113546142Y-55776761D01*
X113641380Y-55824380D01*
X113831857Y-55824380D01*
X113927095Y-55776761D01*
X113974714Y-55729142D01*
X114022333Y-55633904D01*
X114022333Y-54824380D01*
X114450904Y-55776761D02*
X114593761Y-55824380D01*
X114831857Y-55824380D01*
X114927095Y-55776761D01*
X114974714Y-55729142D01*
X115022333Y-55633904D01*
X115022333Y-55538666D01*
X114974714Y-55443428D01*
X114927095Y-55395809D01*
X114831857Y-55348190D01*
X114641380Y-55300571D01*
X114546142Y-55252952D01*
X114498523Y-55205333D01*
X114450904Y-55110095D01*
X114450904Y-55014857D01*
X114498523Y-54919619D01*
X114546142Y-54872000D01*
X114641380Y-54824380D01*
X114879476Y-54824380D01*
X115022333Y-54872000D01*
X115784238Y-55300571D02*
X115927095Y-55348190D01*
X115974714Y-55395809D01*
X116022333Y-55491047D01*
X116022333Y-55633904D01*
X115974714Y-55729142D01*
X115927095Y-55776761D01*
X115831857Y-55824380D01*
X115450904Y-55824380D01*
X115450904Y-54824380D01*
X115784238Y-54824380D01*
X115879476Y-54872000D01*
X115927095Y-54919619D01*
X115974714Y-55014857D01*
X115974714Y-55110095D01*
X115927095Y-55205333D01*
X115879476Y-55252952D01*
X115784238Y-55300571D01*
X115450904Y-55300571D01*
X116403285Y-54919619D02*
X116450904Y-54872000D01*
X116546142Y-54824380D01*
X116784238Y-54824380D01*
X116879476Y-54872000D01*
X116927095Y-54919619D01*
X116974714Y-55014857D01*
X116974714Y-55110095D01*
X116927095Y-55252952D01*
X116355666Y-55824380D01*
X116974714Y-55824380D01*
G04 #@! TO.C,R22*
X142867142Y-77590380D02*
X142533809Y-77114190D01*
X142295714Y-77590380D02*
X142295714Y-76590380D01*
X142676666Y-76590380D01*
X142771904Y-76638000D01*
X142819523Y-76685619D01*
X142867142Y-76780857D01*
X142867142Y-76923714D01*
X142819523Y-77018952D01*
X142771904Y-77066571D01*
X142676666Y-77114190D01*
X142295714Y-77114190D01*
X143248095Y-76685619D02*
X143295714Y-76638000D01*
X143390952Y-76590380D01*
X143629047Y-76590380D01*
X143724285Y-76638000D01*
X143771904Y-76685619D01*
X143819523Y-76780857D01*
X143819523Y-76876095D01*
X143771904Y-77018952D01*
X143200476Y-77590380D01*
X143819523Y-77590380D01*
X144200476Y-76685619D02*
X144248095Y-76638000D01*
X144343333Y-76590380D01*
X144581428Y-76590380D01*
X144676666Y-76638000D01*
X144724285Y-76685619D01*
X144771904Y-76780857D01*
X144771904Y-76876095D01*
X144724285Y-77018952D01*
X144152857Y-77590380D01*
X144771904Y-77590380D01*
G04 #@! TO.C,R21*
X186047142Y-114957380D02*
X185713809Y-114481190D01*
X185475714Y-114957380D02*
X185475714Y-113957380D01*
X185856666Y-113957380D01*
X185951904Y-114005000D01*
X185999523Y-114052619D01*
X186047142Y-114147857D01*
X186047142Y-114290714D01*
X185999523Y-114385952D01*
X185951904Y-114433571D01*
X185856666Y-114481190D01*
X185475714Y-114481190D01*
X186428095Y-114052619D02*
X186475714Y-114005000D01*
X186570952Y-113957380D01*
X186809047Y-113957380D01*
X186904285Y-114005000D01*
X186951904Y-114052619D01*
X186999523Y-114147857D01*
X186999523Y-114243095D01*
X186951904Y-114385952D01*
X186380476Y-114957380D01*
X186999523Y-114957380D01*
X187951904Y-114957380D02*
X187380476Y-114957380D01*
X187666190Y-114957380D02*
X187666190Y-113957380D01*
X187570952Y-114100238D01*
X187475714Y-114195476D01*
X187380476Y-114243095D01*
G04 #@! TO.C,R20*
X195065380Y-121927857D02*
X194589190Y-122261190D01*
X195065380Y-122499285D02*
X194065380Y-122499285D01*
X194065380Y-122118333D01*
X194113000Y-122023095D01*
X194160619Y-121975476D01*
X194255857Y-121927857D01*
X194398714Y-121927857D01*
X194493952Y-121975476D01*
X194541571Y-122023095D01*
X194589190Y-122118333D01*
X194589190Y-122499285D01*
X194160619Y-121546904D02*
X194113000Y-121499285D01*
X194065380Y-121404047D01*
X194065380Y-121165952D01*
X194113000Y-121070714D01*
X194160619Y-121023095D01*
X194255857Y-120975476D01*
X194351095Y-120975476D01*
X194493952Y-121023095D01*
X195065380Y-121594523D01*
X195065380Y-120975476D01*
X194065380Y-120356428D02*
X194065380Y-120261190D01*
X194113000Y-120165952D01*
X194160619Y-120118333D01*
X194255857Y-120070714D01*
X194446333Y-120023095D01*
X194684428Y-120023095D01*
X194874904Y-120070714D01*
X194970142Y-120118333D01*
X195017761Y-120165952D01*
X195065380Y-120261190D01*
X195065380Y-120356428D01*
X195017761Y-120451666D01*
X194970142Y-120499285D01*
X194874904Y-120546904D01*
X194684428Y-120594523D01*
X194446333Y-120594523D01*
X194255857Y-120546904D01*
X194160619Y-120499285D01*
X194113000Y-120451666D01*
X194065380Y-120356428D01*
G04 #@! TO.C,R19*
X185159380Y-121927857D02*
X184683190Y-122261190D01*
X185159380Y-122499285D02*
X184159380Y-122499285D01*
X184159380Y-122118333D01*
X184207000Y-122023095D01*
X184254619Y-121975476D01*
X184349857Y-121927857D01*
X184492714Y-121927857D01*
X184587952Y-121975476D01*
X184635571Y-122023095D01*
X184683190Y-122118333D01*
X184683190Y-122499285D01*
X185159380Y-120975476D02*
X185159380Y-121546904D01*
X185159380Y-121261190D02*
X184159380Y-121261190D01*
X184302238Y-121356428D01*
X184397476Y-121451666D01*
X184445095Y-121546904D01*
X185159380Y-120499285D02*
X185159380Y-120308809D01*
X185111761Y-120213571D01*
X185064142Y-120165952D01*
X184921285Y-120070714D01*
X184730809Y-120023095D01*
X184349857Y-120023095D01*
X184254619Y-120070714D01*
X184207000Y-120118333D01*
X184159380Y-120213571D01*
X184159380Y-120404047D01*
X184207000Y-120499285D01*
X184254619Y-120546904D01*
X184349857Y-120594523D01*
X184587952Y-120594523D01*
X184683190Y-120546904D01*
X184730809Y-120499285D01*
X184778428Y-120404047D01*
X184778428Y-120213571D01*
X184730809Y-120118333D01*
X184683190Y-120070714D01*
X184587952Y-120023095D01*
G04 #@! TO.C,R18*
X166362142Y-118992380D02*
X166028809Y-118516190D01*
X165790714Y-118992380D02*
X165790714Y-117992380D01*
X166171666Y-117992380D01*
X166266904Y-118040000D01*
X166314523Y-118087619D01*
X166362142Y-118182857D01*
X166362142Y-118325714D01*
X166314523Y-118420952D01*
X166266904Y-118468571D01*
X166171666Y-118516190D01*
X165790714Y-118516190D01*
X167314523Y-118992380D02*
X166743095Y-118992380D01*
X167028809Y-118992380D02*
X167028809Y-117992380D01*
X166933571Y-118135238D01*
X166838333Y-118230476D01*
X166743095Y-118278095D01*
X167885952Y-118420952D02*
X167790714Y-118373333D01*
X167743095Y-118325714D01*
X167695476Y-118230476D01*
X167695476Y-118182857D01*
X167743095Y-118087619D01*
X167790714Y-118040000D01*
X167885952Y-117992380D01*
X168076428Y-117992380D01*
X168171666Y-118040000D01*
X168219285Y-118087619D01*
X168266904Y-118182857D01*
X168266904Y-118230476D01*
X168219285Y-118325714D01*
X168171666Y-118373333D01*
X168076428Y-118420952D01*
X167885952Y-118420952D01*
X167790714Y-118468571D01*
X167743095Y-118516190D01*
X167695476Y-118611428D01*
X167695476Y-118801904D01*
X167743095Y-118897142D01*
X167790714Y-118944761D01*
X167885952Y-118992380D01*
X168076428Y-118992380D01*
X168171666Y-118944761D01*
X168219285Y-118897142D01*
X168266904Y-118801904D01*
X168266904Y-118611428D01*
X168219285Y-118516190D01*
X168171666Y-118468571D01*
X168076428Y-118420952D01*
G04 #@! TO.C,R17*
X172205380Y-122054857D02*
X171729190Y-122388190D01*
X172205380Y-122626285D02*
X171205380Y-122626285D01*
X171205380Y-122245333D01*
X171253000Y-122150095D01*
X171300619Y-122102476D01*
X171395857Y-122054857D01*
X171538714Y-122054857D01*
X171633952Y-122102476D01*
X171681571Y-122150095D01*
X171729190Y-122245333D01*
X171729190Y-122626285D01*
X172205380Y-121102476D02*
X172205380Y-121673904D01*
X172205380Y-121388190D02*
X171205380Y-121388190D01*
X171348238Y-121483428D01*
X171443476Y-121578666D01*
X171491095Y-121673904D01*
X171205380Y-120769142D02*
X171205380Y-120102476D01*
X172205380Y-120531047D01*
G04 #@! TO.C,R16*
X162299380Y-122054857D02*
X161823190Y-122388190D01*
X162299380Y-122626285D02*
X161299380Y-122626285D01*
X161299380Y-122245333D01*
X161347000Y-122150095D01*
X161394619Y-122102476D01*
X161489857Y-122054857D01*
X161632714Y-122054857D01*
X161727952Y-122102476D01*
X161775571Y-122150095D01*
X161823190Y-122245333D01*
X161823190Y-122626285D01*
X162299380Y-121102476D02*
X162299380Y-121673904D01*
X162299380Y-121388190D02*
X161299380Y-121388190D01*
X161442238Y-121483428D01*
X161537476Y-121578666D01*
X161585095Y-121673904D01*
X161299380Y-120245333D02*
X161299380Y-120435809D01*
X161347000Y-120531047D01*
X161394619Y-120578666D01*
X161537476Y-120673904D01*
X161727952Y-120721523D01*
X162108904Y-120721523D01*
X162204142Y-120673904D01*
X162251761Y-120626285D01*
X162299380Y-120531047D01*
X162299380Y-120340571D01*
X162251761Y-120245333D01*
X162204142Y-120197714D01*
X162108904Y-120150095D01*
X161870809Y-120150095D01*
X161775571Y-120197714D01*
X161727952Y-120245333D01*
X161680333Y-120340571D01*
X161680333Y-120531047D01*
X161727952Y-120626285D01*
X161775571Y-120673904D01*
X161870809Y-120721523D01*
G04 #@! TO.C,DIN6*
D12*
X181018571Y-143601000D02*
X179518571Y-143601000D01*
X179518571Y-143243857D01*
X179590000Y-143029571D01*
X179732857Y-142886714D01*
X179875714Y-142815285D01*
X180161428Y-142743857D01*
X180375714Y-142743857D01*
X180661428Y-142815285D01*
X180804285Y-142886714D01*
X180947142Y-143029571D01*
X181018571Y-143243857D01*
X181018571Y-143601000D01*
X181018571Y-142101000D02*
X179518571Y-142101000D01*
X181018571Y-141386714D02*
X179518571Y-141386714D01*
X181018571Y-140529571D01*
X179518571Y-140529571D01*
X179518571Y-139172428D02*
X179518571Y-139458142D01*
X179590000Y-139601000D01*
X179661428Y-139672428D01*
X179875714Y-139815285D01*
X180161428Y-139886714D01*
X180732857Y-139886714D01*
X180875714Y-139815285D01*
X180947142Y-139743857D01*
X181018571Y-139601000D01*
X181018571Y-139315285D01*
X180947142Y-139172428D01*
X180875714Y-139101000D01*
X180732857Y-139029571D01*
X180375714Y-139029571D01*
X180232857Y-139101000D01*
X180161428Y-139172428D01*
X180090000Y-139315285D01*
X180090000Y-139601000D01*
X180161428Y-139743857D01*
X180232857Y-139815285D01*
X180375714Y-139886714D01*
X182567142Y-126203571D02*
X182567142Y-124703571D01*
X183067142Y-125775000D01*
X183567142Y-124703571D01*
X183567142Y-126203571D01*
X184281428Y-126203571D02*
X184281428Y-124703571D01*
X184995714Y-126203571D02*
X184995714Y-124703571D01*
X185352857Y-124703571D01*
X185567142Y-124775000D01*
X185710000Y-124917857D01*
X185781428Y-125060714D01*
X185852857Y-125346428D01*
X185852857Y-125560714D01*
X185781428Y-125846428D01*
X185710000Y-125989285D01*
X185567142Y-126132142D01*
X185352857Y-126203571D01*
X184995714Y-126203571D01*
X186495714Y-126203571D02*
X186495714Y-124703571D01*
X186852857Y-126346428D02*
X187995714Y-126346428D01*
X188638571Y-124703571D02*
X188924285Y-124703571D01*
X189067142Y-124775000D01*
X189210000Y-124917857D01*
X189281428Y-125203571D01*
X189281428Y-125703571D01*
X189210000Y-125989285D01*
X189067142Y-126132142D01*
X188924285Y-126203571D01*
X188638571Y-126203571D01*
X188495714Y-126132142D01*
X188352857Y-125989285D01*
X188281428Y-125703571D01*
X188281428Y-125203571D01*
X188352857Y-124917857D01*
X188495714Y-124775000D01*
X188638571Y-124703571D01*
X189924285Y-124703571D02*
X189924285Y-125917857D01*
X189995714Y-126060714D01*
X190067142Y-126132142D01*
X190210000Y-126203571D01*
X190495714Y-126203571D01*
X190638571Y-126132142D01*
X190710000Y-126060714D01*
X190781428Y-125917857D01*
X190781428Y-124703571D01*
X191281428Y-124703571D02*
X192138571Y-124703571D01*
X191710000Y-126203571D02*
X191710000Y-124703571D01*
X193281428Y-125203571D02*
X193281428Y-126203571D01*
X192924285Y-124632142D02*
X192567142Y-125703571D01*
X193495714Y-125703571D01*
G04 #@! TO.C,DIN5*
X158158571Y-143855000D02*
X156658571Y-143855000D01*
X156658571Y-143497857D01*
X156730000Y-143283571D01*
X156872857Y-143140714D01*
X157015714Y-143069285D01*
X157301428Y-142997857D01*
X157515714Y-142997857D01*
X157801428Y-143069285D01*
X157944285Y-143140714D01*
X158087142Y-143283571D01*
X158158571Y-143497857D01*
X158158571Y-143855000D01*
X158158571Y-142355000D02*
X156658571Y-142355000D01*
X158158571Y-141640714D02*
X156658571Y-141640714D01*
X158158571Y-140783571D01*
X156658571Y-140783571D01*
X156658571Y-139355000D02*
X156658571Y-140069285D01*
X157372857Y-140140714D01*
X157301428Y-140069285D01*
X157230000Y-139926428D01*
X157230000Y-139569285D01*
X157301428Y-139426428D01*
X157372857Y-139355000D01*
X157515714Y-139283571D01*
X157872857Y-139283571D01*
X158015714Y-139355000D01*
X158087142Y-139426428D01*
X158158571Y-139569285D01*
X158158571Y-139926428D01*
X158087142Y-140069285D01*
X158015714Y-140140714D01*
X159707142Y-126203571D02*
X159707142Y-124703571D01*
X160207142Y-125775000D01*
X160707142Y-124703571D01*
X160707142Y-126203571D01*
X161421428Y-126203571D02*
X161421428Y-124703571D01*
X162135714Y-126203571D02*
X162135714Y-124703571D01*
X162492857Y-124703571D01*
X162707142Y-124775000D01*
X162850000Y-124917857D01*
X162921428Y-125060714D01*
X162992857Y-125346428D01*
X162992857Y-125560714D01*
X162921428Y-125846428D01*
X162850000Y-125989285D01*
X162707142Y-126132142D01*
X162492857Y-126203571D01*
X162135714Y-126203571D01*
X163635714Y-126203571D02*
X163635714Y-124703571D01*
X163992857Y-126346428D02*
X165135714Y-126346428D01*
X165778571Y-124703571D02*
X166064285Y-124703571D01*
X166207142Y-124775000D01*
X166350000Y-124917857D01*
X166421428Y-125203571D01*
X166421428Y-125703571D01*
X166350000Y-125989285D01*
X166207142Y-126132142D01*
X166064285Y-126203571D01*
X165778571Y-126203571D01*
X165635714Y-126132142D01*
X165492857Y-125989285D01*
X165421428Y-125703571D01*
X165421428Y-125203571D01*
X165492857Y-124917857D01*
X165635714Y-124775000D01*
X165778571Y-124703571D01*
X167064285Y-124703571D02*
X167064285Y-125917857D01*
X167135714Y-126060714D01*
X167207142Y-126132142D01*
X167350000Y-126203571D01*
X167635714Y-126203571D01*
X167778571Y-126132142D01*
X167850000Y-126060714D01*
X167921428Y-125917857D01*
X167921428Y-124703571D01*
X168421428Y-124703571D02*
X169278571Y-124703571D01*
X168850000Y-126203571D02*
X168850000Y-124703571D01*
X169635714Y-124703571D02*
X170564285Y-124703571D01*
X170064285Y-125275000D01*
X170278571Y-125275000D01*
X170421428Y-125346428D01*
X170492857Y-125417857D01*
X170564285Y-125560714D01*
X170564285Y-125917857D01*
X170492857Y-126060714D01*
X170421428Y-126132142D01*
X170278571Y-126203571D01*
X169850000Y-126203571D01*
X169707142Y-126132142D01*
X169635714Y-126060714D01*
G04 #@! TO.C,U4*
D10*
X161209380Y-85216904D02*
X162018904Y-85216904D01*
X162114142Y-85169285D01*
X162161761Y-85121666D01*
X162209380Y-85026428D01*
X162209380Y-84835952D01*
X162161761Y-84740714D01*
X162114142Y-84693095D01*
X162018904Y-84645476D01*
X161209380Y-84645476D01*
X161542714Y-83740714D02*
X162209380Y-83740714D01*
X161161761Y-83978809D02*
X161876047Y-84216904D01*
X161876047Y-83597857D01*
G04 #@! TO.C,R15*
X142994142Y-118992380D02*
X142660809Y-118516190D01*
X142422714Y-118992380D02*
X142422714Y-117992380D01*
X142803666Y-117992380D01*
X142898904Y-118040000D01*
X142946523Y-118087619D01*
X142994142Y-118182857D01*
X142994142Y-118325714D01*
X142946523Y-118420952D01*
X142898904Y-118468571D01*
X142803666Y-118516190D01*
X142422714Y-118516190D01*
X143946523Y-118992380D02*
X143375095Y-118992380D01*
X143660809Y-118992380D02*
X143660809Y-117992380D01*
X143565571Y-118135238D01*
X143470333Y-118230476D01*
X143375095Y-118278095D01*
X144851285Y-117992380D02*
X144375095Y-117992380D01*
X144327476Y-118468571D01*
X144375095Y-118420952D01*
X144470333Y-118373333D01*
X144708428Y-118373333D01*
X144803666Y-118420952D01*
X144851285Y-118468571D01*
X144898904Y-118563809D01*
X144898904Y-118801904D01*
X144851285Y-118897142D01*
X144803666Y-118944761D01*
X144708428Y-118992380D01*
X144470333Y-118992380D01*
X144375095Y-118944761D01*
X144327476Y-118897142D01*
G04 #@! TO.C,R14*
X149408880Y-122181857D02*
X148932690Y-122515190D01*
X149408880Y-122753285D02*
X148408880Y-122753285D01*
X148408880Y-122372333D01*
X148456500Y-122277095D01*
X148504119Y-122229476D01*
X148599357Y-122181857D01*
X148742214Y-122181857D01*
X148837452Y-122229476D01*
X148885071Y-122277095D01*
X148932690Y-122372333D01*
X148932690Y-122753285D01*
X149408880Y-121229476D02*
X149408880Y-121800904D01*
X149408880Y-121515190D02*
X148408880Y-121515190D01*
X148551738Y-121610428D01*
X148646976Y-121705666D01*
X148694595Y-121800904D01*
X148742214Y-120372333D02*
X149408880Y-120372333D01*
X148361261Y-120610428D02*
X149075547Y-120848523D01*
X149075547Y-120229476D01*
G04 #@! TO.C,R13*
X139375880Y-122054857D02*
X138899690Y-122388190D01*
X139375880Y-122626285D02*
X138375880Y-122626285D01*
X138375880Y-122245333D01*
X138423500Y-122150095D01*
X138471119Y-122102476D01*
X138566357Y-122054857D01*
X138709214Y-122054857D01*
X138804452Y-122102476D01*
X138852071Y-122150095D01*
X138899690Y-122245333D01*
X138899690Y-122626285D01*
X139375880Y-121102476D02*
X139375880Y-121673904D01*
X139375880Y-121388190D02*
X138375880Y-121388190D01*
X138518738Y-121483428D01*
X138613976Y-121578666D01*
X138661595Y-121673904D01*
X138375880Y-120769142D02*
X138375880Y-120150095D01*
X138756833Y-120483428D01*
X138756833Y-120340571D01*
X138804452Y-120245333D01*
X138852071Y-120197714D01*
X138947309Y-120150095D01*
X139185404Y-120150095D01*
X139280642Y-120197714D01*
X139328261Y-120245333D01*
X139375880Y-120340571D01*
X139375880Y-120626285D01*
X139328261Y-120721523D01*
X139280642Y-120769142D01*
G04 #@! TO.C,J7*
X161972666Y-102576380D02*
X161972666Y-103290666D01*
X161925047Y-103433523D01*
X161829809Y-103528761D01*
X161686952Y-103576380D01*
X161591714Y-103576380D01*
X162353619Y-102576380D02*
X163020285Y-102576380D01*
X162591714Y-103576380D01*
G04 #@! TO.C,DIN4*
D12*
X135425571Y-143855000D02*
X133925571Y-143855000D01*
X133925571Y-143497857D01*
X133997000Y-143283571D01*
X134139857Y-143140714D01*
X134282714Y-143069285D01*
X134568428Y-142997857D01*
X134782714Y-142997857D01*
X135068428Y-143069285D01*
X135211285Y-143140714D01*
X135354142Y-143283571D01*
X135425571Y-143497857D01*
X135425571Y-143855000D01*
X135425571Y-142355000D02*
X133925571Y-142355000D01*
X135425571Y-141640714D02*
X133925571Y-141640714D01*
X135425571Y-140783571D01*
X133925571Y-140783571D01*
X134425571Y-139426428D02*
X135425571Y-139426428D01*
X133854142Y-139783571D02*
X134925571Y-140140714D01*
X134925571Y-139212142D01*
X136847142Y-126203571D02*
X136847142Y-124703571D01*
X137347142Y-125775000D01*
X137847142Y-124703571D01*
X137847142Y-126203571D01*
X138561428Y-126203571D02*
X138561428Y-124703571D01*
X139275714Y-126203571D02*
X139275714Y-124703571D01*
X139632857Y-124703571D01*
X139847142Y-124775000D01*
X139990000Y-124917857D01*
X140061428Y-125060714D01*
X140132857Y-125346428D01*
X140132857Y-125560714D01*
X140061428Y-125846428D01*
X139990000Y-125989285D01*
X139847142Y-126132142D01*
X139632857Y-126203571D01*
X139275714Y-126203571D01*
X140775714Y-126203571D02*
X140775714Y-124703571D01*
X141132857Y-126346428D02*
X142275714Y-126346428D01*
X142918571Y-124703571D02*
X143204285Y-124703571D01*
X143347142Y-124775000D01*
X143490000Y-124917857D01*
X143561428Y-125203571D01*
X143561428Y-125703571D01*
X143490000Y-125989285D01*
X143347142Y-126132142D01*
X143204285Y-126203571D01*
X142918571Y-126203571D01*
X142775714Y-126132142D01*
X142632857Y-125989285D01*
X142561428Y-125703571D01*
X142561428Y-125203571D01*
X142632857Y-124917857D01*
X142775714Y-124775000D01*
X142918571Y-124703571D01*
X144204285Y-124703571D02*
X144204285Y-125917857D01*
X144275714Y-126060714D01*
X144347142Y-126132142D01*
X144490000Y-126203571D01*
X144775714Y-126203571D01*
X144918571Y-126132142D01*
X144990000Y-126060714D01*
X145061428Y-125917857D01*
X145061428Y-124703571D01*
X145561428Y-124703571D02*
X146418571Y-124703571D01*
X145990000Y-126203571D02*
X145990000Y-124703571D01*
X146847142Y-124846428D02*
X146918571Y-124775000D01*
X147061428Y-124703571D01*
X147418571Y-124703571D01*
X147561428Y-124775000D01*
X147632857Y-124846428D01*
X147704285Y-124989285D01*
X147704285Y-125132142D01*
X147632857Y-125346428D01*
X146775714Y-126203571D01*
X147704285Y-126203571D01*
G04 #@! TO.C,U3*
D10*
X108236380Y-62610904D02*
X109045904Y-62610904D01*
X109141142Y-62563285D01*
X109188761Y-62515666D01*
X109236380Y-62420428D01*
X109236380Y-62229952D01*
X109188761Y-62134714D01*
X109141142Y-62087095D01*
X109045904Y-62039476D01*
X108236380Y-62039476D01*
X108236380Y-61658523D02*
X108236380Y-61039476D01*
X108617333Y-61372809D01*
X108617333Y-61229952D01*
X108664952Y-61134714D01*
X108712571Y-61087095D01*
X108807809Y-61039476D01*
X109045904Y-61039476D01*
X109141142Y-61087095D01*
X109188761Y-61134714D01*
X109236380Y-61229952D01*
X109236380Y-61515666D01*
X109188761Y-61610904D01*
X109141142Y-61658523D01*
G04 #@! TO.C,R12*
X135072380Y-71000857D02*
X134596190Y-71334190D01*
X135072380Y-71572285D02*
X134072380Y-71572285D01*
X134072380Y-71191333D01*
X134120000Y-71096095D01*
X134167619Y-71048476D01*
X134262857Y-71000857D01*
X134405714Y-71000857D01*
X134500952Y-71048476D01*
X134548571Y-71096095D01*
X134596190Y-71191333D01*
X134596190Y-71572285D01*
X135072380Y-70048476D02*
X135072380Y-70619904D01*
X135072380Y-70334190D02*
X134072380Y-70334190D01*
X134215238Y-70429428D01*
X134310476Y-70524666D01*
X134358095Y-70619904D01*
X134167619Y-69667523D02*
X134120000Y-69619904D01*
X134072380Y-69524666D01*
X134072380Y-69286571D01*
X134120000Y-69191333D01*
X134167619Y-69143714D01*
X134262857Y-69096095D01*
X134358095Y-69096095D01*
X134500952Y-69143714D01*
X135072380Y-69715142D01*
X135072380Y-69096095D01*
G04 #@! TO.C,R11*
X150312380Y-71000857D02*
X149836190Y-71334190D01*
X150312380Y-71572285D02*
X149312380Y-71572285D01*
X149312380Y-71191333D01*
X149360000Y-71096095D01*
X149407619Y-71048476D01*
X149502857Y-71000857D01*
X149645714Y-71000857D01*
X149740952Y-71048476D01*
X149788571Y-71096095D01*
X149836190Y-71191333D01*
X149836190Y-71572285D01*
X150312380Y-70048476D02*
X150312380Y-70619904D01*
X150312380Y-70334190D02*
X149312380Y-70334190D01*
X149455238Y-70429428D01*
X149550476Y-70524666D01*
X149598095Y-70619904D01*
X150312380Y-69096095D02*
X150312380Y-69667523D01*
X150312380Y-69381809D02*
X149312380Y-69381809D01*
X149455238Y-69477047D01*
X149550476Y-69572285D01*
X149598095Y-69667523D01*
G04 #@! TO.C,R10*
X158899380Y-71762857D02*
X158423190Y-72096190D01*
X158899380Y-72334285D02*
X157899380Y-72334285D01*
X157899380Y-71953333D01*
X157947000Y-71858095D01*
X157994619Y-71810476D01*
X158089857Y-71762857D01*
X158232714Y-71762857D01*
X158327952Y-71810476D01*
X158375571Y-71858095D01*
X158423190Y-71953333D01*
X158423190Y-72334285D01*
X158899380Y-70810476D02*
X158899380Y-71381904D01*
X158899380Y-71096190D02*
X157899380Y-71096190D01*
X158042238Y-71191428D01*
X158137476Y-71286666D01*
X158185095Y-71381904D01*
X157899380Y-70191428D02*
X157899380Y-70096190D01*
X157947000Y-70000952D01*
X157994619Y-69953333D01*
X158089857Y-69905714D01*
X158280333Y-69858095D01*
X158518428Y-69858095D01*
X158708904Y-69905714D01*
X158804142Y-69953333D01*
X158851761Y-70000952D01*
X158899380Y-70096190D01*
X158899380Y-70191428D01*
X158851761Y-70286666D01*
X158804142Y-70334285D01*
X158708904Y-70381904D01*
X158518428Y-70429523D01*
X158280333Y-70429523D01*
X158089857Y-70381904D01*
X157994619Y-70334285D01*
X157947000Y-70286666D01*
X157899380Y-70191428D01*
G04 #@! TO.C,R9*
X168932380Y-71286666D02*
X168456190Y-71620000D01*
X168932380Y-71858095D02*
X167932380Y-71858095D01*
X167932380Y-71477142D01*
X167980000Y-71381904D01*
X168027619Y-71334285D01*
X168122857Y-71286666D01*
X168265714Y-71286666D01*
X168360952Y-71334285D01*
X168408571Y-71381904D01*
X168456190Y-71477142D01*
X168456190Y-71858095D01*
X168932380Y-70810476D02*
X168932380Y-70620000D01*
X168884761Y-70524761D01*
X168837142Y-70477142D01*
X168694285Y-70381904D01*
X168503809Y-70334285D01*
X168122857Y-70334285D01*
X168027619Y-70381904D01*
X167980000Y-70429523D01*
X167932380Y-70524761D01*
X167932380Y-70715238D01*
X167980000Y-70810476D01*
X168027619Y-70858095D01*
X168122857Y-70905714D01*
X168360952Y-70905714D01*
X168456190Y-70858095D01*
X168503809Y-70810476D01*
X168551428Y-70715238D01*
X168551428Y-70524761D01*
X168503809Y-70429523D01*
X168456190Y-70381904D01*
X168360952Y-70334285D01*
G04 #@! TO.C,R8*
X191792380Y-71286666D02*
X191316190Y-71620000D01*
X191792380Y-71858095D02*
X190792380Y-71858095D01*
X190792380Y-71477142D01*
X190840000Y-71381904D01*
X190887619Y-71334285D01*
X190982857Y-71286666D01*
X191125714Y-71286666D01*
X191220952Y-71334285D01*
X191268571Y-71381904D01*
X191316190Y-71477142D01*
X191316190Y-71858095D01*
X191220952Y-70715238D02*
X191173333Y-70810476D01*
X191125714Y-70858095D01*
X191030476Y-70905714D01*
X190982857Y-70905714D01*
X190887619Y-70858095D01*
X190840000Y-70810476D01*
X190792380Y-70715238D01*
X190792380Y-70524761D01*
X190840000Y-70429523D01*
X190887619Y-70381904D01*
X190982857Y-70334285D01*
X191030476Y-70334285D01*
X191125714Y-70381904D01*
X191173333Y-70429523D01*
X191220952Y-70524761D01*
X191220952Y-70715238D01*
X191268571Y-70810476D01*
X191316190Y-70858095D01*
X191411428Y-70905714D01*
X191601904Y-70905714D01*
X191697142Y-70858095D01*
X191744761Y-70810476D01*
X191792380Y-70715238D01*
X191792380Y-70524761D01*
X191744761Y-70429523D01*
X191697142Y-70381904D01*
X191601904Y-70334285D01*
X191411428Y-70334285D01*
X191316190Y-70381904D01*
X191268571Y-70429523D01*
X191220952Y-70524761D01*
G04 #@! TO.C,R7*
X191079380Y-93892666D02*
X190603190Y-94226000D01*
X191079380Y-94464095D02*
X190079380Y-94464095D01*
X190079380Y-94083142D01*
X190127000Y-93987904D01*
X190174619Y-93940285D01*
X190269857Y-93892666D01*
X190412714Y-93892666D01*
X190507952Y-93940285D01*
X190555571Y-93987904D01*
X190603190Y-94083142D01*
X190603190Y-94464095D01*
X190079380Y-93559333D02*
X190079380Y-92892666D01*
X191079380Y-93321238D01*
G04 #@! TO.C,R6*
X188539380Y-93892666D02*
X188063190Y-94226000D01*
X188539380Y-94464095D02*
X187539380Y-94464095D01*
X187539380Y-94083142D01*
X187587000Y-93987904D01*
X187634619Y-93940285D01*
X187729857Y-93892666D01*
X187872714Y-93892666D01*
X187967952Y-93940285D01*
X188015571Y-93987904D01*
X188063190Y-94083142D01*
X188063190Y-94464095D01*
X187539380Y-93035523D02*
X187539380Y-93226000D01*
X187587000Y-93321238D01*
X187634619Y-93368857D01*
X187777476Y-93464095D01*
X187967952Y-93511714D01*
X188348904Y-93511714D01*
X188444142Y-93464095D01*
X188491761Y-93416476D01*
X188539380Y-93321238D01*
X188539380Y-93130761D01*
X188491761Y-93035523D01*
X188444142Y-92987904D01*
X188348904Y-92940285D01*
X188110809Y-92940285D01*
X188015571Y-92987904D01*
X187967952Y-93035523D01*
X187920333Y-93130761D01*
X187920333Y-93321238D01*
X187967952Y-93416476D01*
X188015571Y-93464095D01*
X188110809Y-93511714D01*
G04 #@! TO.C,R5*
X126198333Y-111069380D02*
X125865000Y-110593190D01*
X125626904Y-111069380D02*
X125626904Y-110069380D01*
X126007857Y-110069380D01*
X126103095Y-110117000D01*
X126150714Y-110164619D01*
X126198333Y-110259857D01*
X126198333Y-110402714D01*
X126150714Y-110497952D01*
X126103095Y-110545571D01*
X126007857Y-110593190D01*
X125626904Y-110593190D01*
X127103095Y-110069380D02*
X126626904Y-110069380D01*
X126579285Y-110545571D01*
X126626904Y-110497952D01*
X126722142Y-110450333D01*
X126960238Y-110450333D01*
X127055476Y-110497952D01*
X127103095Y-110545571D01*
X127150714Y-110640809D01*
X127150714Y-110878904D01*
X127103095Y-110974142D01*
X127055476Y-111021761D01*
X126960238Y-111069380D01*
X126722142Y-111069380D01*
X126626904Y-111021761D01*
X126579285Y-110974142D01*
G04 #@! TO.C,R4*
X126325333Y-108529380D02*
X125992000Y-108053190D01*
X125753904Y-108529380D02*
X125753904Y-107529380D01*
X126134857Y-107529380D01*
X126230095Y-107577000D01*
X126277714Y-107624619D01*
X126325333Y-107719857D01*
X126325333Y-107862714D01*
X126277714Y-107957952D01*
X126230095Y-108005571D01*
X126134857Y-108053190D01*
X125753904Y-108053190D01*
X127182476Y-107862714D02*
X127182476Y-108529380D01*
X126944380Y-107481761D02*
X126706285Y-108196047D01*
X127325333Y-108196047D01*
G04 #@! TO.C,R3*
X122958380Y-88304666D02*
X122482190Y-88638000D01*
X122958380Y-88876095D02*
X121958380Y-88876095D01*
X121958380Y-88495142D01*
X122006000Y-88399904D01*
X122053619Y-88352285D01*
X122148857Y-88304666D01*
X122291714Y-88304666D01*
X122386952Y-88352285D01*
X122434571Y-88399904D01*
X122482190Y-88495142D01*
X122482190Y-88876095D01*
X121958380Y-87971333D02*
X121958380Y-87352285D01*
X122339333Y-87685619D01*
X122339333Y-87542761D01*
X122386952Y-87447523D01*
X122434571Y-87399904D01*
X122529809Y-87352285D01*
X122767904Y-87352285D01*
X122863142Y-87399904D01*
X122910761Y-87447523D01*
X122958380Y-87542761D01*
X122958380Y-87828476D01*
X122910761Y-87923714D01*
X122863142Y-87971333D01*
G04 #@! TO.C,R2*
X112228333Y-81986380D02*
X111895000Y-81510190D01*
X111656904Y-81986380D02*
X111656904Y-80986380D01*
X112037857Y-80986380D01*
X112133095Y-81034000D01*
X112180714Y-81081619D01*
X112228333Y-81176857D01*
X112228333Y-81319714D01*
X112180714Y-81414952D01*
X112133095Y-81462571D01*
X112037857Y-81510190D01*
X111656904Y-81510190D01*
X112609285Y-81081619D02*
X112656904Y-81034000D01*
X112752142Y-80986380D01*
X112990238Y-80986380D01*
X113085476Y-81034000D01*
X113133095Y-81081619D01*
X113180714Y-81176857D01*
X113180714Y-81272095D01*
X113133095Y-81414952D01*
X112561666Y-81986380D01*
X113180714Y-81986380D01*
G04 #@! TO.C,R1*
X147915333Y-98115380D02*
X147582000Y-97639190D01*
X147343904Y-98115380D02*
X147343904Y-97115380D01*
X147724857Y-97115380D01*
X147820095Y-97163000D01*
X147867714Y-97210619D01*
X147915333Y-97305857D01*
X147915333Y-97448714D01*
X147867714Y-97543952D01*
X147820095Y-97591571D01*
X147724857Y-97639190D01*
X147343904Y-97639190D01*
X148867714Y-98115380D02*
X148296285Y-98115380D01*
X148582000Y-98115380D02*
X148582000Y-97115380D01*
X148486761Y-97258238D01*
X148391523Y-97353476D01*
X148296285Y-97401095D01*
G04 #@! TO.C,LED1*
X111275952Y-78430380D02*
X110799761Y-78430380D01*
X110799761Y-77430380D01*
X111609285Y-77906571D02*
X111942619Y-77906571D01*
X112085476Y-78430380D02*
X111609285Y-78430380D01*
X111609285Y-77430380D01*
X112085476Y-77430380D01*
X112514047Y-78430380D02*
X112514047Y-77430380D01*
X112752142Y-77430380D01*
X112895000Y-77478000D01*
X112990238Y-77573238D01*
X113037857Y-77668476D01*
X113085476Y-77858952D01*
X113085476Y-78001809D01*
X113037857Y-78192285D01*
X112990238Y-78287523D01*
X112895000Y-78382761D01*
X112752142Y-78430380D01*
X112514047Y-78430380D01*
X114037857Y-78430380D02*
X113466428Y-78430380D01*
X113752142Y-78430380D02*
X113752142Y-77430380D01*
X113656904Y-77573238D01*
X113561666Y-77668476D01*
X113466428Y-77716095D01*
G04 #@! TO.C,DLED3*
X138620761Y-111069380D02*
X138620761Y-110069380D01*
X138858857Y-110069380D01*
X139001714Y-110117000D01*
X139096952Y-110212238D01*
X139144571Y-110307476D01*
X139192190Y-110497952D01*
X139192190Y-110640809D01*
X139144571Y-110831285D01*
X139096952Y-110926523D01*
X139001714Y-111021761D01*
X138858857Y-111069380D01*
X138620761Y-111069380D01*
X140096952Y-111069380D02*
X139620761Y-111069380D01*
X139620761Y-110069380D01*
X140430285Y-110545571D02*
X140763619Y-110545571D01*
X140906476Y-111069380D02*
X140430285Y-111069380D01*
X140430285Y-110069380D01*
X140906476Y-110069380D01*
X141335047Y-111069380D02*
X141335047Y-110069380D01*
X141573142Y-110069380D01*
X141716000Y-110117000D01*
X141811238Y-110212238D01*
X141858857Y-110307476D01*
X141906476Y-110497952D01*
X141906476Y-110640809D01*
X141858857Y-110831285D01*
X141811238Y-110926523D01*
X141716000Y-111021761D01*
X141573142Y-111069380D01*
X141335047Y-111069380D01*
X142239809Y-110069380D02*
X142858857Y-110069380D01*
X142525523Y-110450333D01*
X142668380Y-110450333D01*
X142763619Y-110497952D01*
X142811238Y-110545571D01*
X142858857Y-110640809D01*
X142858857Y-110878904D01*
X142811238Y-110974142D01*
X142763619Y-111021761D01*
X142668380Y-111069380D01*
X142382666Y-111069380D01*
X142287428Y-111021761D01*
X142239809Y-110974142D01*
G04 #@! TO.C,DLED2*
X138620761Y-108529380D02*
X138620761Y-107529380D01*
X138858857Y-107529380D01*
X139001714Y-107577000D01*
X139096952Y-107672238D01*
X139144571Y-107767476D01*
X139192190Y-107957952D01*
X139192190Y-108100809D01*
X139144571Y-108291285D01*
X139096952Y-108386523D01*
X139001714Y-108481761D01*
X138858857Y-108529380D01*
X138620761Y-108529380D01*
X140096952Y-108529380D02*
X139620761Y-108529380D01*
X139620761Y-107529380D01*
X140430285Y-108005571D02*
X140763619Y-108005571D01*
X140906476Y-108529380D02*
X140430285Y-108529380D01*
X140430285Y-107529380D01*
X140906476Y-107529380D01*
X141335047Y-108529380D02*
X141335047Y-107529380D01*
X141573142Y-107529380D01*
X141716000Y-107577000D01*
X141811238Y-107672238D01*
X141858857Y-107767476D01*
X141906476Y-107957952D01*
X141906476Y-108100809D01*
X141858857Y-108291285D01*
X141811238Y-108386523D01*
X141716000Y-108481761D01*
X141573142Y-108529380D01*
X141335047Y-108529380D01*
X142287428Y-107624619D02*
X142335047Y-107577000D01*
X142430285Y-107529380D01*
X142668380Y-107529380D01*
X142763619Y-107577000D01*
X142811238Y-107624619D01*
X142858857Y-107719857D01*
X142858857Y-107815095D01*
X142811238Y-107957952D01*
X142239809Y-108529380D01*
X142858857Y-108529380D01*
G04 #@! TO.C,D2*
X183411904Y-74642380D02*
X183411904Y-73642380D01*
X183650000Y-73642380D01*
X183792857Y-73690000D01*
X183888095Y-73785238D01*
X183935714Y-73880476D01*
X183983333Y-74070952D01*
X183983333Y-74213809D01*
X183935714Y-74404285D01*
X183888095Y-74499523D01*
X183792857Y-74594761D01*
X183650000Y-74642380D01*
X183411904Y-74642380D01*
X184364285Y-73737619D02*
X184411904Y-73690000D01*
X184507142Y-73642380D01*
X184745238Y-73642380D01*
X184840476Y-73690000D01*
X184888095Y-73737619D01*
X184935714Y-73832857D01*
X184935714Y-73928095D01*
X184888095Y-74070952D01*
X184316666Y-74642380D01*
X184935714Y-74642380D01*
G04 #@! TO.C,C6*
X143851333Y-103100142D02*
X143803714Y-103147761D01*
X143660857Y-103195380D01*
X143565619Y-103195380D01*
X143422761Y-103147761D01*
X143327523Y-103052523D01*
X143279904Y-102957285D01*
X143232285Y-102766809D01*
X143232285Y-102623952D01*
X143279904Y-102433476D01*
X143327523Y-102338238D01*
X143422761Y-102243000D01*
X143565619Y-102195380D01*
X143660857Y-102195380D01*
X143803714Y-102243000D01*
X143851333Y-102290619D01*
X144708476Y-102195380D02*
X144518000Y-102195380D01*
X144422761Y-102243000D01*
X144375142Y-102290619D01*
X144279904Y-102433476D01*
X144232285Y-102623952D01*
X144232285Y-103004904D01*
X144279904Y-103100142D01*
X144327523Y-103147761D01*
X144422761Y-103195380D01*
X144613238Y-103195380D01*
X144708476Y-103147761D01*
X144756095Y-103100142D01*
X144803714Y-103004904D01*
X144803714Y-102766809D01*
X144756095Y-102671571D01*
X144708476Y-102623952D01*
X144613238Y-102576333D01*
X144422761Y-102576333D01*
X144327523Y-102623952D01*
X144279904Y-102671571D01*
X144232285Y-102766809D01*
G04 #@! TO.C,C5*
X136104333Y-99036142D02*
X136056714Y-99083761D01*
X135913857Y-99131380D01*
X135818619Y-99131380D01*
X135675761Y-99083761D01*
X135580523Y-98988523D01*
X135532904Y-98893285D01*
X135485285Y-98702809D01*
X135485285Y-98559952D01*
X135532904Y-98369476D01*
X135580523Y-98274238D01*
X135675761Y-98179000D01*
X135818619Y-98131380D01*
X135913857Y-98131380D01*
X136056714Y-98179000D01*
X136104333Y-98226619D01*
X137009095Y-98131380D02*
X136532904Y-98131380D01*
X136485285Y-98607571D01*
X136532904Y-98559952D01*
X136628142Y-98512333D01*
X136866238Y-98512333D01*
X136961476Y-98559952D01*
X137009095Y-98607571D01*
X137056714Y-98702809D01*
X137056714Y-98940904D01*
X137009095Y-99036142D01*
X136961476Y-99083761D01*
X136866238Y-99131380D01*
X136628142Y-99131380D01*
X136532904Y-99083761D01*
X136485285Y-99036142D01*
G04 #@! TO.C,C4*
X124055142Y-101893666D02*
X124102761Y-101941285D01*
X124150380Y-102084142D01*
X124150380Y-102179380D01*
X124102761Y-102322238D01*
X124007523Y-102417476D01*
X123912285Y-102465095D01*
X123721809Y-102512714D01*
X123578952Y-102512714D01*
X123388476Y-102465095D01*
X123293238Y-102417476D01*
X123198000Y-102322238D01*
X123150380Y-102179380D01*
X123150380Y-102084142D01*
X123198000Y-101941285D01*
X123245619Y-101893666D01*
X123483714Y-101036523D02*
X124150380Y-101036523D01*
X123102761Y-101274619D02*
X123817047Y-101512714D01*
X123817047Y-100893666D01*
G04 #@! TO.C,C3*
X124027142Y-96813666D02*
X124074761Y-96861285D01*
X124122380Y-97004142D01*
X124122380Y-97099380D01*
X124074761Y-97242238D01*
X123979523Y-97337476D01*
X123884285Y-97385095D01*
X123693809Y-97432714D01*
X123550952Y-97432714D01*
X123360476Y-97385095D01*
X123265238Y-97337476D01*
X123170000Y-97242238D01*
X123122380Y-97099380D01*
X123122380Y-97004142D01*
X123170000Y-96861285D01*
X123217619Y-96813666D01*
X123122380Y-96480333D02*
X123122380Y-95861285D01*
X123503333Y-96194619D01*
X123503333Y-96051761D01*
X123550952Y-95956523D01*
X123598571Y-95908904D01*
X123693809Y-95861285D01*
X123931904Y-95861285D01*
X124027142Y-95908904D01*
X124074761Y-95956523D01*
X124122380Y-96051761D01*
X124122380Y-96337476D01*
X124074761Y-96432714D01*
X124027142Y-96480333D01*
G04 #@! TO.C,C2*
X109605142Y-70778666D02*
X109652761Y-70826285D01*
X109700380Y-70969142D01*
X109700380Y-71064380D01*
X109652761Y-71207238D01*
X109557523Y-71302476D01*
X109462285Y-71350095D01*
X109271809Y-71397714D01*
X109128952Y-71397714D01*
X108938476Y-71350095D01*
X108843238Y-71302476D01*
X108748000Y-71207238D01*
X108700380Y-71064380D01*
X108700380Y-70969142D01*
X108748000Y-70826285D01*
X108795619Y-70778666D01*
X108795619Y-70397714D02*
X108748000Y-70350095D01*
X108700380Y-70254857D01*
X108700380Y-70016761D01*
X108748000Y-69921523D01*
X108795619Y-69873904D01*
X108890857Y-69826285D01*
X108986095Y-69826285D01*
X109128952Y-69873904D01*
X109700380Y-70445333D01*
X109700380Y-69826285D01*
G04 #@! TO.C,C1*
X130770333Y-88368142D02*
X130722714Y-88415761D01*
X130579857Y-88463380D01*
X130484619Y-88463380D01*
X130341761Y-88415761D01*
X130246523Y-88320523D01*
X130198904Y-88225285D01*
X130151285Y-88034809D01*
X130151285Y-87891952D01*
X130198904Y-87701476D01*
X130246523Y-87606238D01*
X130341761Y-87511000D01*
X130484619Y-87463380D01*
X130579857Y-87463380D01*
X130722714Y-87511000D01*
X130770333Y-87558619D01*
X131722714Y-88463380D02*
X131151285Y-88463380D01*
X131437000Y-88463380D02*
X131437000Y-87463380D01*
X131341761Y-87606238D01*
X131246523Y-87701476D01*
X131151285Y-87749095D01*
G04 #@! TO.C,Y1*
X113260190Y-99663190D02*
X113736380Y-99663190D01*
X112736380Y-99996523D02*
X113260190Y-99663190D01*
X112736380Y-99329857D01*
X113736380Y-98472714D02*
X113736380Y-99044142D01*
X113736380Y-98758428D02*
X112736380Y-98758428D01*
X112879238Y-98853666D01*
X112974476Y-98948904D01*
X113022095Y-99044142D01*
G04 #@! TO.C,U2*
X116840095Y-84852380D02*
X116840095Y-85661904D01*
X116887714Y-85757142D01*
X116935333Y-85804761D01*
X117030571Y-85852380D01*
X117221047Y-85852380D01*
X117316285Y-85804761D01*
X117363904Y-85757142D01*
X117411523Y-85661904D01*
X117411523Y-84852380D01*
X117840095Y-84947619D02*
X117887714Y-84900000D01*
X117982952Y-84852380D01*
X118221047Y-84852380D01*
X118316285Y-84900000D01*
X118363904Y-84947619D01*
X118411523Y-85042857D01*
X118411523Y-85138095D01*
X118363904Y-85280952D01*
X117792476Y-85852380D01*
X118411523Y-85852380D01*
G04 #@! TO.C,U1*
X131524760Y-97281904D02*
X132334284Y-97281904D01*
X132429522Y-97234285D01*
X132477141Y-97186666D01*
X132524760Y-97091428D01*
X132524760Y-96900952D01*
X132477141Y-96805714D01*
X132429522Y-96758095D01*
X132334284Y-96710476D01*
X131524760Y-96710476D01*
X132524760Y-95710476D02*
X132524760Y-96281904D01*
X132524760Y-95996190D02*
X131524760Y-95996190D01*
X131667618Y-96091428D01*
X131762856Y-96186666D01*
X131810475Y-96281904D01*
G04 #@! TO.C,DIN3*
D12*
X135425571Y-52986500D02*
X133925571Y-52986500D01*
X133925571Y-52629357D01*
X133997000Y-52415071D01*
X134139857Y-52272214D01*
X134282714Y-52200785D01*
X134568428Y-52129357D01*
X134782714Y-52129357D01*
X135068428Y-52200785D01*
X135211285Y-52272214D01*
X135354142Y-52415071D01*
X135425571Y-52629357D01*
X135425571Y-52986500D01*
X135425571Y-51486500D02*
X133925571Y-51486500D01*
X135425571Y-50772214D02*
X133925571Y-50772214D01*
X135425571Y-49915071D01*
X133925571Y-49915071D01*
X133925571Y-49343642D02*
X133925571Y-48415071D01*
X134497000Y-48915071D01*
X134497000Y-48700785D01*
X134568428Y-48557928D01*
X134639857Y-48486500D01*
X134782714Y-48415071D01*
X135139857Y-48415071D01*
X135282714Y-48486500D01*
X135354142Y-48557928D01*
X135425571Y-48700785D01*
X135425571Y-49129357D01*
X135354142Y-49272214D01*
X135282714Y-49343642D01*
X136847142Y-67558571D02*
X136847142Y-66058571D01*
X137347142Y-67130000D01*
X137847142Y-66058571D01*
X137847142Y-67558571D01*
X138561428Y-67558571D02*
X138561428Y-66058571D01*
X139275714Y-67558571D02*
X139275714Y-66058571D01*
X139632857Y-66058571D01*
X139847142Y-66130000D01*
X139990000Y-66272857D01*
X140061428Y-66415714D01*
X140132857Y-66701428D01*
X140132857Y-66915714D01*
X140061428Y-67201428D01*
X139990000Y-67344285D01*
X139847142Y-67487142D01*
X139632857Y-67558571D01*
X139275714Y-67558571D01*
X140775714Y-67558571D02*
X140775714Y-66058571D01*
X141132857Y-67701428D02*
X142275714Y-67701428D01*
X142918571Y-66058571D02*
X143204285Y-66058571D01*
X143347142Y-66130000D01*
X143490000Y-66272857D01*
X143561428Y-66558571D01*
X143561428Y-67058571D01*
X143490000Y-67344285D01*
X143347142Y-67487142D01*
X143204285Y-67558571D01*
X142918571Y-67558571D01*
X142775714Y-67487142D01*
X142632857Y-67344285D01*
X142561428Y-67058571D01*
X142561428Y-66558571D01*
X142632857Y-66272857D01*
X142775714Y-66130000D01*
X142918571Y-66058571D01*
X144204285Y-66058571D02*
X144204285Y-67272857D01*
X144275714Y-67415714D01*
X144347142Y-67487142D01*
X144490000Y-67558571D01*
X144775714Y-67558571D01*
X144918571Y-67487142D01*
X144990000Y-67415714D01*
X145061428Y-67272857D01*
X145061428Y-66058571D01*
X145561428Y-66058571D02*
X146418571Y-66058571D01*
X145990000Y-67558571D02*
X145990000Y-66058571D01*
X147704285Y-67558571D02*
X146847142Y-67558571D01*
X147275714Y-67558571D02*
X147275714Y-66058571D01*
X147132857Y-66272857D01*
X146990000Y-66415714D01*
X146847142Y-66487142D01*
G04 #@! TO.C,DIN2*
X158158571Y-53050000D02*
X156658571Y-53050000D01*
X156658571Y-52692857D01*
X156730000Y-52478571D01*
X156872857Y-52335714D01*
X157015714Y-52264285D01*
X157301428Y-52192857D01*
X157515714Y-52192857D01*
X157801428Y-52264285D01*
X157944285Y-52335714D01*
X158087142Y-52478571D01*
X158158571Y-52692857D01*
X158158571Y-53050000D01*
X158158571Y-51550000D02*
X156658571Y-51550000D01*
X158158571Y-50835714D02*
X156658571Y-50835714D01*
X158158571Y-49978571D01*
X156658571Y-49978571D01*
X156801428Y-49335714D02*
X156730000Y-49264285D01*
X156658571Y-49121428D01*
X156658571Y-48764285D01*
X156730000Y-48621428D01*
X156801428Y-48550000D01*
X156944285Y-48478571D01*
X157087142Y-48478571D01*
X157301428Y-48550000D01*
X158158571Y-49407142D01*
X158158571Y-48478571D01*
X159671428Y-67558571D02*
X159671428Y-66058571D01*
X160171428Y-67130000D01*
X160671428Y-66058571D01*
X160671428Y-67558571D01*
X161385714Y-67558571D02*
X161385714Y-66058571D01*
X162100000Y-67558571D02*
X162100000Y-66058571D01*
X162457142Y-66058571D01*
X162671428Y-66130000D01*
X162814285Y-66272857D01*
X162885714Y-66415714D01*
X162957142Y-66701428D01*
X162957142Y-66915714D01*
X162885714Y-67201428D01*
X162814285Y-67344285D01*
X162671428Y-67487142D01*
X162457142Y-67558571D01*
X162100000Y-67558571D01*
X163600000Y-67558571D02*
X163600000Y-66058571D01*
X163957142Y-67701428D02*
X165100000Y-67701428D01*
X165242857Y-66058571D02*
X166100000Y-66058571D01*
X165671428Y-67558571D02*
X165671428Y-66058571D01*
X166600000Y-67558571D02*
X166600000Y-66058571D01*
X166600000Y-66772857D02*
X167457142Y-66772857D01*
X167457142Y-67558571D02*
X167457142Y-66058571D01*
X169028571Y-67558571D02*
X168528571Y-66844285D01*
X168171428Y-67558571D02*
X168171428Y-66058571D01*
X168742857Y-66058571D01*
X168885714Y-66130000D01*
X168957142Y-66201428D01*
X169028571Y-66344285D01*
X169028571Y-66558571D01*
X168957142Y-66701428D01*
X168885714Y-66772857D01*
X168742857Y-66844285D01*
X168171428Y-66844285D01*
X169671428Y-66058571D02*
X169671428Y-67272857D01*
X169742857Y-67415714D01*
X169814285Y-67487142D01*
X169957142Y-67558571D01*
X170242857Y-67558571D01*
X170385714Y-67487142D01*
X170457142Y-67415714D01*
X170528571Y-67272857D01*
X170528571Y-66058571D01*
G04 #@! TO.C,DIN1*
X181082071Y-52542000D02*
X179582071Y-52542000D01*
X179582071Y-52184857D01*
X179653500Y-51970571D01*
X179796357Y-51827714D01*
X179939214Y-51756285D01*
X180224928Y-51684857D01*
X180439214Y-51684857D01*
X180724928Y-51756285D01*
X180867785Y-51827714D01*
X181010642Y-51970571D01*
X181082071Y-52184857D01*
X181082071Y-52542000D01*
X181082071Y-51042000D02*
X179582071Y-51042000D01*
X181082071Y-50327714D02*
X179582071Y-50327714D01*
X181082071Y-49470571D01*
X179582071Y-49470571D01*
X181082071Y-47970571D02*
X181082071Y-48827714D01*
X181082071Y-48399142D02*
X179582071Y-48399142D01*
X179796357Y-48542000D01*
X179939214Y-48684857D01*
X180010642Y-48827714D01*
X184281428Y-67558571D02*
X184281428Y-66058571D01*
X184781428Y-67130000D01*
X185281428Y-66058571D01*
X185281428Y-67558571D01*
X185995714Y-67558571D02*
X185995714Y-66058571D01*
X186710000Y-67558571D02*
X186710000Y-66058571D01*
X187067142Y-66058571D01*
X187281428Y-66130000D01*
X187424285Y-66272857D01*
X187495714Y-66415714D01*
X187567142Y-66701428D01*
X187567142Y-66915714D01*
X187495714Y-67201428D01*
X187424285Y-67344285D01*
X187281428Y-67487142D01*
X187067142Y-67558571D01*
X186710000Y-67558571D01*
X188210000Y-67558571D02*
X188210000Y-66058571D01*
X188567142Y-67701428D02*
X189710000Y-67701428D01*
X190067142Y-67558571D02*
X190067142Y-66058571D01*
X190781428Y-67558571D02*
X190781428Y-66058571D01*
X191638571Y-67558571D01*
X191638571Y-66058571D01*
G04 #@! TO.C,J9*
D10*
X112696666Y-110787380D02*
X112696666Y-111501666D01*
X112649047Y-111644523D01*
X112553809Y-111739761D01*
X112410952Y-111787380D01*
X112315714Y-111787380D01*
X113220476Y-111787380D02*
X113410952Y-111787380D01*
X113506190Y-111739761D01*
X113553809Y-111692142D01*
X113649047Y-111549285D01*
X113696666Y-111358809D01*
X113696666Y-110977857D01*
X113649047Y-110882619D01*
X113601428Y-110835000D01*
X113506190Y-110787380D01*
X113315714Y-110787380D01*
X113220476Y-110835000D01*
X113172857Y-110882619D01*
X113125238Y-110977857D01*
X113125238Y-111215952D01*
X113172857Y-111311190D01*
X113220476Y-111358809D01*
X113315714Y-111406428D01*
X113506190Y-111406428D01*
X113601428Y-111358809D01*
X113649047Y-111311190D01*
X113696666Y-111215952D01*
G04 #@! TO.C,J8*
X139112666Y-102957380D02*
X139112666Y-103671666D01*
X139065047Y-103814523D01*
X138969809Y-103909761D01*
X138826952Y-103957380D01*
X138731714Y-103957380D01*
X139731714Y-103385952D02*
X139636476Y-103338333D01*
X139588857Y-103290714D01*
X139541238Y-103195476D01*
X139541238Y-103147857D01*
X139588857Y-103052619D01*
X139636476Y-103005000D01*
X139731714Y-102957380D01*
X139922190Y-102957380D01*
X140017428Y-103005000D01*
X140065047Y-103052619D01*
X140112666Y-103147857D01*
X140112666Y-103195476D01*
X140065047Y-103290714D01*
X140017428Y-103338333D01*
X139922190Y-103385952D01*
X139731714Y-103385952D01*
X139636476Y-103433571D01*
X139588857Y-103481190D01*
X139541238Y-103576428D01*
X139541238Y-103766904D01*
X139588857Y-103862142D01*
X139636476Y-103909761D01*
X139731714Y-103957380D01*
X139922190Y-103957380D01*
X140017428Y-103909761D01*
X140065047Y-103862142D01*
X140112666Y-103766904D01*
X140112666Y-103576428D01*
X140065047Y-103481190D01*
X140017428Y-103433571D01*
X139922190Y-103385952D01*
G04 #@! TD*
M02*
